<?xml version="1.0" encoding="UTF-8"?>
<svg width="26px" height="26px" viewBox="0 0 26 26" version="1.1" xmlns="http://www.w3.org/2000/svg" xmlns:xlink="http://www.w3.org/1999/xlink">
    <!-- Generator: Sketch 46.2 (44496) - http://www.bohemiancoding.com/sketch -->
    <title>download</title>
    <desc>Created with Sketch.</desc>
    <defs></defs>
    <g id="Welcome" stroke="none" stroke-width="1" fill="none" fill-rule="evenodd">
        <g id="Desktop-HD-Download-App" transform="translate(-776.000000, -567.000000)" fill="#4B453E">
            <g id="Group" transform="translate(639.000000, 567.000000)">
                <g id="download" transform="translate(137.000000, 0.000000)">
                    <g id="Download">
                        <path d="M13.0047429,25.9999561 C5.8564746,26.0185159 -0.0947448512,20.1536013 0.00114278037,12.8038982 C0.0939372625,5.84704544 5.79770476,-0.0735487132 13.1655866,0.00069071198 C20.1530111,0.0687435184 26.0856717,5.81611235 25.9990635,13.181282 C25.9155485,20.1814411 20.1963152,25.9999561 13.0047429,25.9999561 Z M12.9954634,25.1987889 C19.7509017,25.2235354 25.1453543,19.7329113 25.2072173,13.1472556 C25.2752666,6.2275225 19.7199702,0.873003958 13.1810524,0.789484605 C6.30188812,0.699778632 0.718753442,6.28010876 0.796082177,13.1565355 C0.867224614,19.720538 6.24311828,25.2173488 12.9954634,25.1987889 Z" id="Shape" fill-rule="nonzero"></path>
                        <path d="M15.2170269,11.209198 C15.2881068,11.209198 15.3437345,11.209198 15.3993622,11.209198 C16.10398,11.209198 16.8116881,11.2152211 17.5163059,11.2061865 C17.7079125,11.203175 17.856253,11.2634056 17.942785,11.4169938 C18.0385883,11.5886511 18.0107745,11.76332 17.8840669,11.9199197 C17.3710557,12.5433069 16.861135,13.166694 16.3481238,13.7900812 C15.8042084,14.4526183 15.2572025,15.1121439 14.713287,15.774681 C14.4258772,16.1240188 14.1446481,16.4733565 13.8541478,16.8196827 C13.6501795,17.0606053 13.3442271,17.0606053 13.1402588,16.8166712 C12.4541836,15.9794652 11.7711989,15.1422592 11.0820333,14.3050533 C10.4423145,13.5280779 9.79950536,12.7511026 9.15669618,11.9771388 C8.92800446,11.7030893 8.94963746,11.4200053 9.22159519,11.2603941 C9.28649419,11.2212442 9.37611662,11.2122096 9.45646777,11.2122096 C10.1672664,11.209198 10.878065,11.209198 11.5888636,11.209198 C11.6444913,11.209198 11.700119,11.209198 11.7742893,11.209198 C11.7804702,11.1339097 11.7897415,11.067656 11.7897415,10.9983908 C11.7897415,9.57995905 11.7897415,8.15851579 11.7897415,6.74008407 C11.7897415,6.26426196 12.0524279,6.00527018 12.5376252,6.00225865 C13.1804344,5.99924712 13.826334,5.99924712 14.4691432,6.00225865 C14.9419788,6.00527018 15.2108461,6.27028503 15.2108461,6.73104947 C15.2108461,8.14646966 15.2108461,9.56188985 15.2108461,10.9742985 C15.2046652,11.0495868 15.2108461,11.1248751 15.2170269,11.209198 Z" id="Shape" fill-rule="nonzero"></path>
                        <path d="M13.4802013,19.9873216 C11.3384883,19.9873216 9.19677524,19.9873216 7.05190331,19.9873216 C6.54964317,19.9873216 6.23691516,19.7822784 6.0505419,19.3185653 C6.01579434,19.230239 6.00631774,19.1261402 6.00315887,19.0283503 C6,18.4226843 6,17.8201728 6,17.2145067 C6,17.0346996 6.02842982,17.0031545 6.20848534,17.0031545 C6.51489562,17 6.81814702,17 7.1245573,17.0031545 C7.30777169,17.0031545 7.33620151,17.0315451 7.33620151,17.2113522 C7.33620151,17.599357 7.34251924,17.9905163 7.33304264,18.3785212 C7.32988377,18.5078561 7.36463133,18.5520192 7.50046269,18.5488647 C8.19541382,18.5425557 8.89036496,18.5457102 9.5853161,18.5457102 C12.8610631,18.5457102 16.1336511,18.5457102 19.4093981,18.5457102 C19.6905374,18.5457102 19.652631,18.5614828 19.652631,18.2996584 C19.652631,17.9305806 19.6589487,17.5646574 19.6494721,17.1955797 C19.6463133,17.0473177 19.7158084,17 19.8484809,17 C20.1643677,17 20.4802546,17.0031545 20.7961415,17 C20.9319729,17 20.9919914,17.0567812 20.9919914,17.1987342 C20.9856736,17.7728551 20.9635616,18.346976 20.9983091,18.9179425 C21.0330567,19.5172995 20.5276377,20.0062486 19.9084994,19.9999396 C17.7667863,19.971549 15.6219144,19.9873216 13.4802013,19.9873216 Z" id="Shape" fill-rule="nonzero"></path>
                    </g>
                </g>
            </g>
        </g>
    </g>
</svg>