<?xml version="1.0" encoding="UTF-8"?>
<svg width="35px" height="35px" viewBox="0 0 35 35" version="1.1" xmlns="http://www.w3.org/2000/svg" xmlns:xlink="http://www.w3.org/1999/xlink">
    <!-- Generator: Sketch 46.2 (44496) - http://www.bohemiancoding.com/sketch -->
    <title>googleplus@2x</title>
    <desc>Created with Sketch.</desc>
    <defs></defs>
    <g id="Symbols" stroke="none" stroke-width="1" fill="none" fill-rule="evenodd">
        <g id="googleplus">
            <g>
                <rect id="Rectangle" x="0" y="0" width="35" height="35"></rect>
                <circle id="Oval" cx="17.5" cy="17.5" r="17.5"></circle>
                <path d="M14.4876486,26.9362479 C12.3277743,26.9362479 10.768992,25.5593558 10.768992,23.9060095 C10.768992,22.2849341 12.7035903,20.9349344 14.8623969,20.9585997 C15.3652643,20.9650539 15.8350343,21.0457312 16.2610303,21.1844961 C17.4322523,22.0063286 18.2735677,22.469954 18.510588,23.4058104 C18.5554297,23.5962087 18.5799858,23.7898342 18.5799858,23.9899138 C18.5799858,25.6443358 17.5219357,26.9362479 14.4876486,26.9362479 M15.0545756,17.2377638 C13.6057622,17.1936602 12.228482,15.6048557 11.9786497,13.6879637 C11.7288175,11.7710716 12.7003873,10.3038209 14.1492007,10.3468488 C15.5969464,10.3909524 16.9752942,11.9281234 17.2251265,13.8460911 C17.4749587,15.7629832 16.5033889,17.2818674 15.0545756,17.2377638 M18.0579005,20.0765282 C17.5496948,19.7140183 16.5791927,18.8330224 16.5791927,18.3145365 C16.5791927,17.705692 16.7510858,17.4077239 17.6575284,16.6934611 C18.5874595,15.9609114 19.2462051,14.9314694 19.2462051,13.7352944 C19.2462051,12.3089201 18.6162862,10.9201953 17.43332,10.4619484 L19.2163107,10.4619484 L20.4750807,9.54545455 L14.8506527,9.54545455 C12.3309772,9.54545455 9.9575711,11.4698765 9.9575711,13.6987207 C9.9575711,15.9770469 11.6765022,17.8154131 14.2410193,17.8154131 C14.4203861,17.8154131 14.5922792,17.812186 14.762037,17.7992776 C14.5965498,18.1198353 14.4759043,18.4823452 14.4759043,18.8566878 C14.4759043,19.4902733 14.8143523,20.0044565 15.2424836,20.4229026 C14.9189828,20.4229026 14.6061587,20.4325839 14.2677108,20.4325839 C11.144808,20.4325839 8.74043975,22.4355317 8.74043975,24.514854 C8.74043975,26.5608297 11.37649,27.8409091 14.4983252,27.8409091 C18.0579005,27.8409091 20.0255962,25.8056904 20.0255962,23.758639 C20.0255962,22.1182011 19.544082,21.135014 18.0579005,20.0765282 M26.2404397,17.4044968 L24.0517386,17.4044968 L24.0517386,15.199318 L22.2890335,15.199318 L22.2890335,17.4044968 L20.1003324,17.4044968 L20.1003324,19.1804726 L22.2890335,19.1804726 L22.2890335,21.3856514 L24.0517386,21.3856514 L24.0517386,19.1804726 L26.2404397,19.1804726 L26.2404397,17.4044968" id="Shape" fill="#6e6a64"></path>
            </g>
        </g>
    </g>
</svg>