<?xml version="1.0" encoding="UTF-8"?>
<svg width="496px" height="499px" viewBox="0 0 496 499" version="1.1" xmlns="http://www.w3.org/2000/svg" xmlns:xlink="http://www.w3.org/1999/xlink">
    <!-- Generator: Sketch 46.2 (44496) - http://www.bohemiancoding.com/sketch -->
    <title>icon-gecta-network</title>
    <desc>Created with Sketch.</desc>
    <defs>
        <polygon id="path-1" points="0 498.870436 0 0.252447106 495.712634 0.252447106 495.712634 498.870436"></polygon>
    </defs>
    <g id="Welcome" stroke="none" stroke-width="1" fill="none" fill-rule="evenodd">
        <g id="Desktop-HD-Gecta-Mining-Pool" transform="translate(-154.000000, -372.000000)">
            <g id="icon-gecta-network" transform="translate(154.000000, 372.000000)">
                <g id="Page-1">
                    <g id="Group-3">
                        <mask id="mask-2" fill="white">
                            <use xlink:href="#path-1"></use>
                        </mask>
                        <g id="Clip-2"></g>
                        <path d="M323.926993,455.602405 C320.880536,453.638557 319.092528,451.597346 317.381871,451.659832 C315.98062,451.710416 313.564875,454.314002 313.621401,455.703573 C313.686853,457.215141 316.063922,459.771118 317.465173,459.794923 C319.178805,459.818727 320.925162,457.682298 323.926993,455.602405 M356.381871,50.0678278 C358.410859,46.9286468 360.297044,45.241523 360.380345,43.4651333 C360.442821,42.2064854 357.70577,39.5344621 356.866805,39.7725043 C355.090697,40.2783439 352.853455,42.0755622 352.481573,43.7210286 C352.181093,45.0510892 354.340983,46.9375734 356.381871,50.0678278 M446.362418,330.752267 C449.028067,332.870842 450.735749,335.164973 451.86032,334.909078 C453.675103,334.49548 455.10908,332.400709 456.70371,331.014113 C455.213207,329.49957 453.927983,327.241145 452.151875,326.738281 C451.024329,326.4199 449.155994,328.711055 446.362418,330.752267 M43.7333125,117.418882 C43.010374,117.46649 42.2874356,117.514099 41.5615221,117.561707 C40.6541303,119.222051 38.8363715,121.034147 39.0833011,122.498106 C39.345106,124.054307 41.5644972,125.280224 42.9300476,126.651942 C44.40865,125.161203 46.8035695,123.81924 47.0713245,122.138068 C47.2885035,120.778252 44.94416,119.007813 43.7333125,117.418882 M142.6539,462.032519 C144.897092,459.152209 147.20276,457.485914 147.125408,455.932689 C147.048057,454.346733 144.816765,451.990115 143.17751,451.650905 C142.002363,451.406912 139.16416,453.828991 139.039208,455.23344 C138.89343,456.935441 140.824241,458.821925 142.6539,462.032519 M182.159659,37.591443 C179.883742,40.3616586 177.36387,42.1618525 177.598899,43.4591823 C177.914255,45.1790369 180.315125,47.5832627 181.94248,47.6844306 C183.400257,47.7736964 185.958805,45.3278132 186.289036,43.6555671 C186.556791,42.3106288 184.224348,40.4479489 182.159659,37.591443 M42.9240974,303.448831 C45.0661372,300.363209 47.1070252,298.595746 47.36883,296.599168 C47.5235329,295.394079 44.6347542,292.486989 43.6083602,292.704203 C41.5496219,293.13863 38.6548931,294.953701 38.3187119,296.63785 C38.0152562,298.173222 40.6481802,300.288821 42.9240974,303.448831 M471.180329,236.808928 C479.120751,236.954729 485.27019,230.973919 485.335642,223.047115 C485.395143,215.123287 479.221903,208.835998 471.430233,208.895509 C463.802192,208.952044 457.712253,214.894171 457.471274,222.520447 C457.224344,230.343108 463.290482,236.663127 471.180329,236.808928 M262.319548,24.6479005 C262.39095,16.5752957 256.458689,10.2999092 248.708671,10.2493252 C241.288883,10.2017168 234.526582,16.9650897 234.517657,24.4396136 C234.508732,32.199788 240.908076,38.5079053 248.735446,38.4513703 C256.625293,38.3948353 262.251122,32.6788479 262.319548,24.6479005 M251.09764,488.481979 C259.073763,488.455199 265.291629,482.382148 265.244028,474.65768 C265.205352,467.23374 258.306199,460.538804 250.868561,460.702458 C243.645126,460.860161 237.10298,467.165303 237.013728,474.059599 C236.903651,482.596386 242.675258,488.508758 251.09764,488.481979 M23.9997709,216.423592 C15.7618428,216.399788 9.92180933,222.100898 9.90098394,230.176478 C9.88313361,238.022943 16.1545501,244.35784 23.9164693,244.328085 C31.3927832,244.298329 37.6880002,238.067576 37.8843538,230.575199 C38.0717823,223.362521 31.49096,215.441668 23.9997709,216.423592 M248.452816,134.68289 C215.367226,134.68289 182.281636,134.68289 149.196047,134.68289 C139.42894,134.685865 134.82653,139.116425 134.823555,148.867227 C134.784879,215.236357 134.778929,281.602512 134.817605,347.968666 C134.823555,357.609374 139.238537,361.923888 148.853915,361.926863 C215.394002,361.938766 281.934088,361.938766 348.471199,361.920912 C357.774197,361.917937 362.111827,357.6183 362.117777,348.281097 C362.147528,281.548952 362.147528,214.816808 362.105877,148.084663 C362.099927,138.908138 357.631394,134.691816 348.262945,134.691816 C314.992902,134.68289 281.719884,134.688841 248.452816,134.68289 M85.6815918,235.678228 C74.4061323,235.684179 63.1306728,235.791298 51.8581884,235.618717 C48.603478,235.571109 47.0296737,236.678005 45.9080779,239.763626 C42.2457848,249.829834 30.3723393,256.090343 19.4598365,254.031278 C8.30337926,251.927581 0.282630251,242.801639 0.00892516581,231.902284 C-0.297505527,219.723452 7.08658165,208.541421 17.3713477,206.878102 C29.4113964,204.926156 39.9877179,207.196483 46.3959869,221.708128 C47.1129753,223.32979 49.8381259,225.034767 51.6499346,225.052621 C74.5608352,225.281736 97.4747109,225.115107 120.385612,225.293638 C124.393011,225.323394 124.559614,223.46964 124.741092,220.345337 C124.964222,216.536662 123.069111,216.346229 120.153557,216.370033 C108.152184,216.471201 96.1478362,216.292669 84.1494383,216.492029 C81.010755,216.542613 79.2435722,215.524983 77.7471194,212.835107 C73.8884727,205.914031 69.7709962,199.138756 65.7278961,192.324799 C65.1061095,191.277413 64.5348989,190.003888 63.5828812,189.387954 C60.4858487,187.391375 44.7061556,189.02494 41.8441524,191.455945 C37.8575783,194.839119 30.952475,194.907556 27.3288577,191.595795 C23.0418031,187.677026 22.607445,181.568269 26.2875884,176.881814 C29.7803033,172.430425 37.1286898,172.168579 41.9572045,175.837404 C43.9058657,177.322192 46.6191161,178.360651 49.0556864,178.530256 C54.6666406,178.926001 60.3519712,178.339822 65.9450751,178.830784 C68.0276138,179.015267 70.6694629,180.628002 71.802959,182.395465 C76.1852154,189.19752 79.8921342,196.434002 84.2505902,203.25391 C85.2531838,204.819037 87.8266066,206.184804 89.7157667,206.238363 C99.8934308,206.529965 110.082995,206.268119 120.260659,206.44665 C123.512395,206.503185 124.752993,205.619454 124.699442,202.200573 C124.526888,190.744794 124.559614,179.28604 124.678616,167.827285 C124.708367,164.958877 124.137156,163.581208 120.83782,163.610963 C104.653519,163.753789 88.4662435,163.59311 72.287893,163.795446 C70.3898077,163.81925 68.3280944,165.152286 66.6590884,166.330595 C62.3512084,169.371584 56.570676,169.862546 52.9946595,166.827508 C49.1538632,163.575257 48.2375462,159.138746 49.576321,154.482046 C50.8823703,149.926514 56.0530164,147.156299 61.3367145,147.793062 C62.5505371,147.941838 64.109466,148.188807 64.8264543,148.995175 C71.267449,156.264387 79.7255311,152.378349 87.3148971,153.122231 C87.7492552,153.163888 89.0434042,151.107799 88.7905245,150.527571 C85.7053922,143.419037 82.4893575,136.361087 79.0531686,129.416207 C78.586085,128.469989 76.7445258,127.755863 75.5098778,127.717181 C70.0625516,127.535674 64.5944,127.452359 59.155999,127.767765 C57.8172241,127.845128 56.356472,129.356696 55.3181777,130.532029 C51.0608736,135.355359 46.0003046,137.950018 39.4938587,136.381916 C33.1986418,134.861421 29.5065982,130.600467 28.6021814,124.32508 C27.7275151,118.272858 30.0540083,113.395969 35.2365546,109.917578 C40.9873365,106.05832 50.4718127,108.09358 55.1604998,113.8542 C56.4992746,115.499667 59.0191465,116.948749 61.0897849,117.088598 C67.4266527,117.511123 73.8200464,117.463515 80.1717894,117.171913 C83.6079783,117.01421 85.479288,118.228225 86.8359132,121.281116 C90.5636575,129.678053 94.7108845,137.893483 98.2690506,146.355882 C100.301013,151.182187 102.758409,154.487997 108.586542,153.324566 C109.461209,153.151986 110.401326,153.306713 111.308718,153.297787 C115.125714,153.259105 119.811426,154.520728 122.483025,152.753265 C124.595315,151.354767 124.169882,146.207106 124.979097,142.749543 C127.656647,131.326495 137.2631,123.929335 147.583567,124.756531 C152.822639,125.176081 158.124188,124.839846 163.398961,124.810091 C164.095124,124.807115 164.791286,124.592877 165.487449,124.476832 C164.907314,123.905531 164.42833,123.096187 163.729192,122.798635 C160.099624,121.248385 156.229077,120.150416 152.819664,118.22525 C151.049506,117.225473 149.157371,114.967048 148.895566,113.056759 C148.31543,108.772 148.812265,104.350367 148.690287,99.9882446 C148.53856,94.5489812 149.695856,89.184106 144.694788,84.4083851 C141.038445,80.9151164 143.400639,72.9079732 147.595467,69.9592259 C151.364862,67.3080313 158.156913,68.2244936 161.483025,71.8338079 C164.99954,75.6484335 164.562207,81.6441205 161.569302,86.1401418 C159.837819,88.743728 158.969103,92.3708954 158.906627,95.5606604 C158.626972,110.331176 158.8025,110.256788 172.740634,115.17831 C178.842473,117.332592 185.057363,119.397607 190.778394,122.364208 C197.043861,125.616459 203.508656,124.699996 209.961551,124.66429 C210.925469,124.658339 212.5915,122.652834 212.704552,121.453696 C213.064533,117.668826 212.302919,113.732204 212.963381,110.027673 C214.177204,103.172058 210.488135,100.678567 204.936682,98.4588237 C196.782056,95.1946705 188.969561,91.0824922 180.927986,87.5178108 C177.890455,86.1698971 176.513004,84.3786298 176.807535,80.9061898 C177.143716,76.9338612 176.917612,72.9109487 176.875961,68.9088649 C176.81646,62.9607863 177.521548,57.5869846 171.259057,52.8231658 C164.324203,47.5505319 165.996184,37.8830446 173.035165,32.1968125 C178.9823,27.3913364 188.883284,28.4893058 193.345867,34.4492865 C198.617665,41.4893834 197.54367,50.8741956 190.317261,55.4029477 C187.258904,57.3162116 186.512165,59.3752763 186.76207,62.4668489 C186.836446,63.3714091 186.919748,64.3146511 186.750169,65.1894561 C184.768783,75.4163424 188.288273,82.1678132 198.834844,84.5869167 C199.688685,84.780326 200.471124,85.2891411 201.30414,85.610498 C205.046759,87.0595797 208.792354,88.4908082 212.540924,89.9279877 C212.656951,85.7652254 212.755128,81.6024631 212.900905,77.4397008 C213.043708,73.3156204 212.796778,69.6973795 209.571818,66.1803066 C205.656646,61.9014987 206.843693,55.9147384 211.172398,52.2250849 C215.676632,48.386655 220.540847,48.4223613 224.863603,52.3292283 C229.561215,56.5723298 230.551908,61.4700473 226.386831,66.1624534 C223.033944,69.9413727 222.694787,73.8363376 222.739413,78.3591387 C222.879241,92.1774861 222.971467,106.001785 222.703712,119.817157 C222.620411,124.063234 224.039512,125.253444 227.996336,124.869601 C232.979553,124.387566 239.610951,126.050886 242.508655,123.435397 C245.037452,121.153168 243.520174,114.223166 243.538024,109.346277 C243.600501,90.9783487 243.413072,72.6074449 243.665952,54.2395167 C243.725453,49.9190514 242.422379,47.7231125 238.379279,46.1728629 C229.082231,42.605206 222.941717,30.8994827 224.658324,20.9195651 C226.514758,10.1422063 235.416124,1.37332813 245.019602,0.415208434 C259.644974,-1.04577533 268.522539,7.50588932 271.310165,16.1468198 C275.296739,28.4952569 270.887708,41.3941665 257.517809,46.9316223 C255.771452,47.6546754 253.825766,50.5022547 253.80494,52.3857633 C253.54611,74.9343071 253.665113,97.4858263 253.596686,120.040321 C253.587761,123.161649 253.888242,125.05706 257.940267,124.97672 C261.647186,124.902332 262.495077,123.658562 262.444501,120.236706 C262.277898,108.596444 262.444501,96.9561825 262.346324,85.3159208 C262.319548,82.1559111 262.991911,80.0700667 266.172245,78.3888939 C273.312378,74.6129501 280.166905,70.2776073 287.039283,66.0107015 C288.259055,65.2519421 289.755508,63.7552521 289.820959,62.5293349 C290.130365,56.7330083 290.118465,50.9099019 289.895336,45.1076242 C289.85071,43.9441932 288.562511,42.6349613 287.548017,41.7333766 C283.612019,38.2282058 283.900599,33.9404713 285.887936,29.9324364 C288.134103,25.4036843 293.138146,23.9873335 298.627123,25.4959257 C303.262259,26.7694512 305.166294,30.2359402 304.705161,34.5772341 C304.389805,37.5497856 302.554196,40.3289278 301.795557,43.2955283 C300.91494,46.732262 300.260428,50.2582615 299.897471,53.7872366 C299.56724,57.0037813 299.421463,60.3125673 299.79037,63.5112588 C300.528183,69.9056664 296.800439,72.9585571 291.796396,75.3479053 C290.169041,76.1215423 288.764815,77.4843337 287.080933,77.9901733 C273.883588,81.9476242 271.00671,91.3473141 272.657865,103.767164 C273.395679,109.310571 272.87802,115.029534 272.759017,120.665182 C272.699516,123.545492 273.46113,124.935063 276.727741,124.887455 C288.363182,124.726776 300.001598,124.759507 311.640015,124.872577 C314.445492,124.899357 315.537337,123.962066 315.525437,121.129364 C315.454036,104.942497 315.587913,88.7526545 315.358834,72.5687631 C315.332058,70.7358384 313.663052,68.7898438 312.431379,67.1354508 C309.387898,63.0500522 309.426574,55.8552278 312.684259,53.1296451 C318.09886,48.600893 325.268743,48.2140744 328.407426,53.4450509 C330.338237,56.6615956 331.465783,63.2910698 329.618274,65.2608687 C325.158666,70.0157609 325.628725,75.0116708 325.607899,80.3319131 C325.569223,91.064639 325.581124,91.0348838 335.642761,86.321649 C338.909371,84.7922281 342.303909,83.5454823 345.56457,82.0130858 C347.349603,81.1769627 350.172931,80.2724025 350.455561,78.9512685 C351.345102,74.8033839 351.615832,70.4323347 351.434354,66.1773311 C351.270726,62.3984117 353.037909,58.3695482 347.920814,55.2928532 C340.694404,50.9456082 340.054768,39.793333 345.671672,33.7292089 C351.318327,27.6323541 361.814322,27.6621093 367.425276,33.791695 C373.080856,39.9748401 372.298417,50.2850413 365.176134,55.2958287 C362.299256,57.3191871 361.516816,59.3246923 361.585243,62.4370936 C361.710195,67.8912346 361.207411,73.387033 361.73102,78.7935656 C362.26653,84.3072172 359.901361,86.8483172 355.075822,88.8270427 C346.406511,92.3827975 338.01388,96.6169724 329.454646,100.452427 C326.681894,101.693222 325.265768,103.332737 325.536498,106.611768 C326.024407,112.536042 326.131509,118.493047 326.396289,124.43815 C332.191696,124.569073 337.993054,124.851748 343.788462,124.792238 C351.419479,124.711899 358.946369,124.369713 365.131508,130.276134 C370.0463,134.971516 372.22999,140.586335 372.238915,147.218785 C372.253791,158.859047 372.378743,170.502284 372.19429,182.13957 C372.134789,185.802444 373.00053,187.462788 377.007929,187.144406 C381.161106,186.814123 385.397585,186.751637 389.538862,187.171186 C393.236856,187.543127 394.712483,185.546548 395.973906,182.782284 C400.394839,173.099919 404.720569,163.372921 409.373555,153.803626 C410.016167,152.482492 412.250434,151.256575 413.809363,151.179211 C419.976652,150.878683 426.170717,151.152432 432.349907,151.021508 C437.115946,150.920341 441.745132,151.631491 446.329692,148.328656 C450.423368,145.382885 456.926839,148.551821 459.571663,153.467392 C462.020133,158.025899 460.598057,164.155485 456.43298,167.000089 C451.863295,170.118441 445.243797,169.585821 442.265766,165.110629 C439.885722,161.528094 436.880916,161.528094 433.233499,160.849674 C420.500262,158.490081 413.981916,163.887687 409.775188,175.679701 C405.60416,187.376498 404.747344,187.04919 417.171175,187.08192 C421.824162,187.093822 426.143942,187.296158 430.169192,183.573774 C434.072464,179.961484 440.340906,181.395688 443.78007,185.501916 C446.793801,189.102303 446.838426,195.660365 443.869321,199.111976 C440.016625,203.596095 434.396745,205.232635 430.496448,201.316842 C425.608432,196.401271 420.170031,197.079691 414.505526,197.067789 C401.959718,197.038034 389.410934,197.16003 376.865126,196.990425 C373.568765,196.945792 372.105038,198.028884 372.277591,201.284111 C372.289491,201.465618 372.280566,201.647125 372.268666,201.828632 C371.462426,217.893503 371.462426,217.893503 387.358146,217.893503 C405.726138,217.890527 424.094129,217.860772 442.459145,217.914331 C445.731706,217.923258 447.704167,217.676289 449.126244,213.58494 C452.464256,203.971012 463.915244,197.671821 473.768627,198.814423 C485.552821,200.177215 493.87405,208.553323 495.540081,220.726204 C496.837205,230.24194 490.762142,241.45075 481.105113,245.161232 C468.30345,250.079778 455.168581,245.914041 448.915015,231.744581 C447.58219,228.727397 446.439769,227.956735 443.595616,227.962686 C421.226176,228.01327 398.85971,228.046001 376.493244,227.903176 C372.973754,227.879371 372.176439,229.262991 372.209165,232.41705 C372.238915,235.517549 373.00648,237.082676 376.511095,237.035068 C387.783579,236.883316 399.064989,237.151113 410.331523,236.889267 C414.133644,236.800001 416.35601,238.150891 418.102368,241.328753 C421.657559,247.794574 425.180024,254.299076 429.226099,260.452466 C430.463722,262.335974 433.218623,263.791007 435.521316,264.264116 C438.659999,264.909805 442.096188,264.817564 445.291398,264.3147 C448.266453,263.847542 451.446787,262.96381 453.907158,261.318344 C458.664271,258.137506 464.290101,258.039313 468.196348,261.877743 C472.367376,265.966117 472.691657,271.31909 469.053164,276.011496 C465.670526,280.376594 459.408035,282.063718 455.168581,278.281823 C450.717898,274.306519 445.916159,274.089306 441.066819,274.842114 C429.714008,276.600651 421.901513,273.059774 418.141043,261.794428 C417.528182,259.952577 416.207257,258.36067 415.439693,256.554525 C412.33076,249.24068 407.430844,245.946771 399.008463,246.997132 C391.669001,247.913595 384.118311,247.312538 376.668773,247.139958 C373.324811,247.062594 372.185364,248.342071 372.21809,251.603248 C372.334117,262.87752 372.319242,274.157743 372.232965,285.432015 C372.209165,288.580122 373.176058,289.966718 376.630097,289.928036 C391.707677,289.767358 406.794182,289.936963 421.871763,289.728676 C423.981077,289.698921 426.423597,288.678315 428.101528,287.348254 C432.921118,283.521727 439.097333,283.384852 443.119607,287.482153 C446.969329,291.397947 447.094281,298.241659 443.387362,302.08604 C439.424589,306.198218 432.552211,306.614792 428.43771,302.413348 C424.41246,298.304145 419.482793,300.14302 415.035086,299.80381 C405.000224,299.033149 404.979399,299.357481 408.980848,308.46557 C409.772213,310.271714 410.388049,312.16415 411.292466,313.910784 C413.330379,317.829553 414.728655,324.066258 417.781062,325.054133 C423.552669,326.922764 430.314969,325.955717 436.648862,325.696846 C437.945986,325.643287 439.335337,323.682415 440.388507,322.361281 C445.948885,315.371768 455.677316,314.288676 461.904106,320.055247 C468.654507,326.312781 468.577155,335.620229 461.713703,341.91942 C455.629715,347.50746 445.68708,346.659434 440.739563,339.598509 C438.642149,336.605129 436.458459,335.816614 433.135322,335.926708 C427.140585,336.129044 421.133949,335.870173 415.136237,336.036803 C411.920203,336.13202 410.048893,335.489306 408.611941,332.01389 C404.693793,322.563617 400.034857,313.425773 395.777553,304.115349 C394.429853,301.160651 392.66862,299.565768 389.131279,299.860345 C385.15958,300.193604 381.11648,300.184678 377.141807,299.863321 C373.173083,299.547915 372.161564,301.193381 372.20024,304.883035 C372.340067,319.248879 372.292466,333.617699 372.23594,347.983544 C372.173464,363.709204 363.819509,371.969267 348.024941,372.007949 C341.842776,372.025802 335.660611,371.978194 329.478446,372.028778 C328.835834,372.034729 328.202147,372.531642 327.56251,372.802415 C328.07422,373.105918 328.550229,373.498688 329.097639,373.70995 C334.80082,375.914816 340.4802,378.185143 346.242882,380.232306 C349.333965,381.330275 350.940495,382.907304 350.750091,386.519594 C350.440685,392.321872 350.800667,398.159856 350.634064,403.974036 C350.521012,407.7232 351.092223,410.761213 353.986951,413.721862 C358.327557,418.149446 357.68792,423.990406 353.266988,428.266238 C349.622545,431.798189 342.720417,431.842822 338.775494,428.35848 C334.893047,424.924721 333.661374,417.831065 337.51407,414.069999 C340.99786,410.665996 340.623003,407.10429 340.631928,403.227178 C340.655729,388.551879 340.560527,388.769093 327.125177,383.630358 C318.304138,380.253134 309.932333,375.661896 301.030968,372.570324 C297.145545,371.22241 292.424133,372.159701 288.098402,372.370963 C287.571818,372.397743 286.753677,374.35564 286.729877,375.432781 C286.595999,381.431443 286.152716,387.501518 286.923255,393.404964 C287.226711,395.713973 290.023263,398.418727 292.361656,399.614889 C301.152945,404.101983 310.149512,408.217137 319.235331,412.091273 C322.186586,413.349921 322.793497,415.102507 322.71317,417.866771 C322.594168,422.047387 322.70127,426.233953 322.686395,430.414569 C322.668545,436.425133 321.978332,441.903079 328.541304,446.37232 C334.681818,450.561862 333.247841,460.90777 327.288805,466.585075 C322.13006,471.500646 313.109692,471.467915 307.998547,466.513663 C302.036536,460.729238 300.745362,450.814782 306.865051,446.244373 C316.322752,439.177496 311.410935,429.908729 312.371878,421.553449 C312.45518,420.851225 310.949802,419.69672 309.956133,419.196832 C303.678767,416.039798 297.374625,412.936323 291.010981,409.963772 C288.038901,408.571225 286.316344,409.148477 286.6079,413.040467 C286.893505,416.840215 286.331219,420.714351 286.780453,424.481368 C287.072008,426.971884 288.003201,429.697467 289.499653,431.673217 C293.013194,436.315039 292.935842,442.923684 288.770765,446.759139 C284.703864,450.499376 277.626208,450.09768 273.728885,445.911114 C270.578302,442.521988 270.77168,435.889539 273.606908,431.946965 C275.076585,429.902778 276.457011,427.224804 276.495687,424.811651 C276.745591,408.809267 276.510562,392.803907 276.69799,376.801523 C276.742616,372.924411 275.466318,371.644935 271.690972,371.966292 C266.666104,372.391792 259.811577,370.582672 257.077501,373.207086 C254.438627,375.73926 255.830953,382.68414 255.810127,387.694927 C255.714926,406.970391 255.807152,426.251807 255.720876,445.530246 C255.703025,449.172291 256.411089,451.207552 260.576166,452.546539 C270.875807,455.849374 277.563732,469.852204 274.80288,480.686098 C271.934927,491.924663 260.150733,499.863369 248.96155,498.771351 C235.50835,497.453193 228.25219,487.074554 227.065143,477.70462 C225.696618,466.903457 231.825232,456.974123 242.904338,451.9068 C244.159811,451.329548 245.546187,449.33297 245.555112,447.98208 C245.721715,423.612514 245.644364,399.242948 245.748491,374.870406 C245.763366,371.097438 243.267294,372.237065 241.303758,372.019851 C238.453655,371.707421 236.957202,372.454278 237.001828,375.801746 C237.153556,387.805022 236.701347,399.823176 237.213057,411.805623 C237.451061,417.444247 235.252496,420.321581 230.602484,422.702003 C224.369743,425.897719 218.410708,429.623079 212.35052,433.149078 C211.574031,433.601358 210.729115,434.104222 210.21443,434.806447 C208.366921,437.320767 209.726521,454.129519 211.919137,456.584329 C215.251199,460.324566 216.447171,464.386161 213.867798,469.03691 C211.54428,473.229427 207.980164,475.574142 203.190325,474.904649 C198.195207,474.2054 194.60134,470.753789 194.05988,466.064358 C193.699899,462.922201 195.93119,459.455713 197.121212,456.179657 C197.853076,454.171177 199.429855,452.278741 199.545882,450.270261 C199.879088,444.470958 199.379279,438.615121 199.819587,432.827721 C199.977265,430.73295 201.360666,427.974637 203.062397,426.885594 C209.250512,422.913265 215.801584,419.503311 222.230679,415.914826 C225.25631,414.227702 227.005642,412.207319 226.877715,408.237966 C226.538559,397.701625 226.651611,387.144455 226.821189,376.596212 C226.88069,373.061286 225.770994,371.868099 222.144402,371.939512 C211.056371,372.156725 199.959415,372.144823 188.871384,371.951414 C185.188265,371.885952 183.709663,372.83217 183.757264,376.801523 C183.947667,392.985414 183.703713,409.175257 183.986343,425.359148 C184.027994,427.694937 185.738651,430.239013 187.247004,432.265347 C191.034249,437.362424 190.870621,442.30775 186.345562,446.79187 C183.322906,449.782274 176.096497,450.169093 172.820961,447.508972 C168.117398,443.697321 166.662596,437.463592 170.524218,433.080641 C173.546874,429.649858 173.924706,426.195272 173.772978,422.172359 C173.653976,419.086737 173.546874,415.974336 173.790829,412.900617 C174.118085,408.761659 172.145623,408.839022 169.334196,410.163132 C163.61019,412.850033 158.00816,415.831511 152.165152,418.211933 C148.437408,419.729451 147.393163,422.121775 147.753145,425.781673 C147.949499,427.760399 147.830496,429.777806 147.76802,431.77736 C147.604392,437.201746 147.625218,441.781082 153.268897,445.729606 C159.668241,450.207775 158.826301,460.99406 153.066594,466.373813 C147.149209,471.902342 137.596306,471.458988 132.110304,465.406767 C126.591577,459.318838 127.037835,450.047096 133.687084,444.845875 C136.917994,442.319652 138.030664,439.70714 137.79266,435.812175 C137.50408,431.101916 138.250818,426.284537 137.599281,421.648666 C136.736515,415.522056 139.336714,412.501896 144.676938,410.335713 C152.86429,407.009073 160.831488,403.134937 168.932563,399.588109 C172.169424,398.168783 174.198411,396.454879 173.859255,392.330799 C173.410022,386.912364 173.59745,381.422516 173.796779,375.974327 C173.909831,372.933338 172.981614,371.859173 169.834005,371.948438 C162.384467,372.156725 154.923028,372.064484 147.46754,371.999022 C133.939963,371.885952 124.741092,362.685623 124.654816,349.126146 C124.577464,337.667392 124.657791,326.211613 124.59829,314.752858 C124.595315,313.83342 124.077655,312.919933 123.798,312.003471 C123.366617,312.723549 122.843007,313.40792 122.527651,314.175606 C121.007398,317.844431 119.052787,321.426965 118.195971,325.250517 C117.208252,329.651322 114.753832,330.648123 110.791058,330.478518 C106.069646,330.279158 101.336333,330.368424 96.6089698,330.451739 C92.2177882,330.532078 88.1032868,330.014336 84.1940642,333.918228 C80.2788914,337.831046 73.1209084,335.941586 69.7680211,331.466393 C66.6144626,327.258998 67.0726211,321.245458 70.8152406,317.695654 C75.2361727,313.503137 80.3473177,313.809616 85.4465624,317.240399 C88.1568378,319.061421 92.0095344,319.861838 95.3683718,319.921349 C110.115721,320.192121 109.975893,319.98681 114.801433,305.725109 C117.166602,298.720719 120.195208,291.942468 122.881683,285.045196 C123.536195,283.369975 124.33946,281.667973 124.541764,279.918363 C126.21077,265.674515 126.154244,266.094065 111.918604,265.498959 C104.460141,265.186529 100.131435,266.718925 97.6085884,274.559439 C94.9399638,282.864135 90.4416802,290.618358 86.3420541,298.399362 C85.5090386,299.979366 82.9802416,301.315378 81.0851314,301.550445 C77.1431832,302.029505 73.1000831,301.642686 69.1016088,301.705172 C62.8301923,301.80634 56.627202,300.440573 52.1527189,307.730614 C49.198489,312.545017 40.0620943,312.797937 35.6798379,310.105085 C29.4589973,306.281533 26.9391255,299.83059 28.8937368,292.730983 C30.6222439,286.455596 36.5009531,281.275204 43.0044239,282.340442 C47.2468528,283.030765 50.9954224,286.654956 55.0028218,288.901479 C56.8711566,289.945889 58.7513915,291.418775 60.7565787,291.674671 C64.3385453,292.129926 68.0990151,291.311656 71.6333808,291.915688 C77.2859858,292.879759 79.7582567,289.931012 81.6384917,285.411186 C83.9084589,279.957045 86.2706527,274.532659 88.7964747,269.194564 C90.0370727,266.570149 89.62354,265.612029 86.6246843,265.686418 C82.8136385,265.781634 78.9936675,265.597152 75.1796467,265.549543 C71.9160111,265.507886 69.2027606,266.043481 66.5162857,268.650042 C61.8246236,273.202599 55.8239371,272.542032 51.6231591,267.909136 C48.0411925,263.957636 48.1929203,257.578106 51.9623154,253.724799 C56.4367985,249.154389 61.5509185,249.252582 66.8494919,253.573047 C68.3548699,254.798964 70.6248371,255.673769 72.5556479,255.691622 C88.3621166,255.861227 104.174535,255.65294 119.981004,255.882056 C123.949728,255.938591 124.988022,254.620433 124.699442,250.927804 C124.31566,246.068768 126.186969,239.430367 123.681973,236.802977 C121.272178,234.276754 114.527728,235.761542 109.684338,235.702032 C101.684414,235.600864 93.6815154,235.672277 85.6815918,235.678228" id="Fill-1" fill="#FFFFFF" mask="url(#mask-2)"></path>
                    </g>
                    <path d="M330.878853,248.479197 C330.878853,271.71893 330.893755,294.955692 330.869912,318.195425 C330.863951,326.422511 326.449973,330.862997 318.197234,330.865969 C271.956264,330.889747 225.715294,330.886775 179.477305,330.871914 C170.452641,330.868941 166.175761,326.788093 166.044623,317.642593 C165.87474,305.48327 165.987996,293.31503 165.985015,281.155706 C165.982035,248.110642 165.976074,215.071522 165.990976,182.02943 C165.996937,168.981415 169.007145,165.955702 181.882491,165.955702 C226.666043,165.949758 271.449595,165.949758 316.233147,165.95273 C327.469271,165.95273 330.872892,169.305386 330.875873,180.400657 C330.881833,203.093504 330.878853,225.78635 330.878853,248.479197 Z M247.439736,252.599482 L317.281597,252.599482 L317.281597,231.805007 L247.439736,231.805007 L247.439736,252.599482 Z M295.992326,259.938708 L247.441445,259.938708 L247.441445,280.862237 L285.755983,280.862237 C276.640307,291.886974 262.871127,298.952195 247.441445,298.952195 C223.644338,298.952195 203.725151,282.209289 198.887146,259.938708 L177.597875,259.938708 C182.70238,293.802101 212.027659,319.875724 247.441445,319.875724 C282.851813,319.875724 312.177092,293.802101 317.281597,259.938708 L302.880333,259.938708 L295.992326,259.938708 Z M306.866583,210.710563 C294.242311,191.409619 272.420258,178.595616 247.575637,178.595616 C212.092123,178.595616 182.711938,204.67264 177.597875,238.532631 L198.93043,238.532631 C203.777493,216.26205 223.733974,199.515743 247.575637,199.515743 C259.511872,199.515743 270.475956,203.720179 279.057585,210.710563 L306.866583,210.710563 Z" id="Combined-Shape" fill="#FFFFFF"></path>
                </g>
            </g>
        </g>
    </g>
</svg>