<?xml version="1.0" encoding="UTF-8"?>
<svg width="190px" height="171px" viewBox="0 0 190 171" version="1.1" xmlns="http://www.w3.org/2000/svg" xmlns:xlink="http://www.w3.org/1999/xlink">
    <!-- Generator: Sketch 46.2 (44496) - http://www.bohemiancoding.com/sketch -->
    <title>icon-exchange-growth</title>
    <desc>Created with Sketch.</desc>
    <defs></defs>
    <g id="Welcome" stroke="none" stroke-width="1" fill="none" fill-rule="evenodd">
        <g id="Desktop-HD-ROADMAP" transform="translate(-811.000000, -2621.000000)" fill="#FFFFFF">
            <g id="icon-exchange-growth" transform="translate(811.000000, 2621.000000)">
                <g id="Group-2">
                    <path d="M189.978367,69.5004242 C189.286116,69.0039926 188.572232,68.5507289 187.923246,68.0111294 C183.055854,64.1260125 178.210095,60.2408956 173.342703,56.3773627 C172.261061,55.5140034 171.136153,54.6938121 169.924713,53.7657008 C162.24505,63.8885887 154.522122,74.0546445 146.734295,84.3286203 C131.504767,73.7093008 116.36177,63.1115653 101.067343,52.4490779 C100.007333,53.9599567 98.9256905,55.5140034 97.8656808,57.0680502 C92.0897091,65.4858034 86.3137375,73.9035566 80.5377658,82.3213099 C76.7520166,87.8468094 72.9879003,93.393893 69.1805182,98.9193925 C65.2000733,104.7039 61.133097,110.423655 57.174285,116.208163 C53.1505744,122.057422 49.1917624,127.949849 45.1896847,133.820693 C41.7500611,138.871344 38.2671718,143.878828 34.8275483,148.907896 C30.2630164,155.555763 25.7201173,162.225214 21.1772183,168.87308 C20.7445612,169.499016 20.3768027,170.146535 19.8792471,170.707719 C19.7061843,170.901975 19.1869958,171.074647 19.013933,170.966727 C17.0237106,169.801192 15.0983867,168.570905 13,167.275866 C40.6035199,120.719215 68.1421413,74.2704843 95.7240284,27.7785857 C99.2285505,29.9154 102.581643,31.9658783 105.956368,33.9947727 C111.559276,37.361874 117.162185,40.7289753 122.765094,44.0960766 C128.303104,47.4415939 133.841115,50.8086952 139.357492,54.1757965 C141.282816,55.3629155 141.282816,55.3844995 142.494256,53.528277 C145.544488,48.8661367 148.573087,44.1824125 151.601687,39.5202723 C144.354681,33.2393333 136.934613,27.3253221 129.341481,21.2602229 C131.915791,20.3968636 134.252139,19.6198402 136.61012,18.7996489 C140.093009,17.5909459 143.554265,16.3174909 147.015522,15.0872039 C150.346981,13.9216688 153.700073,12.7777177 157.031533,11.6121827 C160.514422,10.4034796 163.975678,9.15160865 167.436935,7.92132164 C170.703495,6.77737056 173.991689,5.65500346 177.25825,4.51105238 C180.135419,3.51818917 183.012589,2.52532597 185.868125,1.51087879 C187.252628,1.01444719 188.615497,0.496431601 190,0 C189.978367,23.1596134 189.978367,46.3408108 189.978367,69.5004242 Z" id="Shape" fill-rule="nonzero"></path>
                    <path d="M93.4338373,149.995055 C77.0762415,150.102693 64.5893601,137.143144 64.0207806,122.26765 C63.3865957,105.196351 77.3605312,92 93.2588898,92 C109.660223,92 123.021842,104.615109 122.999973,121.212803 C122.999973,136.777177 110.097591,150.29644 93.4338373,149.995055 Z M108.654274,121.126693 C108.719879,113.096939 101.787583,105.97134 93.4119689,106.078978 C85.0144865,106.186615 78.3227427,112.817082 78.2790059,121.126693 C78.235269,128.898116 85.4518554,136.23899 93.6306533,136.06677 C102.006267,135.89455 108.719879,129.221029 108.654274,121.126693 Z" id="Shape" fill-rule="nonzero"></path>
                    <path d="M0.000113404626,72.8671581 C0.000113404626,56.9283506 13.6316922,43.1190195 31.120438,44.0439435 C46.3737802,44.8613182 59.216393,57.1649591 58.9972358,73.4049046 C58.7780786,89.4727712 45.7820557,102.378688 28.7535401,101.991511 C12.623569,101.582823 -0.0437180385,88.9135148 0.000113404626,72.8671581 Z M29.4548432,87.9240612 C37.892396,88.2036894 44.7958483,81.1054351 44.7739325,73.039237 C44.7520168,64.8654895 37.8704802,58.0468634 29.6740004,58.0253536 C21.0172904,58.0038437 14.3110796,64.7579402 14.2234167,72.8456482 C14.1138381,81.2990238 21.2583633,88.1606697 29.4548432,87.9240612 Z" id="Shape" fill-rule="nonzero"></path>
                </g>
            </g>
        </g>
    </g>
</svg>