<?xml version="1.0" encoding="UTF-8"?>
<svg width="227px" height="113px" viewBox="0 0 227 113" version="1.1" xmlns="http://www.w3.org/2000/svg" xmlns:xlink="http://www.w3.org/1999/xlink">
    <!-- Generator: Sketch 46.2 (44496) - http://www.bohemiancoding.com/sketch -->
    <title>icon-1.0</title>
    <desc>Created with Sketch.</desc>
    <defs>
        <polygon id="path-1" points="82.743144 0.120572691 82.743144 85.6946839 0.20637284 85.6946839 0.20637284 0.120572691"></polygon>
        <polygon id="path-3" points="0.236133333 23.8344828 23.7411333 23.8344828 23.7411333 0.226137707 0.236133333 0.226137707 0.236133333 23.8344828"></polygon>
    </defs>
    <g id="Welcome" stroke="none" stroke-width="1" fill="none" fill-rule="evenodd">
        <g id="Desktop-HD-ROADMAP" transform="translate(-403.000000, -747.000000)">
            <g id="icon-1.0" transform="translate(403.000000, 747.000000)">
                <g id="Page-1">
                    <path d="M220,0 L220,13.6888372 C219.069978,13.2963089 218.193651,12.9322976 217.322389,12.5565441 C216.634159,12.2599671 216.289032,12.2962005 215.931071,13.1564078 C214.782559,15.9181966 213.557051,18.6585138 212.178228,21.31328 C209.885256,25.7283846 207.636521,30.1844195 205.022398,34.4116473 C202.367075,38.7063095 199.340959,42.7792099 196.389136,46.8866663 C192.429284,52.3968242 187.845365,57.383611 183.017966,62.1456167 C178.269587,66.8301232 173.242946,71.2247626 167.74589,75.0101445 C163.40714,77.9977209 158.878266,80.7326702 154.30718,83.3619388 C150.948093,85.2937148 147.417456,86.9443466 143.898638,88.5832362 C141.861303,89.5323494 139.70476,90.233197 137.577935,90.9793362 C137.318245,91.0702552 136.771511,90.846145 136.59422,90.6002277 C134.926327,88.2876657 133.189544,86.0116726 131.707723,83.583365 C129.680181,80.2599588 128.226052,76.6580923 127.115699,72.926725 C125.219185,66.5546824 124.586338,60.0689071 125.263085,53.4502762 C125.653127,49.6353708 126.403831,45.8885708 127.664459,42.2796589 C129.099002,38.1732091 131.051575,34.3049601 133.470171,30.6487436 C136.099829,26.672801 139.268792,23.2044612 142.86089,20.111875 C146.181817,17.2527929 149.793502,14.7899294 153.867496,13.085954 C156.394156,12.0291471 158.903593,10.8512267 161.533589,10.1372949 C164.579967,9.31063699 167.733733,8.80605361 170.871965,8.4027895 C173.178445,8.10688355 175.541997,8.05421095 177.867726,8.15787868 C180.296116,8.26624333 182.710998,8.68393369 185.129932,8.98118162 C189.155635,9.47536468 192.927389,10.8438458 196.601211,12.4532118 C198.80672,13.4197708 200.893358,14.6553962 203.254884,15.8853182 C200.161228,19.9719739 197.167869,23.9257739 194.130609,27.9372789 C186.613441,23.5587432 178.644433,22.1362475 170.290786,23.3953574 C162.019537,24.6417187 154.984265,28.4740697 149.359559,34.6377704 C139.496063,45.4463894 138.45325,59.7834015 141.885617,69.0457273 C144.804683,68.0781618 147.774741,67.2226515 150.643827,66.1094815 C154.130563,64.7564331 157.609871,63.3382988 160.949033,61.6661953 C164.37262,59.9518196 167.743526,58.0747292 170.91958,55.9470245 C175.205649,53.0762001 179.428569,50.0735263 183.405981,46.8004442 C186.982883,43.856482 190.270378,40.5485085 193.544027,37.2620066 C198.090799,32.6979426 202.158377,27.7165237 205.791675,22.4046429 C208.252146,18.8068023 210.578213,15.1183783 212.958987,11.4668587 C213.058946,11.3132023 213.103522,11.123648 213.211923,10.8572656 C211.863493,10.2946417 210.512699,9.73067582 208.937336,9.07310705 C212.658098,6.02178666 216.235337,3.08788926 220,0" id="Fill-1" fill="#FFFFFF"></path>
                    <g id="Group-5" transform="translate(144.000000, 26.000000)">
                        <mask id="mask-2" fill="white">
                            <use xlink:href="#path-1"></use>
                        </mask>
                        <g id="Clip-4"></g>
                        <path d="M0.323870782,74.8469743 C2.92726996,74.0063157 5.59693251,73.3293679 8.11733169,72.2845888 C11.3707267,70.9362193 14.515163,69.314653 17.687949,67.7721791 C22.4626691,65.4501791 26.7660313,62.3714482 30.9498461,59.1272795 C36.0107967,55.2037454 40.5966321,50.7324361 44.7476568,45.860139 C48.3771136,41.5991671 51.7934346,37.1337293 54.582986,32.2358739 C56.8837597,28.1966369 59.2402082,24.1815767 61.3374099,20.0345807 C62.7449942,17.251151 63.7942782,14.2760345 64.9098255,11.3499622 C66.0311794,8.40938394 67.0490395,5.42770522 68.0839778,2.45397028 C68.3534716,1.6796249 68.5177638,0.867632932 68.9105621,0.120572691 C67.8674263,8.88808273 65.5717761,17.3450948 62.596414,25.6218177 C59.6425704,33.8398257 55.8986897,41.6858578 51.3360807,49.1167414 C46.7625416,56.564894 41.4959695,63.4780506 35.2877062,69.8268538 C40.3889613,69.2690627 44.9625004,67.6537133 49.2706444,65.1728378 C53.7912412,62.5693518 57.5395621,59.0809984 60.5743564,54.8635446 C61.9956033,52.8883076 63.2081547,50.6878819 64.1180807,48.4256329 C65.2558296,45.5973036 66.1459449,42.6387655 66.8307802,39.6626129 C67.255344,37.8172394 67.2789119,35.8240426 67.1620971,33.9171912 C66.9974634,31.242902 67.6197926,28.8014 68.5522617,26.3550627 C69.3334181,24.3045325 69.9881959,22.2008137 70.6163317,20.0957133 C71.4722905,17.2252474 72.3063893,14.3454562 73.0407514,11.441143 C73.5172329,9.55743213 73.7986815,7.62329558 74.1668872,5.71402651 C77.7758502,7.1874241 83.1851959,26.5778337 82.714521,35.1875044 C81.3096691,60.8773277 64.4575951,77.8991108 46.0192988,83.382388 C29.4657514,88.3047655 14.1445663,85.272661 0.20637284,75.1978819 C0.245652675,75.0807976 0.28493251,74.9640586 0.323870782,74.8469743" id="Fill-3" fill="#FFFFFF" mask="url(#mask-2)"></path>
                    </g>
                    <polygon id="Fill-6" fill="#FFFFFF" points="22.3064732 25.5894147 21.9922451 25.5894147 3.29871825 35.0969756 0 20.36 24.8196211 8 41 8 41 111 22.3064732 111"></polygon>
                    <g id="Group-10" transform="translate(78.000000, 89.000000)">
                        <mask id="mask-4" fill="white">
                            <use xlink:href="#path-3"></use>
                        </mask>
                        <g id="Clip-9"></g>
                        <path d="M11.8341333,23.834515 C5.0298,23.834515 0.236133333,18.7542272 0.236133333,12.0306484 C0.236133333,5.15697685 5.18446667,0.226137707 11.9884667,0.226137707 C18.9474667,0.226137707 23.7411333,5.00720611 23.7411333,12.0306484 C23.7411333,18.7542272 19.1021333,23.834515 11.9884667,23.834515 L11.8341333,23.834515 Z" id="Fill-8" fill="#FFFFFF" mask="url(#mask-4)"></path>
                    </g>
                </g>
            </g>
        </g>
    </g>
</svg>