<?xml version="1.0" encoding="UTF-8"?>
<svg width="160px" height="137px" viewBox="0 0 160 137" version="1.1" xmlns="http://www.w3.org/2000/svg" xmlns:xlink="http://www.w3.org/1999/xlink">
    <!-- Generator: Sketch 46.2 (44496) - http://www.bohemiancoding.com/sketch -->
    <title>icon-cart</title>
    <desc>Created with Sketch.</desc>
    <defs>
        <polygon id="path-1" points="26.802122 27 0.00378669183 27 0.00378669183 0.173007329 26.802122 0.173007329"></polygon>
    </defs>
    <g id="Welcome" stroke="none" stroke-width="1" fill="none" fill-rule="evenodd">
        <g id="Desktop-HD-ROADMAP" transform="translate(-810.000000, -2087.000000)">
            <g id="icon-cart" transform="translate(810.000000, 2087.000000)">
                <g id="Page-1">
                    <path d="M148.957331,37.4511818 L120.63058,37.4511818 L120.63058,27.9120036 C120.962512,27.8806646 121.292082,27.8224635 121.621652,27.8222002 C132.641517,27.8177232 143.661382,27.8135095 154.681248,27.8214101 C158.730813,27.824307 160.767009,30.6242778 159.733954,34.5203245 C158.270044,40.0415235 156.942581,45.5988019 155.526164,51.1329052 C154.595706,54.7684956 153.588366,58.3843345 152.657121,62.0196616 C151.238868,67.5545549 149.868109,73.1015626 148.450118,78.636456 C148.169616,79.7314784 147.926375,80.8839118 147.388462,81.8551583 C146.441211,83.5645837 144.897007,84.3743946 142.884951,84.4038902 C131.518722,84.5695393 120.153018,84.7831187 108.78679,84.9748398 C94.3169354,85.2187049 79.8468186,85.4712606 65.3764394,85.6887903 C61.3628227,85.7490981 57.347894,85.6980076 53.1285585,85.6980076 C53.73312,88.7858234 54.2587002,91.471499 54.8113072,94.2935914 L56.5549318,94.2935914 C85.1978702,94.2938548 113.840546,94.2985952 142.483484,94.2843741 C144.172006,94.2833207 145.699941,94.6159357 146.833493,95.9440257 C148.151773,97.4883286 148.332565,99.3141561 147.579749,101.108645 C146.830869,102.894706 145.269348,103.755871 143.370122,103.969713 C142.980988,104.013693 142.583982,103.994995 142.19065,103.994995 C112.017678,103.993678 81.844443,103.986305 51.6714708,103.999999 C49.2865491,104.001052 47.3243481,103.245755 46.3768344,100.964064 C45.8331489,99.6557252 45.6791222,98.1769972 45.4041306,96.7646342 C44.6279618,92.7758872 43.8691112,88.7834533 43.1233804,84.7889125 C42.4172714,81.0071611 41.761805,77.2161924 41.0394274,73.4376012 C39.8987899,67.4705453 38.7106586,61.5127067 37.561362,55.5474943 C36.5031169,50.0550008 35.4514318,44.5611905 34.4296599,39.0618498 C33.5758217,34.4650203 32.7676405,29.8595002 31.9437156,25.2571404 C31.8104181,24.5129044 31.5165341,24.0214874 30.6794893,23.8065912 C26.3462737,22.6955042 22.026965,21.5291131 17.708706,20.3600884 C14.5641465,19.5086676 11.4279837,18.6253811 8.28919687,17.7523654 C6.77910508,17.3325804 5.29157938,16.8019238 3.75892149,16.5009112 C0.980667464,15.9549801 -0.477732221,13.0391339 0.140736303,10.6444636 C0.8434341,7.92455211 3.55792578,6.45477812 6.21075428,7.18742661 C10.9884696,8.5070893 15.8037075,9.689545 20.5971666,10.9520601 C24.1279737,11.8819601 27.648285,12.851363 31.1748938,13.7962742 C33.1066568,14.3137632 35.0533763,14.7780548 36.9733315,15.3358368 C39.1669661,15.9731514 40.3676924,17.6191087 40.669186,19.885526 C40.9397168,21.9186124 41.4052082,23.9258902 41.788307,25.9437021 C42.5629015,30.0222525 43.3306736,34.1021197 44.1178631,38.1782999 C45.2944489,44.2709753 46.4949128,50.359437 47.667038,56.4531658 C48.7242334,61.9469761 49.7504661,67.4468435 50.806612,72.9409171 C51.0178411,74.0404166 50.9637875,75.5615445 51.6473303,76.0969414 C52.353964,76.6502464 53.8107894,76.268121 54.9383071,76.246526 C64.0306078,76.0732396 73.1223838,75.8593969 82.2152093,75.7134992 C100.880259,75.41354 119.545833,75.1407061 138.21167,74.8897305 C139.19933,74.8765629 139.59345,74.4910139 139.815175,73.594823 C140.766624,69.7435464 141.768454,65.904384 142.741683,62.0583745 C144.1539,56.4773943 145.551162,50.8922004 146.968365,45.3122737 C147.537503,43.0721917 148.145738,40.8421171 148.72957,38.6059854 C148.813537,38.2836412 148.859982,37.9515528 148.957331,37.4511818" id="Fill-1" fill="#FFFFFF"></path>
                    <path d="M101.403883,0.0423889577 C101.403883,0.7341786 101.403616,1.24541089 101.403883,1.75664317 C101.404682,13.203043 101.404149,24.6494428 101.407615,36.0958426 C101.408148,37.9786864 101.416147,37.9799872 103.33823,37.9818084 C105.604256,37.9836296 107.870548,37.9698406 110.136308,37.9940364 C110.622094,37.9992398 111.106547,38.1373895 112,38.2791817 C109.878484,40.1846602 108.067049,41.8070747 106.260681,43.4349528 C101.45694,47.7633861 96.6324035,52.0704856 91.8753222,56.4473104 C91.0482587,57.2080449 90.646725,57.1653772 89.8417912,56.4306596 C83.3871234,50.5412116 76.8796643,44.7063992 70.3914021,38.8520741 C70.2978175,38.7677793 70.2399604,38.6454998 70,38.3091012 C70.5679063,38.1844802 71.0227645,38.004183 71.4800223,37.9979389 C73.7012557,37.9667186 75.9230222,37.9815483 78.1447888,37.9812881 C80.2905679,37.9810279 80.2921676,37.9818084 80.2921676,35.941042 C80.2927009,24.6247267 80.289768,13.3084115 80.2945672,1.99209621 C80.2953671,-0.191242896 80.0370098,0.00284325421 82.3934208,0.00544494523 C88.2583193,0.0119491728 94.1232178,0.0293805026 99.9881162,0.0423889577 C100.385384,0.043169465 100.782385,0.0423889577 101.403883,0.0423889577" id="Fill-3" fill="#FFFFFF"></path>
                    <path d="M73.9565451,136.988644 C66.8945425,137.211162 60.9107674,131.128501 61.0010076,123.879051 C61.0891792,116.763162 66.8865269,111.010128 74.0193771,111.000014 C81.3195206,110.989381 87.0056842,117.113536 86.9999957,124.120759 C86.9945658,130.918173 81.0627629,137.306082 73.9565451,136.988644" id="Fill-5" fill="#FFFFFF"></path>
                    <g id="Group-9" transform="translate(107.000000, 110.000000)">
                        <mask id="mask-2" fill="white">
                            <use xlink:href="#path-1"></use>
                        </mask>
                        <g id="Clip-8"></g>
                        <path d="M26.790095,13.6092832 C27.1194416,20.7856693 20.6359663,27.0916396 13.3323327,26.9991446 C6.10034257,26.9074515 -0.0559247525,20.9931149 0.00422376238,13.5183921 C0.0641049505,6.04794653 6.02950099,0.0641049505 13.4737485,0.174510891 C21.1045901,0.288124752 26.9665307,6.16931287 26.790095,13.6092832" id="Fill-7" fill="#FFFFFF" mask="url(#mask-2)"></path>
                    </g>
                </g>
            </g>
        </g>
    </g>
</svg>