<?xml version="1.0" encoding="UTF-8"?>
<svg width="173px" height="148px" viewBox="0 0 173 148" version="1.1" xmlns="http://www.w3.org/2000/svg" xmlns:xlink="http://www.w3.org/1999/xlink">
    <!-- Generator: Sketch 46.2 (44496) - http://www.bohemiancoding.com/sketch -->
    <title>icon-blockchain</title>
    <desc>Created with Sketch.</desc>
    <defs>
        <polygon id="path-1" points="0 148 172.860396 148 172.860396 0.0654268293 0 0.0654268293"></polygon>
    </defs>
    <g id="Welcome" stroke="none" stroke-width="1" fill="none" fill-rule="evenodd">
        <g id="Desktop-HD-ROADMAP" transform="translate(-810.000000, -1010.000000)">
            <g id="icon-blockchain" transform="translate(810.000000, 1010.000000)">
                <g id="Page-1">
                    <g id="Group-3">
                        <mask id="mask-2" fill="white">
                            <use xlink:href="#path-1"></use>
                        </mask>
                        <g id="Clip-2"></g>
                        <path d="M24.7232075,136.036516 C24.7728935,135.178949 24.7618521,134.519917 24.8584638,133.877431 C25.2531916,131.230276 24.4002484,130.080419 21.4742943,130.287228 C17.7588848,130.549186 14.0103512,130.347892 10.2756193,130.347892 C5.92809329,130.347892 5.92533295,130.347892 6.14892001,134.806692 C6.16824234,135.170676 6.25657303,135.529145 6.33386238,136.036516 L24.7232075,136.036516 Z M124.680422,116.16907 L130.165206,116.16907 L130.165206,98.4110759 L124.680422,98.4110759 L124.680422,116.16907 Z M46.587813,115.846449 C46.587813,111.668908 46.6430197,107.472065 46.5740114,103.272465 C46.4829203,97.8099512 47.785798,98.173935 41.3238561,98.2842331 C41.1582361,98.2869905 40.9953764,98.430378 40.3770615,98.7281829 C40.3770615,102.875392 40.3743012,107.243196 40.3770615,111.611001 C40.3798219,116.855676 40.3798219,116.855676 45.6492995,116.240764 C45.8287212,116.218705 45.9998619,116.100134 46.587813,115.846449 L46.587813,115.846449 Z M146.222069,135.962065 L166.725829,135.962065 C166.725829,134.486828 166.885929,133.2184 166.659581,132.021665 C166.543647,131.398481 165.748671,130.438888 165.24629,130.430615 C158.966531,130.320317 152.68125,130.356164 146.222069,130.356164 L146.222069,135.962065 Z M62.2996341,136.031001 L108.802981,136.031001 L108.802981,130.535398 L62.2996341,130.535398 L62.2996341,136.031001 Z M115.298047,141.245344 L139.765647,141.245344 L139.765647,122.544301 L115.298047,122.544301 L115.298047,141.245344 Z M31.314885,141.328068 L55.4484852,141.328068 L55.4484852,122.494667 L31.314885,122.494667 L31.314885,141.328068 Z M108.239873,92.1020244 L146.776896,92.1020244 L146.776896,6.68993089 L108.239873,6.68993089 L108.239873,92.1020244 Z M24.281554,6.59617751 L24.281554,92.2674715 C36.3718169,92.2674715 48.1667241,92.1957778 59.9616312,92.3198631 C62.4845765,92.3501951 62.9345109,91.4264485 62.9289903,89.157065 C62.8599819,62.5917669 62.8848249,36.0237114 62.8875853,9.45565583 L62.8875853,6.59617751 L24.281554,6.59617751 Z M52.5887791,98.2318415 C52.5887791,104.069369 52.5584155,109.606333 52.6439858,115.140541 C52.6495065,115.545886 53.4444827,115.959504 53.9082188,116.323488 C54.0296735,116.419999 54.2836242,116.337275 54.4740873,116.351062 C61.628873,116.89428 61.628873,116.89428 62.2968738,123.90924 L108.590435,123.90924 C109.78566,121.755669 107.406252,118.270249 110.580636,117.04594 C112.797184,116.19113 115.40846,116.351062 118.13015,116.025683 L118.13015,98.2263266 C114.461666,98.2263266 110.853909,98.2676883 107.246153,98.2125393 C103.773652,98.1629051 101.987716,96.3678035 101.987716,92.8768686 C101.968394,63.8160759 101.971154,34.7525257 101.984956,5.68897561 C101.987716,2.07947019 104.240149,0.116163957 108.427576,0.102376694 C119.758747,0.0665298103 131.087157,0.0858319783 142.418328,0.0830745257 C144.049686,0.0830745257 145.683803,0.0279254743 147.3124,0.107891599 C151.140984,0.292640921 153.122904,2.25043225 153.125664,6.05847425 C153.158788,34.8324919 153.161548,63.6065095 153.139466,92.3805271 C153.136705,96.4064079 151.212752,98.2015095 147.105375,98.229084 C143.75709,98.2511436 140.411566,98.2318415 136.823131,98.2318415 L136.823131,116.0505 C139.227382,116.293156 142.318956,115.755453 144.099372,117.032153 C145.73901,118.212343 145.973639,121.347566 146.997722,124.082959 C153.42378,124.082959 160.504037,124.080202 167.587054,124.082959 C172.276861,124.085717 172.853771,124.664782 172.856531,129.360724 C172.856531,132.333257 172.867573,135.305791 172.853771,138.278325 C172.839969,141.65069 172.042233,142.488955 168.591815,142.511015 C162.063625,142.549619 155.535435,142.566164 149.004485,142.49447 C147.152301,142.475168 145.934994,142.579951 145.929473,144.998237 C145.926713,147.01945 144.284314,147.954226 142.354841,147.962499 C132.467324,147.998346 122.577048,148.031435 112.686771,147.948711 C109.429577,147.923894 108.71465,145.558 108.79746,142.681977 L62.4183285,142.681977 C61.5212199,147.524064 60.9443101,147.990073 55.9260229,147.992831 C47.0929542,147.992831 38.2598854,147.976286 29.4268166,147.995588 C26.7686149,148.00386 25.0627285,147.118718 24.7342488,144.148942 C24.6652404,143.53403 23.2547098,142.621313 22.4459319,142.602011 C16.4974122,142.466896 10.5406114,142.535832 4.5893313,142.51653 C0.722103373,142.499985 0.0126975364,141.794077 0.00441653439,138.038427 C-0.0011041336,134.872871 -0.00386446759,131.707316 0.00441653439,128.54176 C0.0154578704,125.059098 0.931888757,124.099504 4.35746324,124.088474 C10.1182803,124.066415 15.8790973,124.080202 21.6399144,124.080202 L24.8501828,124.080202 C24.8501828,122.643569 24.8722655,121.438562 24.8474225,120.233556 C24.7922158,117.586401 26.1503001,116.442058 28.7256917,116.34279 C34.4036988,116.130466 34.4036988,116.100134 34.4092194,110.50802 C34.4119798,107.248711 34.3484921,103.986645 34.4285418,100.724579 C34.4727071,98.9184472 33.8985577,98.1105136 31.9442412,98.198752 C28.9768821,98.3338672 25.9929611,98.2732033 23.0200814,98.2208117 C19.9726727,98.1684201 18.2226209,96.5966721 17.7809675,93.6131084 C17.6981574,93.0478306 17.7036781,92.4660081 17.7009178,91.892458 C17.5960251,78.3809404 17.413843,64.8666653 17.4193637,51.3523902 C17.422124,36.4897209 17.5932647,21.6270515 17.7064384,6.76438211 C17.7423228,2.04638076 19.6221102,0.121678862 24.3367607,0.110649051 C37.0122144,0.074802168 49.6849078,0.0720447154 62.3576011,0.102376694 C67.0612103,0.116163957 69.1121384,2.25870461 69.1121384,6.99325068 C69.1176591,35.1937182 69.1176591,63.3914282 69.1148988,91.5918957 C69.1121384,96.5801274 67.4614587,98.2097818 62.3907251,98.229084 C59.3239941,98.2428713 56.257263,98.2318415 52.5887791,98.2318415 L52.5887791,98.2318415 Z" id="Fill-1" fill="#FFFFFF" mask="url(#mask-2)"></path>
                    </g>
                    <path d="M43.4041329,63.7550098 C46.5150875,63.7712151 48.7132793,61.6537241 48.7591875,58.5936256 C48.8077962,55.5308262 46.652812,53.3242062 43.5607608,53.2701886 C40.2067629,53.2134701 38.1111894,55.2607381 38.1327932,58.5747195 C38.1516966,61.7401523 40.1851591,63.7388045 43.4041329,63.7550098 M32,58.6584468 C32.0810144,52.2195458 36.7420453,47.39037 43.242104,47.0149475 C49.261477,46.6665338 55,52.465326 55,58.5207018 C55,64.4734442 49.5234237,69.9346262 43.4932488,69.9994473 C37.3145474,70.0615676 32.0594106,64.8785764 32,58.6584468" id="Fill-4" fill="#FFFFFF"></path>
                    <path d="M127.312554,63.7614775 C130.552856,63.8235121 132.972897,61.6226329 133.000058,58.5883326 C133.021787,55.6942844 130.691377,53.3747303 127.687375,53.29921 C124.517692,53.2155981 122.051477,55.4569346 122.100367,58.4966293 C122.138392,60.7730288 123.749037,64.0042215 127.312554,63.7614775 M116.000016,58.5910297 C115.989152,52.3444168 121.453936,46.9015563 127.630337,47.0013511 C133.861061,47.103843 139.024358,52.3767827 138.999914,58.612607 C138.972753,64.8457341 133.760565,69.9973018 127.470088,69.999999 C121.304551,70.0026961 116.008164,64.7351508 116.000016,58.5910297" id="Fill-6" fill="#FFFFFF"></path>
                </g>
            </g>
        </g>
    </g>
</svg>