<?xml version="1.0" encoding="UTF-8"?>
<svg width="35px" height="35px" viewBox="0 0 35 35" version="1.1" xmlns="http://www.w3.org/2000/svg" xmlns:xlink="http://www.w3.org/1999/xlink">
    <!-- Generator: Sketch 46.2 (44496) - http://www.bohemiancoding.com/sketch -->
    <title>twitter@2x</title>
    <desc>Created with Sketch.</desc>
    <defs></defs>
    <g id="Symbols" stroke="none" stroke-width="1" fill="none" fill-rule="evenodd">
        <g id="twitter">
            <g>
                <rect id="Rectangle" x="0" y="0" width="35" height="35"></rect>
                <g transform="translate(9.000000, 11.000000)" id="Shape" fill="#6e6a64">
                    <path d="M15.282164,2.40001379 C15.9900751,1.95328155 16.5332645,1.24492141 16.7881909,0.401093851 C16.1253822,0.815768913 15.3929589,1.11565861 14.6115113,1.27801268 C13.987922,0.574823054 13.0966599,0.136363636 12.1102907,0.136363636 C10.2179521,0.136363636 8.6844715,1.75473389 8.6844715,3.75055152 C8.6844715,4.03389558 8.7129056,4.31000092 8.77173478,4.57369703 C5.9244025,4.42271808 3.39965023,2.98531575 1.70831132,0.797155069 C1.41318494,1.33282011 1.24454129,1.95328155 1.24454129,2.61510709 C1.24454129,3.86843919 1.84950135,4.97492876 2.76919752,5.62434507 C2.20737886,5.60573123 1.67889673,5.44130894 1.21610719,5.17244232 L1.21610719,5.21690872 C1.21610719,6.96867819 2.39661272,8.42986488 3.96637132,8.76077765 C3.67810834,8.84557404 3.37611855,8.88797224 3.06236293,8.88797224 C2.84175351,8.88797224 2.62604652,8.86625609 2.41818342,8.82385789 C2.85351935,10.259192 4.11932719,11.3057036 5.61947126,11.3336244 C4.44582913,12.3036125 2.96823625,12.8806416 1.36318014,12.8806416 C1.08668299,12.8806416 0.813127311,12.8651301 0.545454545,12.8310047 C2.06226688,13.8558002 3.86342026,14.4545455 5.79890025,14.4545455 C12.1034273,14.4545455 15.5488562,8.94691608 15.5488562,4.1703971 C15.5488562,4.01321353 15.5468953,3.85706407 15.5400319,3.70298281 C16.209704,3.19317033 16.7921129,2.55616325 17.25,1.83125747 C16.6352351,2.11873794 15.9743873,2.31314919 15.282164,2.40001379 Z"></path>
                </g>
            </g>
        </g>
    </g>
</svg>