<?xml version="1.0" encoding="UTF-8"?>
<svg width="195px" height="39px" viewBox="0 0 195 39" version="1.1" xmlns="http://www.w3.org/2000/svg" xmlns:xlink="http://www.w3.org/1999/xlink">
    <!-- Generator: Sketch 46.2 (44496) - http://www.bohemiancoding.com/sketch -->
    <title>windows-8-new-vector-logo copy</title>
    <desc>Created with Sketch.</desc>
    <defs></defs>
    <g id="HD" stroke="none" stroke-width="1" fill="none" fill-rule="evenodd">
        <g id="windows-8-new-vector-logo-copy" fill="#4A4A4A">
            <path d="M177.355862,15.2471429 C177.257241,14.9871429 177.114241,14.7689286 176.934931,14.5785714 C176.755172,14.3928571 176.54,14.2489286 176.288966,14.1421429 C176.038379,14.04 175.764483,13.9842857 175.468621,13.9842857 C175.17769,13.9842857 174.903793,14.04 174.653207,14.1467857 C174.401724,14.2582143 174.186552,14.4067857 173.998276,14.5971429 C173.814483,14.7875 173.671034,15.0103571 173.563448,15.2703571 C173.45631,15.5257143 173.402069,15.8042857 173.402069,16.1014286 C173.402069,16.4125 173.451379,16.6910714 173.554483,16.9510714 C173.653103,17.2110714 173.797,17.4292857 173.97631,17.6196429 C174.155172,17.8053571 174.370345,17.9539286 174.621379,18.0560714 C174.872862,18.1675 175.145862,18.2185714 175.446207,18.2185714 C175.733552,18.2185714 176.002069,18.1628571 176.253103,18.0514286 C176.508621,17.94 176.723793,17.7914286 176.912069,17.6010714 C177.095862,17.4107143 177.243793,17.1878571 177.351379,16.9278571 C177.458966,16.6678571 177.512759,16.3892857 177.512759,16.0921429 C177.512759,15.7857143 177.458966,15.5025 177.355862,15.2471429 Z M176.925517,16.7607143 C176.84931,16.9603571 176.742172,17.1367857 176.602759,17.2853571 C176.463793,17.4339286 176.298379,17.5546429 176.10069,17.6428571 C175.903448,17.7310714 175.688276,17.7728571 175.446207,17.7728571 C175.222069,17.7728571 175.011379,17.7310714 174.818621,17.6521429 C174.625862,17.5732143 174.46,17.4571429 174.321034,17.3085714 C174.182069,17.16 174.07,16.9789286 173.993793,16.77 C173.913103,16.5610714 173.872759,16.3335714 173.872759,16.0782143 C173.872759,15.8553571 173.913103,15.6417857 173.98931,15.4421429 C174.061034,15.2425 174.169069,15.0660714 174.312517,14.9175 C174.451034,14.7642857 174.617345,14.6482143 174.814138,14.56 C175.006897,14.4717857 175.226552,14.43 175.468621,14.43 C175.688276,14.43 175.898966,14.4717857 176.091724,14.5507143 C176.284483,14.6296429 176.450345,14.7410714 176.58931,14.8896429 C176.732759,15.0428571 176.840345,15.2192857 176.916552,15.4282143 C176.997241,15.6371429 177.037586,15.8692857 177.037586,16.1246429 C177.037586,16.3475 177.002172,16.5610714 176.925517,16.7607143 Z M176.378621,16.9603571 L176.253103,16.5982143 C176.19931,16.4542857 176.136552,16.3475 176.064828,16.2778571 C175.993552,16.2035714 175.912414,16.1571429 175.827241,16.1246429 C175.984138,16.0875 176.105621,16.0178571 176.194828,15.9203571 C176.288966,15.8275 176.334241,15.6928571 176.334241,15.5210714 C176.334241,15.4096429 176.315862,15.3167857 176.275517,15.2332143 C176.235172,15.1542857 176.181828,15.0846429 176.105621,15.0335714 C176.028966,14.9778571 175.93931,14.9407143 175.831724,14.9128571 C175.724138,14.8896429 175.598621,14.8757143 175.459655,14.8757143 L174.858966,14.8757143 C174.778276,14.8757143 174.72,14.8989286 174.684138,14.9453571 C174.643793,14.9917857 174.625862,15.0567857 174.625862,15.1357143 L174.625862,17.1089286 C174.625862,17.1507143 174.643793,17.1785714 174.679655,17.1925 C174.715517,17.2110714 174.787241,17.2157143 174.894828,17.2157143 C175.002414,17.2157143 175.069655,17.2110714 175.101483,17.1925 C175.132414,17.1785714 175.145862,17.1507143 175.145862,17.1089286 L175.145862,16.3242857 L175.289759,16.3242857 C175.401828,16.3242857 175.491034,16.3521429 175.549759,16.4078571 C175.603103,16.4589286 175.657345,16.5564286 175.69769,16.6957143 L175.809759,17.0810714 C175.814241,17.1089286 175.822759,17.1321429 175.836207,17.1507143 C175.850103,17.1692857 175.863103,17.1785714 175.89,17.1925 C175.912414,17.2017857 175.943793,17.2064286 175.979655,17.2110714 C176.015517,17.2157143 176.064828,17.2157143 176.123103,17.2157143 C176.190345,17.2157143 176.239655,17.2157143 176.28,17.2110714 C176.320345,17.2064286 176.347241,17.2017857 176.370103,17.1971429 C176.387586,17.1925 176.401034,17.1832143 176.410448,17.1692857 C176.414483,17.1553571 176.418966,17.1414286 176.418966,17.1228571 C176.418966,17.1042857 176.405966,17.0485714 176.378621,16.9603571 Z M175.683793,15.7996429 C175.625966,15.8507143 175.522414,15.8785714 175.378966,15.8785714 L175.145862,15.8785714 L175.145862,15.3214286 L175.387931,15.3214286 C175.459655,15.3214286 175.522414,15.3307143 175.571724,15.34 C175.621483,15.3539286 175.661828,15.3771429 175.688276,15.4003571 C175.719655,15.4235714 175.742069,15.4514286 175.751034,15.4885714 C175.76,15.5210714 175.764483,15.5535714 175.764483,15.5907143 C175.764483,15.6742857 175.738034,15.7485714 175.683793,15.7996429 Z M43.6262069,36.8410714 C43.6262069,36.8183214 43.6217241,36.7992857 43.6172414,36.7858214 C43.6127586,36.7714286 43.6037931,36.7575 43.5948276,36.7440357 C43.5858621,36.7342857 43.5768966,36.7296429 43.5634483,36.7203571 C43.55,36.7203571 43.5365517,36.7157143 43.5231034,36.7157143 L43.3662069,36.7157143 C43.3437931,36.7157143 43.3213793,36.7203571 43.3034483,36.725 C43.2855172,36.7296429 43.272069,36.7393929 43.2541379,36.7528571 C43.2406897,36.7667857 43.2272414,36.7858214 43.2137931,36.8085714 C43.2003448,36.8317857 43.1913793,36.8601071 43.1824138,36.8921429 L42.5055172,38.415 L42.4965517,38.415 L41.8286207,36.8875 C41.8196552,36.8601071 41.8106897,36.8317857 41.7972414,36.8085714 C41.7882759,36.79 41.7703448,36.7714286 41.7568966,36.7575 C41.7389655,36.7440357 41.7165517,36.7342857 41.6986207,36.725 C41.6717241,36.7203571 41.6493103,36.7157143 41.617931,36.7157143 L41.47,36.7157143 C41.4386207,36.7157143 41.4162069,36.725 41.3982759,36.7440357 C41.3758621,36.7667857 41.3668966,36.7992857 41.3668966,36.8410714 L41.3668966,38.7817857 C41.3668966,38.7915357 41.3668966,38.7957143 41.3713793,38.805 C41.3758621,38.8142857 41.3803448,38.8142857 41.3848276,38.8189286 C41.3937931,38.8235714 41.4072414,38.8235714 41.4206897,38.8286786 C41.4341379,38.8333214 41.452069,38.8333214 41.4744828,38.8333214 C41.4924138,38.8333214 41.5103448,38.8333214 41.5237931,38.8286786 C41.5372414,38.8235714 41.5506897,38.8235714 41.5596552,38.8189286 C41.5686207,38.8142857 41.5731034,38.8142857 41.5775862,38.805 C41.582069,38.7957143 41.582069,38.7915357 41.582069,38.7817857 L41.582069,36.9478571 L42.3531034,38.7915357 C42.3531034,38.7957143 42.3575862,38.805 42.3665517,38.8096429 C42.3710345,38.8142857 42.38,38.8189286 42.3889655,38.8189286 C42.397931,38.8235714 42.4113793,38.8286786 42.4293103,38.8286786 C42.4427586,38.8333214 42.4651724,38.8333214 42.4875862,38.8333214 C42.5055172,38.8333214 42.5234483,38.8333214 42.5413793,38.8333214 C42.5548276,38.8286786 42.5682759,38.8235714 42.5817241,38.8235714 C42.5906897,38.8189286 42.5996552,38.8142857 42.6041379,38.8096429 C42.6131034,38.805 42.6175862,38.7957143 42.6175862,38.7915357 L43.4065517,36.9478571 L43.4110345,36.9478571 L43.4110345,38.7817857 C43.4110345,38.7915357 43.4110345,38.7957143 43.4155172,38.805 C43.42,38.8142857 43.4244828,38.8142857 43.4334483,38.8189286 C43.4424138,38.8235714 43.4513793,38.8235714 43.4648276,38.8286786 C43.4782759,38.8333214 43.5006897,38.8333214 43.5186207,38.8333214 C43.5365517,38.8333214 43.5589655,38.8333214 43.5724138,38.8286786 C43.5858621,38.8235714 43.5948276,38.8235714 43.6037931,38.8189286 C43.6127586,38.8142857 43.6172414,38.8142857 43.6217241,38.805 C43.6262069,38.7957143 43.6262069,38.7915357 43.6262069,38.7817857 L43.6262069,36.8410714 Z M40.932069,36.7760714 L40.9231034,36.7440357 C40.9186207,36.7342857 40.9141379,36.725 40.9051724,36.7203571 C40.9006897,36.7203571 40.8917241,36.7157143 40.8827586,36.7157143 L39.4841379,36.7157143 C39.4751724,36.7157143 39.4662069,36.7203571 39.4617241,36.7203571 C39.4527586,36.725 39.4482759,36.7342857 39.4437931,36.7440357 L39.4348276,36.7760714 C39.4303448,36.7946429 39.4303448,36.8085714 39.4303448,36.8271429 C39.4303448,36.8503571 39.4303448,36.8642857 39.4348276,36.8782143 C39.4348276,36.8921429 39.4393103,36.9060714 39.4437931,36.9153571 C39.4482759,36.9246429 39.4572414,36.9292857 39.4617241,36.9343929 C39.4706897,36.9385714 39.4751724,36.9385714 39.4841379,36.9385714 L40.0758621,36.9385714 L40.0758621,38.7817857 C40.0758621,38.7915357 40.0758621,38.7957143 40.0803448,38.805 C40.0848276,38.8096429 40.0893103,38.8142857 40.0982759,38.8189286 C40.1072414,38.8235714 40.1162069,38.8235714 40.1296552,38.8286786 C40.1431034,38.8333214 40.1655172,38.8333214 40.1834483,38.8333214 C40.2013793,38.8333214 40.2237931,38.8333214 40.2372414,38.8286786 C40.2506897,38.8235714 40.2596552,38.8235714 40.2686207,38.8189286 C40.2775862,38.8142857 40.282069,38.8096429 40.2865517,38.805 C40.2910345,38.7957143 40.2910345,38.7915357 40.2910345,38.7817857 L40.2910345,36.9385714 L40.8827586,36.9385714 C40.8872414,36.9385714 40.8962069,36.9385714 40.9051724,36.9343929 C40.9096552,36.9292857 40.9186207,36.9246429 40.9231034,36.9153571 C40.9275862,36.9060714 40.9275862,36.8921429 40.932069,36.8782143 C40.9365517,36.8642857 40.9365517,36.8503571 40.9365517,36.8271429 C40.9365517,36.8085714 40.9365517,36.7946429 40.932069,36.7760714 Z M194.69069,23.8271429 C194.484931,23.3117857 194.184138,22.8196429 193.789655,22.3553571 C193.395172,21.8957143 192.906552,21.4643929 192.319759,21.06 C191.736552,20.6560714 191.068621,20.2660714 190.32,19.8853571 C190.947586,19.5371429 191.503897,19.1657143 191.992069,18.7710714 C192.48069,18.3717857 192.888621,17.9446429 193.224828,17.4896429 C193.561034,17.0346429 193.817,16.5471429 193.986897,16.0364286 C194.161724,15.5257143 194.246897,14.9917857 194.246897,14.4346429 C194.246897,13.7521429 194.130345,13.1114286 193.901724,12.5125 C193.669069,11.9135714 193.314483,11.3935714 192.825862,10.9571429 C192.337241,10.5160714 191.718621,10.1678571 190.97,9.9125 C190.221379,9.65714286 189.338276,9.52714286 188.311724,9.52714286 C187.240793,9.52714286 186.308379,9.66642857 185.505517,9.945 C184.707586,10.2235714 184.048621,10.5996429 183.528621,11.0778571 C183.013103,11.5560714 182.623103,12.1178571 182.367586,12.7678571 C182.112069,13.4132143 181.982069,14.105 181.982069,14.8432143 C181.982069,15.4328571 182.067241,15.9760714 182.242069,16.4775 C182.412414,16.9789286 182.667931,17.4478571 183.004138,17.8889286 C183.335862,18.33 183.743793,18.7339286 184.227931,19.11 C184.707586,19.4860714 185.263897,19.8435714 185.891034,20.1778571 C185.164828,20.5492857 184.505862,20.9392857 183.923103,21.3483214 C183.344828,21.7517857 182.856207,22.1933214 182.45769,22.6576071 C182.062759,23.1260714 181.757931,23.6367857 181.547241,24.1939286 C181.332069,24.7468929 181.229414,25.3546429 181.229414,26.0185714 C181.229414,26.8589286 181.381379,27.6017857 181.686207,28.2517857 C181.991034,28.9064286 182.434828,29.4542857 183.013103,29.9 C183.591379,30.3457143 184.295172,30.6846429 185.128966,30.9121429 C185.962759,31.1396429 186.904586,31.2557143 187.957586,31.2557143 C189.082759,31.2557143 190.082862,31.1308214 190.956552,30.8796429 C191.83069,30.6293929 192.565862,30.2621429 193.157586,29.77 C193.753793,29.2825 194.211034,28.6835714 194.525276,27.9685714 C194.843103,27.2582143 195,26.4457143 195,25.5310714 C195,24.9089286 194.897345,24.3425 194.69069,23.8271429 Z M190.71,16.9789286 C190.149655,17.6614286 189.338276,18.2835714 188.285276,18.8407143 C187.661724,18.5064286 187.11931,18.1860714 186.666552,17.8796429 C186.213793,17.5685714 185.837241,17.2528571 185.541379,16.9278571 C185.241034,16.6028571 185.021379,16.2639286 184.882414,15.9017857 C184.739414,15.535 184.671724,15.145 184.671724,14.7225 C184.671724,13.8032143 184.959069,13.0789286 185.541379,12.5496429 C186.120103,12.0203571 186.971379,11.7557143 188.101483,11.7557143 C188.652414,11.7557143 189.145966,11.8253571 189.575862,11.96 C190.01069,12.0946429 190.373793,12.2896429 190.665172,12.5496429 C190.956552,12.8096429 191.18069,13.1253571 191.328621,13.4921429 C191.481034,13.8589286 191.557241,14.2721429 191.557241,14.7225 C191.557241,15.5442857 191.275276,16.2964286 190.71,16.9789286 Z M191.261379,28.1589286 C190.562517,28.7392857 189.526552,29.0271429 188.163793,29.0271429 C186.752172,29.0271429 185.693793,28.7439286 184.981034,28.1682143 C184.272759,27.5925 183.919069,26.7846429 183.919069,25.7353571 C183.919069,25.2571429 183.99931,24.8258214 184.165172,24.4307143 C184.331483,24.0314286 184.577586,23.66 184.900345,23.3025 C185.228034,22.945 185.644483,22.6014286 186.151034,22.2625 C186.657586,21.9286786 187.24931,21.5939286 187.921724,21.255 C188.647931,21.6129643 189.284483,21.9560714 189.835862,22.2857143 C190.387241,22.6204643 190.844483,22.9589286 191.212069,23.3117857 C191.579655,23.66 191.857586,24.0407143 192.036897,24.4446429 C192.22069,24.8485714 192.310345,25.3035714 192.310345,25.8003571 C192.310345,26.7939286 191.96069,27.5832143 191.261379,28.1589286 Z M171.021724,24.9001071 C170.82,24.4446429 170.547,24.0546429 170.210793,23.725 C169.874586,23.4 169.488621,23.1218929 169.049759,22.88975 C168.614483,22.6617857 168.175172,22.4575 167.726897,22.27225 C167.278621,22.0860714 166.83931,21.905 166.408966,21.7332143 C165.978621,21.5567857 165.593103,21.3617857 165.256897,21.1435714 C164.92069,20.9253571 164.647241,20.6746429 164.436552,20.3821429 C164.22631,20.0942857 164.122759,19.7367857 164.122759,19.3142857 C164.122759,19.0125 164.176552,18.7339286 164.288621,18.4739286 C164.396207,18.2185714 164.557586,17.9957143 164.772759,17.8053571 C164.987931,17.6196429 165.261379,17.4710714 165.597586,17.3689286 C165.933793,17.2667857 166.319759,17.2157143 166.763103,17.2157143 C167.252172,17.2157143 167.691034,17.2760714 168.072069,17.3921429 C168.453552,17.5128571 168.789759,17.6382143 169.071724,17.7728571 C169.354138,17.9075 169.582759,18.0328571 169.762517,18.1535714 C169.941828,18.2696429 170.075862,18.33 170.170448,18.33 C170.232759,18.33 170.291034,18.3114286 170.340345,18.2742857 C170.394586,18.2371429 170.438966,18.1721429 170.474828,18.0885714 C170.51069,18.0003571 170.537586,17.8889286 170.555517,17.7542857 C170.568966,17.615 170.578379,17.4571429 170.578379,17.2714286 C170.578379,17.095 170.568966,16.9510714 170.555517,16.835 C170.537586,16.7142857 170.524138,16.6121429 170.506655,16.5332143 C170.488276,16.4496429 170.46631,16.3753571 170.430448,16.3103571 C170.390103,16.2453571 170.318379,16.1710714 170.210793,16.0782143 C170.098724,15.99 169.936897,15.8878571 169.722172,15.7717857 C169.506552,15.6557143 169.246552,15.5489286 168.946207,15.4467857 C168.641828,15.3492857 168.301138,15.2657143 167.924586,15.2007143 C167.547586,15.1357143 167.171034,15.0985714 166.794483,15.0985714 C165.938276,15.0985714 165.185172,15.2192857 164.544138,15.4607143 C163.898621,15.6975 163.365172,16.0178571 162.934828,16.4125 C162.504483,16.8117857 162.186207,17.2760714 161.971034,17.8007143 C161.755862,18.33 161.648724,18.8825 161.648724,19.4582143 C161.648724,20.1128571 161.746897,20.6746429 161.953552,21.1435714 C162.15931,21.6129643 162.428276,22.0117857 162.764483,22.3511786 C163.10069,22.6896429 163.477241,22.9775 163.903103,23.2096429 C164.324483,23.4417857 164.75931,23.6553571 165.207586,23.8364286 C165.651828,24.0221429 166.081724,24.1985714 166.503103,24.3703571 C166.920448,24.5375 167.297,24.7325 167.633207,24.9507143 C167.969414,25.1689286 168.237931,25.4196429 168.444138,25.7028571 C168.645862,25.9814286 168.749414,26.3296429 168.749414,26.7475 C168.749414,27.1560714 168.67769,27.5089286 168.538276,27.8107143 C168.394828,28.1078571 168.193552,28.3539286 167.933103,28.5489286 C167.673103,28.7439286 167.364241,28.8883214 167.009655,28.99 C166.655966,29.0921429 166.256552,29.1385714 165.821724,29.1385714 C165.234931,29.1385714 164.719414,29.0642857 164.271138,28.9110714 C163.818379,28.7625 163.432414,28.5953571 163.10069,28.4142857 C162.773897,28.2332143 162.495517,28.0707143 162.271379,27.9179643 C162.047241,27.76475 161.877345,27.6904643 161.765276,27.6904643 C161.689069,27.6904643 161.625862,27.7085714 161.567586,27.7457143 C161.50931,27.7875 161.464931,27.8483214 161.433103,27.9360714 C161.401724,28.0242857 161.374828,28.1403571 161.357345,28.2842857 C161.334483,28.4286786 161.325517,28.6046429 161.325517,28.8140357 C161.325517,29.1525 161.352862,29.4217857 161.401724,29.6218929 C161.455517,29.8215357 161.541138,29.9742857 161.657241,30.0810714 C161.76931,30.1878571 161.953552,30.3085714 162.204138,30.4432143 C162.455172,30.5778571 162.764483,30.7083214 163.123103,30.8285714 C163.486655,30.9492857 163.894586,31.0518929 164.346897,31.135 C164.804138,31.2143929 165.283793,31.2557143 165.785862,31.2557143 C166.601724,31.2557143 167.350345,31.1489286 168.031724,30.9446429 C168.713552,30.7403571 169.300345,30.4343929 169.788966,30.03 C170.282517,29.6260714 170.663103,29.1339286 170.927586,28.54475 C171.196552,27.9546429 171.331483,27.2860714 171.331483,26.5339286 C171.331483,25.9025 171.227931,25.3592857 171.021724,24.9001071 Z M159.263897,15.5675 C159.228034,15.5117857 159.160345,15.4653571 159.075621,15.4189286 C158.985517,15.3771429 158.864483,15.3492857 158.712069,15.34 C158.559655,15.3307143 158.357931,15.3214286 158.107345,15.3214286 C157.828966,15.3214286 157.604828,15.3307143 157.434931,15.3446429 C157.259655,15.3632143 157.125172,15.3910714 157.022517,15.4282143 C156.923448,15.4653571 156.851724,15.5210714 156.802414,15.5907143 C156.758034,15.665 156.722172,15.7485714 156.69931,15.8460714 L153.328276,27.9871429 L153.314828,28.1357143 L153.283897,27.9871429 L149.894483,15.8135714 C149.872069,15.7253571 149.84069,15.6510714 149.800345,15.5860714 C149.755517,15.5164286 149.688276,15.4653571 149.594138,15.4282143 C149.5,15.3910714 149.37,15.3632143 149.209069,15.3446429 C149.042759,15.3307143 148.837,15.3214286 148.585517,15.3214286 C148.271724,15.3214286 148.034138,15.3307143 147.868724,15.3446429 C147.706897,15.3632143 147.576897,15.3910714 147.482759,15.4282143 C147.388621,15.4653571 147.321379,15.5210714 147.272517,15.5907143 C147.227241,15.665 147.191828,15.7485714 147.168966,15.8460714 L144.035517,27.9871429 L144.004138,28.1357143 L143.972759,27.9871429 L140.552414,15.8460714 C140.521034,15.7485714 140.48069,15.665 140.440345,15.5907143 C140.400448,15.5210714 140.328276,15.4653571 140.234138,15.4282143 C140.14,15.3910714 140.005517,15.3632143 139.826207,15.3446429 C139.647345,15.3307143 139.40931,15.3214286 139.117931,15.3214286 C138.875862,15.3214286 138.669655,15.3307143 138.503793,15.34 C138.333448,15.3492857 138.198966,15.3725 138.100345,15.4096429 C137.997241,15.4514286 137.930448,15.4978571 137.885172,15.5582143 C137.844828,15.6185714 137.826897,15.6975 137.826897,15.795 C137.826897,15.8692857 137.835862,15.9667857 137.854241,16.0735714 C137.876207,16.1803571 137.912069,16.315 137.96631,16.4821429 L142.112862,30.4432143 C142.143793,30.5551071 142.189069,30.6475 142.251379,30.7217857 C142.314138,30.8007143 142.413207,30.8564286 142.542759,30.9033214 C142.67769,30.9446429 142.843103,30.9776071 143.049759,31.0003571 C143.255517,31.0189286 143.52,31.0328571 143.842759,31.0328571 C144.161034,31.0328571 144.425517,31.0235714 144.64069,31.0096429 C144.855862,30.9910714 145.031138,30.9632143 145.169655,30.9214286 C145.304138,30.875 145.407241,30.8146429 145.474931,30.7403571 C145.541724,30.6614286 145.591483,30.5639286 145.627345,30.4478571 L148.383793,19.8157143 L148.415172,19.6671429 L148.522759,19.8157143 L151.503793,30.4478571 C151.531138,30.5551071 151.58,30.6475 151.643207,30.7264286 C151.705517,30.8007143 151.804138,30.8615357 151.934138,30.9033214 C152.064138,30.9446429 152.243448,30.9776071 152.463552,31.0003571 C152.683207,31.0189286 152.956207,31.0328571 153.283897,31.0328571 C153.597241,31.0328571 153.857241,31.0235714 154.068379,31.0096429 C154.278621,30.9910714 154.444931,30.9632143 154.565517,30.9214286 C154.686552,30.875 154.781138,30.8146429 154.852862,30.7403571 C154.915172,30.6614286 154.969414,30.5639286 155.000793,30.4432143 L159.173793,16.4821429 C159.228034,16.315 159.263897,16.1803571 159.285862,16.0735714 C159.308276,15.9667857 159.317241,15.8692857 159.317241,15.795 C159.317241,15.6975 159.299759,15.6232143 159.263897,15.5675 Z M135.177586,19.7089286 C134.89069,18.7292857 134.45631,17.8935714 133.877586,17.2064286 C133.299759,16.5192857 132.573103,15.9992857 131.707931,15.6371429 C130.838276,15.2796429 129.821138,15.0985714 128.655172,15.0985714 C127.440345,15.0985714 126.387345,15.3028571 125.481379,15.7021429 C124.575862,16.1060714 123.822759,16.6725 123.217586,17.4014286 C122.612862,18.135 122.159655,19.0032143 121.85931,20.0107143 C121.558966,21.0182143 121.411034,22.1190357 121.411034,23.3168929 C121.411034,24.5565357 121.55,25.6703571 121.836897,26.65 C122.11931,27.6296429 122.554138,28.4611786 123.132414,29.1478571 C123.71069,29.835 124.432414,30.3601071 125.297586,30.7171429 C126.16769,31.0746429 127.184828,31.2557143 128.354828,31.2557143 C129.551724,31.2557143 130.605621,31.0518929 131.519655,30.6428571 C132.425172,30.2342857 133.18769,29.6678571 133.792414,28.9389286 C134.397586,28.2053571 134.850345,27.3376071 135.155172,26.3296429 C135.46,25.3221429 135.612862,24.2217857 135.612862,23.0239286 C135.612862,21.7935714 135.469414,20.6885714 135.177586,19.7089286 Z M132.66769,25.5593929 C132.496897,26.2739286 132.227931,26.8867857 131.86931,27.4021429 C131.506655,27.9179643 131.044483,28.3167857 130.479655,28.6 C129.91931,28.8883214 129.251379,29.0271429 128.48931,29.0271429 C127.646552,29.0271429 126.94769,28.8739286 126.382414,28.5582143 C125.817586,28.2471429 125.36931,27.8246429 125.033103,27.2953571 C124.696897,26.7660714 124.45931,26.1439286 124.315862,25.4289286 C124.172414,24.7185714 124.10069,23.9571429 124.10069,23.1446429 C124.10069,22.2996429 124.18631,21.5242857 124.365172,20.8092857 C124.54,20.0989286 124.804483,19.4814286 125.167586,18.9614286 C125.531138,18.4414286 125.992414,18.0421429 126.548276,17.7542857 C127.108621,17.4710714 127.776552,17.3271429 128.552517,17.3271429 C129.390345,17.3271429 130.090103,17.485 130.654483,17.7960714 C131.21931,18.1071429 131.667586,18.5342857 131.995276,19.0682143 C132.327,19.6067857 132.564138,20.2289286 132.707586,20.9439286 C132.851483,21.65475 132.923207,22.4110714 132.923207,23.2096429 C132.923207,24.0639286 132.837586,24.8485714 132.66769,25.5593929 Z M117.538379,8.82142857 C117.538379,8.74714286 117.515517,8.67285714 117.466207,8.60321429 C117.421828,8.53357143 117.350103,8.47785714 117.255517,8.44071429 C117.161828,8.40357143 117.031379,8.37107143 116.87,8.34321429 C116.704138,8.31535714 116.489414,8.30142857 116.233448,8.30142857 C115.982414,8.30142857 115.776655,8.31535714 115.614828,8.34321429 C115.453448,8.37107143 115.323448,8.40357143 115.220793,8.44071429 C115.117241,8.47785714 115.045517,8.53357143 115.009655,8.60321429 C114.973793,8.67285714 114.95631,8.74714286 114.95631,8.82142857 L114.95631,17.3178571 C114.283897,16.5889286 113.602069,16.0364286 112.911724,15.665 C112.22631,15.2889286 111.468276,15.0985714 110.638966,15.0985714 C109.63931,15.0985714 108.756655,15.2935714 107.998621,15.6789286 C107.232069,16.0642857 106.595517,16.6167857 106.08,17.3364286 C105.564483,18.0560714 105.174483,18.9242857 104.914483,19.9410714 C104.650448,20.9625 104.52,22.1 104.52,23.3628571 C104.52,24.4307143 104.623103,25.4475 104.834241,26.4136786 C105.044483,27.3742857 105.38069,28.2146429 105.838379,28.9296429 C106.295172,29.64 106.887345,30.2068929 107.626552,30.6293929 C108.361724,31.0467857 109.245276,31.2557143 110.289759,31.2557143 C111.244138,31.2557143 112.122759,31.0189286 112.925172,30.5551071 C113.732069,30.0861786 114.508034,29.4315357 115.252172,28.5953571 L115.252172,30.5267857 C115.252172,30.615 115.269655,30.6892857 115.314483,30.7542857 C115.354828,30.8243929 115.422069,30.8703571 115.516655,30.9121429 C115.610345,30.9492857 115.726897,30.9776071 115.874828,31.0003571 C116.018276,31.0189286 116.197586,31.0328571 116.41769,31.0328571 C116.623448,31.0328571 116.802759,31.0189286 116.946207,31.0003571 C117.090103,30.9776071 117.206207,30.9492857 117.295862,30.9121429 C117.381483,30.8703571 117.443793,30.8243929 117.484138,30.7542857 C117.52,30.6892857 117.538379,30.615 117.538379,30.5267857 L117.538379,8.82142857 Z M114.95631,26.0789286 C114.543897,26.6040357 114.157931,27.0492857 113.785862,27.4067857 C113.418276,27.7693929 113.064138,28.0614286 112.727931,28.2889286 C112.396207,28.5117857 112.064483,28.6742857 111.746655,28.77225 C111.423448,28.8692857 111.091724,28.9157143 110.742069,28.9157143 C110.061138,28.9157143 109.491379,28.7485714 109.038621,28.4189286 C108.585862,28.0892857 108.222759,27.6486786 107.94931,27.1054643 C107.67631,26.5571429 107.483552,25.9303571 107.375966,25.2246429 C107.263897,24.5235714 107.209655,23.8039286 107.209655,23.0657143 C107.209655,22.3692857 107.276897,21.6867857 107.407345,21.0135714 C107.536897,20.345 107.748034,19.7414286 108.038966,19.2121429 C108.325862,18.6782143 108.702414,18.2510714 109.169069,17.9260714 C109.630345,17.6010714 110.19069,17.4385714 110.854138,17.4385714 C111.566897,17.4385714 112.252759,17.6753571 112.911724,18.1442857 C113.571138,18.6132143 114.252069,19.3003571 114.95631,20.1964286 L114.95631,26.0789286 Z M100.647345,21.5614286 C100.647345,20.5167857 100.557241,19.6253571 100.387345,18.8778571 C100.212069,18.135 99.9206897,17.4803571 99.5217241,16.9278571 C99.1187241,16.3753571 98.5893103,15.9296429 97.9393103,15.5953571 C97.2893103,15.2657143 96.4913793,15.0985714 95.5365517,15.0985714 C94.7251724,15.0985714 93.9182759,15.3167857 93.1158621,15.7439286 C92.317931,16.1710714 91.5155172,16.8489286 90.7131034,17.7728571 L90.7131034,15.8275 C90.7131034,15.7392857 90.6951724,15.6696429 90.6593103,15.6092857 C90.6189655,15.5489286 90.5606897,15.4932143 90.48,15.4467857 C90.3948276,15.3957143 90.2782759,15.3632143 90.1258621,15.3446429 C89.9734483,15.3307143 89.7851724,15.3214286 89.5565517,15.3214286 C89.3144828,15.3214286 89.1217241,15.3307143 88.9737931,15.3446429 C88.8303448,15.3632143 88.7093103,15.3957143 88.6151724,15.4467857 C88.5210345,15.4932143 88.4582759,15.5489286 88.4268966,15.6092857 C88.3955172,15.6696429 88.382069,15.7392857 88.382069,15.8275 L88.382069,30.5267857 C88.382069,30.615 88.4,30.6892857 88.4358621,30.7501071 C88.4717241,30.8053571 88.5389655,30.8564286 88.6375862,30.9033214 C88.7406897,30.9446429 88.8706897,30.9776071 89.0410345,31.0003571 C89.2068966,31.0189286 89.4131034,31.0328571 89.6641379,31.0328571 C89.9241379,31.0328571 90.1393103,31.0189286 90.3051724,31.0003571 C90.4710345,30.9776071 90.6055172,30.9446429 90.6996552,30.9033214 C90.7937931,30.8615357 90.8610345,30.81 90.9013793,30.7501071 C90.9417241,30.6892857 90.9641379,30.615 90.9641379,30.5267857 L90.9641379,20.2618929 C91.6858621,19.3375 92.3762069,18.6364286 93.0351724,18.1582143 C93.6941379,17.68 94.3575862,17.4385714 95.0165517,17.4385714 C95.5275862,17.4385714 95.9758621,17.5360714 96.3658621,17.7310714 C96.7513793,17.9260714 97.0696552,18.2139286 97.3162069,18.5807143 C97.5582759,18.9521429 97.7465517,19.3932143 97.872069,19.9039286 C98.002069,20.4151071 98.0648276,21.0878571 98.0648276,21.9286786 L98.0648276,30.5267857 C98.0648276,30.615 98.0872414,30.6892857 98.1275862,30.7501071 C98.167931,30.81 98.2351724,30.8615357 98.3297586,30.9033214 C98.4234483,30.9446429 98.5538966,30.9776071 98.7237931,31.0003571 C98.8901034,31.0189286 99.1003448,31.0328571 99.3648276,31.0328571 C99.6113793,31.0328571 99.822069,31.0189286 99.987931,31.0003571 C100.153793,30.9776071 100.288276,30.9446429 100.382414,30.9033214 C100.476552,30.8564286 100.543793,30.8053571 100.584138,30.7501071 C100.624483,30.6892857 100.647345,30.615 100.647345,30.5267857 L100.647345,21.5614286 Z M83.5406897,15.8275 C83.5406897,15.7532143 83.5182759,15.6835714 83.477931,15.6139286 C83.4375862,15.5535714 83.3703448,15.4978571 83.2762069,15.4514286 C83.182069,15.4096429 83.0475862,15.3771429 82.8817241,15.3539286 C82.7158621,15.3353571 82.5006897,15.3214286 82.2406897,15.3214286 C81.9896552,15.3214286 81.7834483,15.3353571 81.6175862,15.3539286 C81.4472414,15.3771429 81.3172414,15.4096429 81.2141379,15.4514286 C81.1155172,15.4978571 81.0482759,15.5535714 81.0124138,15.6139286 C80.9765517,15.6835714 80.9586207,15.7532143 80.9586207,15.8275 L80.9586207,30.5267857 C80.9586207,30.615 80.9765517,30.6892857 81.0124138,30.7501071 C81.0482759,30.8053571 81.1155172,30.8564286 81.2141379,30.9033214 C81.3172414,30.9446429 81.4472414,30.9776071 81.6175862,31.0003571 C81.7834483,31.0189286 81.9896552,31.0328571 82.2406897,31.0328571 C82.5006897,31.0328571 82.7158621,31.0189286 82.8817241,31.0003571 C83.0475862,30.9776071 83.182069,30.9446429 83.2762069,30.9033214 C83.3703448,30.8564286 83.4375862,30.8053571 83.477931,30.7501071 C83.5182759,30.6892857 83.5406897,30.615 83.5406897,30.5267857 L83.5406897,15.8275 Z M83.5227586,9.63857143 C83.2941379,9.41571429 82.8772414,9.30428571 82.2631034,9.30428571 C81.6444828,9.30428571 81.2141379,9.42035714 80.9855172,9.64785714 C80.7524138,9.87535714 80.6358621,10.3071429 80.6358621,10.9339286 C80.6358621,11.5560714 80.747931,11.9785714 80.9765517,12.2014286 C81.2006897,12.4242857 81.622069,12.5357143 82.2362069,12.5357143 C82.8548276,12.5357143 83.2851724,12.4242857 83.5137931,12.1921429 C83.7468966,11.9646429 83.8634483,11.5328571 83.8634483,10.9060714 C83.8634483,10.2839286 83.7468966,9.86142857 83.5227586,9.63857143 Z M77.5068966,10.855 C77.5606897,10.6089286 77.5875862,10.4139286 77.5965517,10.2746429 C77.6010345,10.1307143 77.5606897,10.0239286 77.4755172,9.945 C77.3948276,9.87071429 77.2603448,9.81964286 77.0765517,9.79178571 C76.8927586,9.76392857 76.6417241,9.75 76.327931,9.75 C76.0231034,9.75 75.7765517,9.76392857 75.5927586,9.7825 C75.4089655,9.80571429 75.27,9.83821429 75.1713793,9.88 C75.0682759,9.92642857 75.0010345,9.98678571 74.9696552,10.0703571 C74.9382759,10.1492857 74.9068966,10.2467857 74.8755172,10.3535714 L70.3837931,28.0010714 L70.3568966,28.0010714 L65.6724138,10.3675 C65.6410345,10.2514286 65.6006897,10.1492857 65.5558621,10.0703571 C65.5065517,9.98678571 65.4303448,9.92642857 65.3272414,9.88 C65.2196552,9.83821429 65.0806897,9.80571429 64.9103448,9.7825 C64.7355172,9.76392857 64.5024138,9.75 64.2065517,9.75 C63.8927586,9.75 63.6372414,9.76392857 63.4444828,9.7825 C63.2472414,9.80571429 63.0993103,9.83821429 62.9917241,9.88 C62.8886207,9.92642857 62.8124138,9.98678571 62.7631034,10.0703571 C62.7182759,10.1492857 62.677931,10.2514286 62.6465517,10.3675 L58.2982759,28.0010714 L58.2803448,28.0010714 L53.6944828,10.335 C53.672069,10.2189286 53.6451724,10.1214286 53.6093103,10.0425 C53.5734483,9.96821429 53.5017241,9.90785714 53.4031034,9.86607143 C53.3044828,9.81964286 53.1610345,9.79178571 52.9727586,9.77321429 C52.78,9.75928571 52.5244828,9.75 52.2017241,9.75 C51.8655172,9.75 51.5965517,9.76392857 51.3948276,9.7825 C51.1931034,9.80571429 51.0496552,9.85214286 50.96,9.93107143 C50.8703448,10.0053571 50.83,10.1121429 50.8344828,10.2560714 C50.8389655,10.3953571 50.8748276,10.595 50.9375862,10.8410714 L56.3303448,30.3132143 C56.3572414,30.4664286 56.4155172,30.59225 56.4917241,30.6846429 C56.5724138,30.7728571 56.6844828,30.8471429 56.8324138,30.8935714 C56.9803448,30.9446429 57.1686207,30.9776071 57.3972414,31.0003571 C57.6303448,31.0189286 57.9217241,31.0328571 58.2668966,31.0328571 C58.6031034,31.0328571 58.8765517,31.0189286 59.0917241,31.0003571 C59.3068966,30.9776071 59.4817241,30.9446429 59.6206897,30.8935714 C59.7596552,30.8471429 59.8627586,30.7728571 59.9344828,30.6846429 C60.0106897,30.59225 60.06,30.4664286 60.0913793,30.3132143 L64.0362069,14.3928571 L64.0675862,14.3928571 L68.3396552,30.3132143 C68.38,30.4664286 68.4337931,30.59225 68.51,30.6846429 C68.5817241,30.7728571 68.6937931,30.8471429 68.8417241,30.8935714 C68.9896552,30.9446429 69.1734483,30.9776071 69.402069,31.0003571 C69.6262069,31.0189286 69.9041379,31.0328571 70.2268966,31.0328571 C70.5406897,31.0328571 70.8096552,31.0189286 71.0248276,31.0003571 C71.24,30.9776071 71.4193103,30.9446429 71.5672414,30.8935714 C71.7151724,30.8471429 71.8317241,30.7728571 71.9124138,30.6846429 C71.9975862,30.59225 72.0603448,30.4664286 72.1051724,30.3132143 L77.5068966,10.855 Z M37.6551724,18.3857143 L37.6551724,0 L17.2137931,2.89714286 L17.2137931,18.3857143 L37.6551724,18.3857143 Z M15.3848276,3.23142857 L14.5241379,3.23142857 L0,5.34857143 L0,18.4971429 L15.3848276,18.4971429 L15.3848276,3.23142857 Z M15.3848276,20.28 L0,20.28 L0,33.54 L15.3848276,35.7685714 L15.3848276,20.28 Z M37.6551724,20.3914286 L17.2137931,20.3914286 L17.2137931,35.9914286 L37.6551724,39 L37.6551724,20.3914286 L37.6551724,20.3914286 Z" id="Fill-72"></path>
        </g>
    </g>
</svg>