<?xml version="1.0" encoding="UTF-8"?>
<svg width="187px" height="39px" viewBox="0 0 187 39" version="1.1" xmlns="http://www.w3.org/2000/svg" xmlns:xlink="http://www.w3.org/1999/xlink">
    <!-- Generator: Sketch 46.2 (44496) - http://www.bohemiancoding.com/sketch -->
    <title>window-logo</title>
    <desc>Created with Sketch.</desc>
    <defs>
        <polygon id="path-1" points="0.026895685 19.1443206 0.026895685 0.291128338 19.5845413 0.291128338 39.1421868 0.291128338 39.1421868 19.1443206 0.026895685 19.1443206"></polygon>
    </defs>
    <g id="Symbols" stroke="none" stroke-width="1" fill="none" fill-rule="evenodd">
        <g id="window-logo">
            <g id="window-10-logo">
                <g id="Group-4">
                    <mask id="mask-2" fill="white">
                        <use xlink:href="#path-1"></use>
                    </mask>
                    <g id="Clip-2"></g>
                    <path d="M17.9304566,3.36813092 C24.9905739,2.28871662 32.0641391,1.27200689 39.1377042,0.291128338 C39.1421868,6.48544358 39.1377042,12.6752799 39.1421868,18.8695952 C32.0731043,18.8964686 25.0040218,19.0039621 17.9304566,19.0263566 C17.925974,13.8039621 17.925974,8.58604651 17.9304566,3.36813092" id="Fill-1" fill="#4A463F" mask="url(#mask-2)"></path>
                    <path d="M0,5.86735573 C5.31638039,5.04771748 10.6551739,4.34005168 15.9939673,3.67269595 C15.9984499,8.80999139 15.9984499,13.9428079 16.0029326,19.0801034 C10.6686217,19.0756245 5.33431085,19.1562446 0,19.1428079 L0,5.86735573" id="Fill-3" fill="#4A463F" mask="url(#mask-2)"></path>
                </g>
                <path d="M84.6947612,6.50468554 C86.040061,5.56478815 87.7604923,7.52487567 86.9757342,8.99848363 C86.5962906,10.0800741 85.2078723,10.490984 84.4231142,9.6975028 C83.4400105,8.96542192 83.57799,7.01950371 84.6947612,6.50468554" id="Fill-5" fill="#4A463F"></path>
                <path d="M115.670032,16.1651822 C113.509783,16.5050694 112.047115,18.463893 111.642068,20.4897996 C111.111007,22.9316208 111.205518,25.7580512 112.753696,27.833152 C114.427889,30.0424188 118.122815,30.091613 119.914022,28.0030956 C121.133663,26.7419352 121.480203,24.9351664 121.489204,23.2446748 C121.502705,21.460267 121.655723,19.447777 120.463085,17.9585344 C119.409964,16.4692918 117.443237,15.7984618 115.670032,16.1651822 Z M121.484703,6.26373146 C122.384807,6.25925926 123.284911,6.25925926 124.185015,6.25925926 C124.185015,14.6088566 124.185015,22.9539818 124.185015,31.3035792 C123.284911,31.3035792 122.389307,31.3035792 121.493704,31.3035792 C121.498205,30.3957226 121.480203,29.487866 121.417195,28.5800094 C119.468471,32.059381 114.256869,32.8285994 111.277526,30.24814 C109.14878,28.4279546 108.500706,25.4673582 108.613219,22.7885104 C108.635721,20.0694128 109.535825,17.1803716 111.714076,15.4049082 C114.544903,13.0883087 119.562981,13.2224747 121.502705,16.6258188 C121.466701,13.1688083 121.498205,9.71626985 121.484703,6.26373146 L121.484703,6.26373146 Z" id="Fill-6" fill="#4A463F"></path>
                <path d="M51.135006,7.7037037 C52.1482492,7.70815363 53.1614923,7.70815363 54.1792388,7.7215034 C55.7598982,13.3640063 57.318041,19.015409 58.9032037,24.6623619 C59.2409514,25.8460415 59.4931364,27.0564207 59.6417454,28.2845995 C61.2899543,21.3560688 63.5416058,14.5743855 65.4329931,7.7037037 C66.3111372,7.70815363 67.1892813,7.70815363 68.0674254,7.71260355 C69.458946,12.6030694 70.7604006,17.5157849 72.1384113,22.4107006 C72.6472846,24.3597671 73.3047668,26.282134 73.5119188,28.2979493 C75.0025121,21.3783184 77.1280711,14.5966351 78.8168097,7.7215034 C79.816543,7.70815363 80.8162763,7.70815363 81.8160096,7.70815363 C79.6364109,15.5800682 77.3667462,23.4297331 75.1601277,31.2927478 C74.0793349,31.2927478 72.9940389,31.2927478 71.9132462,31.2927478 C70.3145736,25.6457949 68.7294109,19.9943922 67.1127251,14.3563392 C66.842527,13.4441049 66.7299444,12.5007212 66.6443816,11.5573374 C66.5182891,12.3716734 66.4012033,13.1949092 66.189548,13.9914455 C64.554849,19.7407466 62.8976335,25.4811478 61.3079675,31.2393487 C60.2271748,31.2971977 59.1463821,31.3016476 58.0655893,31.2927478 C55.7463883,23.434183 53.4452004,15.5667184 51.135006,7.7037037" id="Fill-9" fill="#4A463F"></path>
                <path d="M94.2443317,17.154673 C95.7992965,14.444343 99.4260364,13.1978574 102.350096,14.4532148 C104.675743,15.3403932 105.541627,17.975313 105.614162,20.2198743 C105.741097,23.9105363 105.636829,27.6056343 105.668563,31.2962963 C104.761878,31.2962963 103.855193,31.2962963 102.948508,31.2918604 C102.907707,27.7475828 103.04371,24.1944334 102.88504,20.6501558 C102.812505,18.8935426 102.050889,16.7820581 100.096983,16.334033 C97.245459,15.4912135 94.3984682,18.0063642 94.3077997,20.765489 C94.226198,24.2742795 94.3032662,27.7875058 94.2760657,31.2962963 C93.3693807,31.2962963 92.4626957,31.2962963 91.5560107,31.2962963 C91.5605441,25.6760213 91.5605441,20.0601822 91.5560107,14.4399072 C92.4626957,14.4399072 93.3739141,14.4399072 94.2805991,14.4399072 C94.2760657,15.3448291 94.2715323,16.249751 94.2443317,17.154673" id="Fill-10" fill="#4A463F"></path>
                <path d="M134.283296,16.430414 C130.340029,17.6335141 129.67312,22.7433598 130.903992,26.104049 C131.884214,29.087382 135.706631,30.4103482 138.450357,29.0163503 C140.307855,28.1684089 141.1538,26.0907305 141.332836,24.186192 C141.534252,21.9620107 141.355216,19.440384 139.770748,17.7045459 C138.427978,16.2040004 136.154221,15.8799181 134.283296,16.430414 Z M134.766693,14.0153349 C137.161299,13.8066792 139.815507,14.1795958 141.614818,15.897676 C143.646876,17.7578197 144.251122,20.6479235 144.139225,23.2894163 C144.107894,25.6645401 143.221666,28.0751798 141.467113,29.7311072 C137.805828,33.034083 131.006938,32.3104472 128.683946,27.7688554 C126.85778,23.9642179 127.224803,18.6989902 130.559348,15.8088863 C131.754413,14.805563 133.267267,14.3482962 134.766693,14.0153349 L134.766693,14.0153349 Z" id="Fill-11" fill="#4A463F"></path>
                <path d="M175.726014,13.997806 C177.40698,13.8822805 179.119325,14.0422388 180.701674,14.6554125 C181.140967,15.4818641 180.800291,16.5660263 180.90339,17.4946734 C179.016225,16.3260887 176.41633,15.5796164 174.367793,16.7704175 C172.964746,17.5257764 172.897507,19.7607501 174.264693,20.5916449 C176.22358,21.8490953 178.71141,22.1778986 180.45065,23.7952554 C182.369193,25.6258899 181.903005,29.1449738 179.657234,30.5179497 C176.927344,32.2419453 173.332317,32.0731004 170.472433,30.7578872 C170.472433,29.7625907 170.46795,28.7672943 170.45002,27.7719979 C172.48511,29.3093754 175.344994,30.1624866 177.779034,29.0694379 C179.200011,28.3629551 179.271732,26.199074 178.021093,25.2882 C176.062207,23.8574614 173.377143,23.6308537 171.637903,21.8446521 C169.921076,20.129543 170.230374,16.9748087 172.144434,15.5218536 C173.135084,14.6198662 174.475374,14.3488257 175.726014,13.997806" id="Fill-12" fill="#4A463F"></path>
                <path d="M84.2510098,14.4488791 C85.22501,14.4444444 86.1990101,14.4444444 87.1730102,14.4444444 C87.1730102,20.0632066 87.1730102,25.6775341 87.1730102,31.2962963 C86.1990101,31.2962963 85.22501,31.2962963 84.2510098,31.2962963 C84.2510098,25.6775341 84.2558798,20.0632066 84.2510098,14.4488791" id="Fill-13" fill="#4A463F"></path>
                <path d="M145.128309,14.2326909 C146.063142,14.2326909 147.00247,14.2326909 147.941797,14.2326909 C149.056405,18.2343915 150.135059,22.2449358 151.272139,26.2422147 C151.501353,26.9939153 151.586746,27.7721466 151.667645,28.5503779 C152.939557,23.73065 154.548548,18.9993575 155.991247,14.2282691 C156.809226,14.2326909 157.627205,14.2371126 158.449678,14.2415344 C159.685635,19.0170446 161.222716,23.7218065 162.247437,28.5459562 C163.303618,23.7483371 164.804744,19.0568405 165.977779,14.2857521 C166.881151,14.2415344 167.784524,14.2282691 168.69239,14.2194255 C166.980028,19.8218065 165.339576,25.4418745 163.618225,31.0354119 C162.683392,31.0354119 161.753054,31.0354119 160.822715,31.0354119 C159.60923,26.4809902 158.036194,22.0150038 157.051923,17.4119426 C155.878888,22.010582 154.251919,26.4854119 152.912591,31.0354119 C152.009219,31.0354119 151.110341,31.0354119 150.211463,31.0354119 C148.521573,25.433031 146.795728,19.8439153 145.128309,14.2326909" id="Fill-14" fill="#4A463F"></path>
                <path d="M0,20.3082011 C5.34382831,20.290514 10.6876566,20.3745276 16.0314849,20.3656841 C16.0314849,25.4507181 16.0449681,30.5357521 16.0359793,35.6207861 C10.6966454,34.8425548 5.3483227,34.1616024 0,33.4496977 L0,20.3082011" id="Fill-16" fill="#4A463F"></path>
                <path d="M18.0190021,20.7037037 C25.1633443,20.7037037 32.3031648,20.7037037 39.4429853,20.7037037 C39.4520288,26.8009953 39.4429853,32.8982869 39.4429853,39 C32.3212517,37.9565186 25.185953,36.9882033 18.0506543,36.0419956 C18.0416108,30.9307055 18.0280456,25.8194154 18.0190021,20.7037037" id="Fill-18" fill="#4A463F"></path>
            </g>
        </g>
    </g>
</svg>