<?xml version="1.0" encoding="UTF-8"?>
<svg width="35px" height="35px" viewBox="0 0 35 35" version="1.1" xmlns="http://www.w3.org/2000/svg" xmlns:xlink="http://www.w3.org/1999/xlink">
    <!-- Generator: Sketch 46.2 (44496) - http://www.bohemiancoding.com/sketch -->
    <title>youtube@2x</title>
    <desc>Created with Sketch.</desc>
    <defs></defs>
    <g id="Symbols" stroke="none" stroke-width="1" fill="none" fill-rule="evenodd">
        <g id="youtube" fill="#6e6a64">
            <g id="Shape">
                <path d="M12.6680205,22.2863959 L12.6812366,19.0638226 L13.2835137,19.0575075 L13.8851615,19.0499295 L13.8782387,18.553566 L13.8706867,18.0565711 L12.1324533,18.0496245 L10.3954785,18.042678 L10.3954785,18.5466195 L10.3954785,19.0499295 L10.9832808,19.0575075 L11.5710832,19.0638226 L11.5780059,22.2598727 C11.5811526,24.0173529 11.5899633,25.4710789 11.596886,25.4893926 C11.6063261,25.5152843 11.7284178,25.5215993 12.1318239,25.5159158 L12.6548044,25.5089692 L12.6680205,22.2863959 Z M22.6940149,22.0596854 C22.6694707,21.9952718 22.703455,21.2507266 22.7361806,21.1427392 C22.8123306,20.8888739 22.9740706,20.7650988 23.2289528,20.7650988 C23.4410399,20.7650988 23.5757184,20.8471945 23.6663432,21.0315942 C23.723613,21.1484227 23.7292771,21.1983117 23.7380878,21.6302615 L23.7468985,22.1007333 L23.2276941,22.1007333 C22.781493,22.1007333 22.707231,22.0950497 22.6940149,22.0596854 L22.6940149,22.0596854 Z M23.6631965,25.5317034 C24.1717021,25.3883517 24.5235025,25.0397605 24.6562929,24.5478176 C24.6783198,24.4638274 24.7041227,24.2244867 24.7129334,24.0167214 L24.7280375,23.639081 L24.238412,23.639081 L23.7481572,23.639081 L23.7361998,23.977568 C23.7223543,24.362155 23.682706,24.4941397 23.5429928,24.6172833 C23.3944689,24.7480049 23.1213359,24.7574775 22.9438624,24.6374914 C22.7324046,24.4941397 22.6801695,24.252273 22.6908682,23.46668 L22.6984203,22.909692 L23.7122849,22.9033769 L24.7261495,22.8957989 L24.7129334,22.0672635 C24.6965706,21.1427392 24.6776904,21.0025449 24.5228731,20.674162 C24.2277133,20.0521289 23.4102024,19.7382706 22.7311459,19.9864523 C22.2188642,20.1740095 21.9161523,20.511865 21.79469,21.0347517 C21.7518949,21.2191514 21.7468602,21.3846058 21.7468602,22.7372909 C21.7468602,24.3962563 21.7525243,24.4638274 21.921187,24.8035774 C22.2226403,25.4079283 22.9772173,25.7236812 23.6631965,25.5317034 L23.6631965,25.5317034 Z M19.6486451,24.586971 C19.7109496,24.5446601 19.7518566,24.4859301 19.7839529,24.3943618 C19.8248599,24.2737442 19.8286359,24.1202883 19.8229719,22.6975061 C19.8173078,21.2147308 19.8141612,21.127583 19.7663314,21.0303312 C19.6436104,20.7821495 19.3346051,20.7581522 19.0514027,20.9753902 L18.9582605,21.0461188 L18.9582605,22.7372909 L18.9582605,24.4284631 L19.0507733,24.4991917 C19.2603431,24.6595941 19.4900517,24.6930639 19.6486451,24.586971 L19.6486451,24.586971 Z M20.2622503,25.5418075 C20.4164383,25.4969706 20.6027225,25.3132025 20.6864246,25.1256453 C20.8475353,24.7663186 20.8481646,24.7574775 20.8481646,22.7372909 C20.8481646,21.0789571 20.8431299,20.8743493 20.8022229,20.6950017 C20.6694324,20.120963 20.3799366,19.8702553 19.8928285,19.9068826 C19.6203248,19.9283538 19.4057203,20.0369728 19.1483208,20.2864175 C19.0362985,20.394405 18.9362337,20.4834473 18.9249056,20.4834473 C18.9148362,20.4834473 18.9053961,19.9340374 18.9053961,19.2633784 L18.9053961,18.0433095 L18.4296161,18.0433095 L17.953836,18.0433095 L17.953836,21.7824544 L17.953836,25.5222309 L18.4296161,25.5222309 L18.9053961,25.5222309 L18.9053961,25.2702601 C18.9053961,25.1029111 18.9154655,25.0182893 18.934975,25.0182893 C18.9507085,25.0182893 19.0576961,25.1067001 19.172865,25.2153191 C19.5429162,25.5645417 19.8632496,25.6605306 20.2622503,25.5418075 L20.2622503,25.5418075 Z M15.197962,25.5171788 C15.3880222,25.4464502 15.6114375,25.2910998 15.7996097,25.0991221 C15.8858291,25.0107113 15.9720485,24.9387196 15.9909287,24.9387196 C16.0161022,24.9387196 16.024913,25.0107113 16.024913,25.2304752 L16.024913,25.5222309 L16.500693,25.5222309 L16.9764731,25.5222309 L16.9764731,22.7505526 L16.9764731,19.9795058 L16.500693,19.9795058 L16.024913,19.9795058 L16.024913,22.1171524 L16.024913,24.2554305 L15.8197486,24.4594068 C15.6573792,24.6217038 15.5894106,24.6709612 15.4887164,24.6987475 C15.318795,24.7461104 15.2105487,24.7132721 15.1406921,24.5926545 C15.0878277,24.5029807 15.086569,24.4613014 15.0790169,22.240296 L15.0720942,19.9795058 L14.5963142,19.9795058 L14.1217928,19.9795058 L14.1217928,22.3798587 C14.1217928,24.9949236 14.1243102,25.0517591 14.2703167,25.3037299 C14.4301688,25.5790664 14.8039959,25.6655826 15.197962,25.5171788 L15.197962,25.5171788 Z M15.6019974,27.8297525 C14.9839868,27.8190169 14.2526953,27.8019662 13.9764156,27.7918622 C12.1217545,27.7249226 10.8486024,27.6535624 10.5943495,27.601779 C10.2318505,27.5285243 9.82655635,27.2822371 9.59118368,26.992376 C9.21483915,26.5282194 9.01345078,25.9649163 8.91590328,25.0978591 C8.6899707,23.082093 8.69500541,20.7309975 8.92974873,18.7859601 C9.03296028,17.9334275 9.28910112,17.3177095 9.71893943,16.8882856 C9.96438152,16.6426299 10.2003835,16.5062247 10.5144235,16.425392 C11.195368,16.2504649 16.5233492,16.1115337 19.7644434,16.1835253 C21.636726,16.2252047 23.6594205,16.3123525 24.1968757,16.3736085 C24.8922949,16.4531782 25.3806617,16.8143995 25.7186166,17.4995831 C25.9741281,18.0167862 26.0553128,18.4196868 26.1591537,19.6612269 C26.2403384,20.6438497 26.2604772,21.2564102 26.2453731,22.3912258 C26.2283809,23.748963 26.1421615,24.9450347 26.0131471,25.6163252 C25.87721,26.3261375 25.5562472,26.93112 25.1402544,27.2588714 C24.819921,27.5121052 24.4781901,27.6251447 23.9401055,27.6554569 C23.7802535,27.6649295 23.5782358,27.6775596 23.4907577,27.6845062 C23.1811231,27.7085034 21.5209276,27.775443 20.6102746,27.8013347 C19.2571964,27.8392251 16.8896243,27.8524867 15.6019974,27.8297525 Z M13.9322908,15.5120223 C13.9096346,15.4747634 13.9134107,13.2929114 13.9360669,12.9841052 C13.9656458,12.5881511 13.8989359,12.2761873 13.6157335,11.4792272 C13.52385,11.2209414 13.3577046,10.7195259 13.246941,10.3658828 C12.4457929,7.80891639 12.4879586,7.95858322 12.5647379,7.95795172 C13.092753,7.95353118 13.7441186,7.95668871 13.7516706,7.96426677 C13.7567053,7.96931882 13.9278855,8.5932464 14.1324205,9.35168468 C14.3375849,10.1094915 14.5081357,10.7403656 14.5125411,10.7542587 C14.5163171,10.7668888 14.6365208,10.3254664 14.7793807,9.77289895 C15.0783166,8.61345458 15.24635,7.97373936 15.2526434,7.96805581 C15.2658595,7.9554257 15.4143834,7.95289967 15.9008622,7.9554257 L16.4389468,7.95858322 L16.4269894,8.0450995 C16.4175493,8.11519662 16.0500155,9.3529477 15.6654896,10.6102754 C15.6239532,10.7492067 15.5163363,11.1072704 15.4275995,11.4066041 C15.3388628,11.7053062 15.2318752,12.0602124 15.1890802,12.1953546 L15.1116715,12.4416418 L15.1116715,13.9774636 C15.1116715,15.4179279 15.1085248,15.5145483 15.0657298,15.5259154 C14.9688116,15.5524386 13.949283,15.5398085 13.9322908,15.5120223 Z M20.8864832,15.6042221 C20.6209023,15.5688578 20.4654556,15.4659224 20.3590974,15.254368 C20.2256776,14.9891356 20.2256776,14.9903986 20.2256776,12.3475475 L20.2256776,9.88151792 L20.7618742,9.88151792 L21.2974414,9.88151792 L21.3087695,12.1549383 C21.3207269,14.6241253 21.3175802,14.5666583 21.4648455,14.6039172 C21.6001533,14.637387 21.7499359,14.5647638 21.9362201,14.3740491 L22.1149523,14.191544 L22.121875,12.0362152 L22.1281684,9.88151792 L22.6637356,9.87393986 L23.1993029,9.8676248 L23.1993029,12.6898235 L23.1993029,15.5126538 L23.1262996,15.5278099 C23.0388215,15.5461236 22.2269746,15.5448606 22.1615234,15.5259154 C22.121875,15.5151798 22.1155817,15.4785525 22.1155817,15.2575255 L22.1155817,15.0011342 L21.9632817,15.1501695 C21.6133694,15.4918141 21.2357662,15.6509535 20.8864832,15.6042221 L20.8864832,15.6042221 Z M18.187879,14.526242 C18.3716459,14.3860477 18.3729045,14.3740491 18.3823446,12.7870754 C18.390526,11.5537449 18.3861207,11.344085 18.3489897,11.1761045 C18.2986426,10.9487625 18.2105352,10.8414065 18.0380964,10.7940436 C17.8153105,10.7346821 17.6114047,10.8622462 17.5396601,11.1066389 C17.485537,11.2948276 17.4861663,14.0923976 17.5409188,14.2805863 C17.5824552,14.4220435 17.7152456,14.5767624 17.8134225,14.5982336 C17.9411782,14.6253884 18.0978835,14.5950761 18.1885083,14.526242 L18.187879,14.526242 Z M17.7681101,15.6029591 C17.288554,15.5448606 16.8480169,15.261946 16.6359298,14.8754646 C16.4200666,14.4820366 16.3999278,14.2761657 16.4125146,12.5433142 C16.422584,11.2013647 16.42636,11.1173745 16.4792245,10.9247653 C16.6057215,10.4669237 16.8505343,10.1549599 17.2300255,9.96613968 C17.7511179,9.70785387 18.3131174,9.74132367 18.8046309,10.0608655 C19.1180415,10.2635788 19.3081018,10.5578605 19.4100547,10.9954939 C19.4547377,11.1887346 19.4591431,11.3371384 19.4591431,12.6923496 C19.4591431,14.3405793 19.451591,14.4359367 19.2829283,14.7927373 C19.1211882,15.1369079 18.7549131,15.4400306 18.3729045,15.5467551 C18.2042418,15.592855 17.9115993,15.6206413 17.7681101,15.6029591 L17.7681101,15.6029591 Z"></path>
            </g>
        </g>
    </g>
</svg>