<?xml version="1.0" encoding="UTF-8"?>
<svg width="291px" height="28px" viewBox="0 0 291 28" version="1.1" xmlns="http://www.w3.org/2000/svg" xmlns:xlink="http://www.w3.org/1999/xlink">
    <!-- Generator: Sketch 50.2 (55047) - http://www.bohemiancoding.com/sketch -->
    <title>logo</title>
    <style type="text/css">
        .st0{fill:#fff;}
    </style>
    <defs></defs>
    <g id="SYNTERIUM_Coming-soon" stroke="none" stroke-width="1" fill="none" fill-rule="evenodd">
        <g id="desktop_1200"  transform="translate(-771.000000, -112.000000)" fill="#000000">
            <g id="logo-copy" transform="translate(771.000000, 112.000000)">
                <path d="M0,22.398815 L15.0631765,22.398815 C16.3434076,22.398815 17.2958721,22.0548309 17.9220928,21.3668627 C18.5475521,20.6792554 18.8608527,19.8093691 18.8608527,18.7572037 C18.8608527,17.840755 18.6046542,17.0719343 18.092638,16.4511026 C17.5806217,15.8309927 16.7553047,15.4130141 15.6178291,15.1968059 L15.6178291,11.5555556 C16.6133106,11.5555556 17.5593035,11.7443317 18.4554272,12.122245 C19.3519315,12.4997973 20.1334702,13.0192025 20.8027078,13.6793776 C21.4704227,14.3409966 22.0041378,15.1098172 22.4027111,15.9858397 C22.800523,16.8625841 23,17.7866127 23,18.7572037 C23,19.8364403 22.8146082,20.8207473 22.4449667,21.7112077 C22.0753252,22.6013072 21.5842464,23.3632699 20.9728723,23.9970958 C20.3607369,24.6309216 19.6359198,25.1232556 18.7968983,25.4737368 C17.9574961,25.8249399 17.0686054,26 16.1298454,26 L0,26 L0,22.398815 Z M23,3.60118502 L7.89418716,3.60118502 C6.61395611,3.60118502 5.66073025,3.94480817 5.03527095,4.63277636 C4.40905028,5.32038361 4.09651097,6.19026993 4.09651097,7.24243535 C4.09651097,8.18703806 4.35232878,8.96921385 4.86434506,9.58932369 C5.37636135,10.2097945 6.20129763,10.628134 7.33915389,10.8436204 L7.33915389,14.4444444 C6.34329173,14.4444444 5.3976795,14.2556683 4.50193651,13.878116 C3.60543216,13.5005636 2.8227515,12.9818804 2.1546559,12.3202614 C1.48579893,11.6600863 0.960078122,10.8912656 0.575970737,10.0141603 C0.191863352,9.13777689 0,8.21338731 0,7.24243535 C0,6.16392068 0.177016783,5.17889172 0.533334437,4.28915321 C0.888510047,3.39905376 1.37197524,2.63709109 1.9841107,2.0032652 C2.59548479,1.36907836 3.32068258,0.877105303 4.16046542,0.525902233 C4.99910623,0.176142958 5.88837764,0 6.82713761,0 L23,0 L23,3.60118502 Z" id="Fill-6"></path>
                <polyline id="Fill-7" points="44.0033559 26 44.0033559 16.9170241 33 0 37.7680239 0 45.8778455 12.3335335 54.2730578 0 59 0 47.9155713 16.708126 47.9155713 26 44.0033559 26"></polyline>
                <polyline id="Fill-8" points="72.0378455 4.79201693 72.0378455 26 68 26 68 0 73.6703046 0 88.8763163 21.1247212 88.8763163 0 93 0 93 26 87.5446742 26 72.0378455 4.79201693"></polyline>
                <polygon id="Fill-9" points="128 0 128 3.70849774 118.498933 3.70849774 118.498933 26 114.414774 26 114.414774 3.70849774 105 3.70849774 105 0"></polygon>
                <path d="M144.846154,15.8888889 L156.538462,15.8888889 L156.538462,11.5555556 L144.846154,11.5555556 L144.846154,15.8888889 Z M139,0 L158,0 L158,3.70849774 L142.760246,3.70849774 L142.760246,22.2915023 L158,22.2915023 L158,26 L139,26 L139,0 Z" id="Fill-10"></path>
                <path d="M190.346929,26 L183.100097,11.8335907 L187.835392,11.8335907 C188.366103,11.8335907 188.825804,11.7086979 189.218232,11.4581689 C189.606922,11.2080117 189.928339,10.8894607 190.178746,10.4999142 C190.432889,10.1114828 190.612285,9.68104878 190.724407,9.20861211 C190.836529,8.73654715 190.89259,8.29161663 190.89259,7.87493567 C190.89259,7.43112026 190.814105,6.96537428 190.660871,6.47955624 C190.507637,5.9933665 190.298343,5.5417453 190.032987,5.12506433 C189.767631,4.70801167 189.438739,4.36864528 189.050049,4.10436324 C188.657621,3.84045291 188.21287,3.70849774 187.70832,3.70849774 L175.935489,3.70849774 L175.935489,26 L172,26 L172,0 L188.253981,0 C189.173383,0 190.040461,0.202207354 190.851479,0.604391834 C191.658759,1.00731972 192.372603,1.56227483 192.989275,2.27111569 C193.60221,2.97958483 194.09181,3.81963744 194.454339,4.79201693 C194.816867,5.76439641 195,6.80591296 195,7.9169383 C195,8.83356207 194.850504,9.71524561 194.558986,10.5623606 C194.263731,11.4105907 193.860091,12.1811346 193.344329,12.8751072 C192.824829,13.5698233 192.21937,14.1459656 191.520474,14.6039058 C190.821579,15.0625894 190.066623,15.3614399 189.259344,15.4997141 L194.622522,26 L190.346929,26" id="Fill-11"></path>
                <polygon id="Fill-12" points="204 26 209 26 209 0 204 0"></polygon>
                <path d="M220,0 L223.890138,0 L223.890138,14.1819191 C224.025288,15.288003 224.368643,16.3245404 224.912897,17.2919014 C225.460804,18.2596323 226.140208,19.1026976 226.962068,19.8210973 C227.780275,20.5406067 228.708064,21.106966 229.745434,21.5212851 C230.782804,21.935974 231.874965,22.1435035 233.021916,22.1435035 C234.168868,22.1435035 235.257376,21.935974 236.294746,21.5212851 C237.332116,21.106966 238.256252,20.5406067 239.059848,19.8210973 C239.863445,19.1026976 240.535544,18.2596323 241.065187,17.2919014 C241.598483,16.3245404 241.930879,15.288003 242.069682,14.1819191 L242.069682,0 L246,0 L246,13.020716 C246,14.8181948 245.660298,16.5039554 244.977241,18.0794775 C244.294184,19.6557396 243.3737,21.0311308 242.212138,22.2056514 C241.050576,23.3809117 239.680809,24.3064709 238.099185,24.9841785 C236.513908,25.6615161 234.822703,26 233.021916,26 C231.217477,26 229.526271,25.6615161 227.944647,24.9841785 C226.359371,24.3064709 224.982298,23.3809117 223.809778,22.2056514 C222.633605,21.0311308 221.705816,19.6557396 221.022759,18.0794775 C220.339702,16.5039554 220,14.8181948 220,13.020716 L220,0" id="Fill-13"></path>
                <polyline id="Fill-14" points="262.310722 5.35072625 262.310722 25.9261726 258 25.9261726 258 0 264.17289 0 274.434626 19.4548987 284.735983 0 291 0 291 25.9261726 286.736823 25.9261726 286.736823 5.18493848 274.434626 28 262.310722 5.35072625"></polyline>
            </g>
        </g>
    </g>
</svg>