<?xml version="1.0" encoding="utf-8"?>
<!-- Generator: Adobe Illustrator 21.0.0, SVG Export Plug-In . SVG Version: 6.00 Build 0)  -->
<svg version="1.1" id="Layer_1" xmlns="http://www.w3.org/2000/svg" xmlns:xlink="http://www.w3.org/1999/xlink" x="0px" y="0px"
	 viewBox="0 0 640 640" style="enable-background:new 0 0 640 640;" xml:space="preserve">
<style type="text/css">
	.st0{fill:url(#SVGID_1_);}
	.st1{fill:#fff;}
</style>
<g>
	<g>
		<radialGradient id="SVGID_1_" cx="319.308" cy="320.4766" r="295.0866" gradientUnits="userSpaceOnUse">
			<stop  offset="0.3953" style="stop-color:#7DB968"/>
			<stop  offset="0.6945" style="stop-color:#BEE1F5"/>
			<stop  offset="0.9995" style="stop-color:#567B94"/>
		</radialGradient>
		<path class="st0" d="M189.3,311.9c-4.7,0-8.6,3.8-8.6,8.6c0,4.7,3.8,8.6,8.6,8.6s8.6-3.8,8.6-8.6
			C197.8,315.7,194,311.9,189.3,311.9z M197.2,277.9c-4.6-1.2-9.3,1.5-10.5,6.1c-1.2,4.6,1.5,9.3,6.1,10.5c4.6,1.2,9.3-1.5,10.5-6.1
			S201.8,279.1,197.2,277.9z M210.7,247.3c-4.1-2.4-9.3-1-11.7,3.1c-2.4,4.1-1,9.3,3.1,11.7c4.1,2.4,9.3,1,11.7-3.1
			C216.2,254.9,214.8,249.7,210.7,247.3z M232.5,223c-3.3-3.3-8.8-3.3-12.1,0c-3.3,3.3-3.3,8.8,0,12.1c3.3,3.3,8.8,3.3,12.1,0
			C235.8,231.7,235.8,226.3,232.5,223z M262.4,204.7c-2.4-4.1-7.6-5.5-11.7-3.1c-4.1,2.4-5.5,7.6-3.1,11.7c2.4,4.1,7.6,5.5,11.7,3.1
			C263.4,214.1,264.8,208.8,262.4,204.7z M294.7,192.5c-1.2-4.6-5.9-7.3-10.5-6.1c-4.6,1.2-7.3,5.9-6.1,10.5
			c1.2,4.6,5.9,7.3,10.5,6.1C293.2,201.8,295.9,197.1,294.7,192.5z M326.5,191.9c0-4.7-3.8-8.6-8.6-8.6c-4.7,0-8.6,3.8-8.6,8.6
			s3.8,8.6,8.6,8.6C322.6,200.4,326.5,196.6,326.5,191.9z M360.5,196.9c1.2-4.6-1.5-9.3-6.1-10.5c-4.6-1.2-9.3,1.5-10.5,6.1
			c-1.2,4.6,1.5,9.3,6.1,10.5S359.2,201.5,360.5,196.9z M391,213.3c2.4-4.1,1-9.3-3.1-11.7c-4.1-2.4-9.3-1-11.7,3.1
			c-2.4,4.1-1,9.3,3.1,11.7C383.4,218.8,388.7,217.4,391,213.3z M415.4,235.1c3.3-3.3,3.3-8.8,0-12.1c-3.3-3.3-8.8-3.3-12.1,0
			s-3.3,8.8,0,12.1S412,238.4,415.4,235.1z M436.5,262.2c4.1-2.4,5.5-7.6,3.1-11.7c-2.4-4.1-7.6-5.5-11.7-3.1s-5.5,7.6-3.1,11.7
			C427.1,263.1,432.4,264.5,436.5,262.2z M445.8,294.5c4.6-1.2,7.3-5.9,6.1-10.5c-1.2-4.6-5.9-7.3-10.5-6.1
			c-4.6,1.2-7.3,5.9-6.1,10.5C436.6,293,441.3,295.7,445.8,294.5z M449.3,329.1c4.7,0,8.6-3.8,8.6-8.6c0-4.7-3.8-8.6-8.6-8.6
			c-4.7,0-8.6,3.8-8.6,8.6C440.8,325.2,444.6,329.1,449.3,329.1z M441.4,363.1c4.6,1.2,9.3-1.5,10.5-6.1c1.2-4.6-1.5-9.3-6.1-10.5
			c-4.6-1.2-9.3,1.5-10.5,6.1C434.1,357.1,436.8,361.8,441.4,363.1z M427.9,393.6c4.1,2.4,9.3,1,11.7-3.1c2.4-4.1,1-9.3-3.1-11.7
			s-9.3-1-11.7,3.1S423.8,391.3,427.9,393.6z M403.3,418c3.3,3.3,8.8,3.3,12.1,0c3.3-3.3,3.3-8.8,0-12.1c-3.3-3.3-8.8-3.3-12.1,0
			S399.9,414.6,403.3,418z M376.2,436.2c2.4,4.1,7.6,5.5,11.7,3.1s5.5-7.6,3.1-11.7c-2.4-4.1-7.6-5.5-11.7-3.1
			S373.8,432.1,376.2,436.2z M343.9,448.4c1.2,4.6,5.9,7.3,10.5,6.1c4.6-1.2,7.3-5.9,6.1-10.5c-1.2-4.6-5.9-7.3-10.5-6.1
			C345.4,439.2,342.7,443.9,343.9,448.4z M309.3,449.1c0,4.7,3.8,8.6,8.6,8.6c4.7,0,8.6-3.8,8.6-8.6c0-4.7-3.8-8.6-8.6-8.6
			C313.1,440.5,309.3,444.4,309.3,449.1z M278.2,444c-1.2,4.6,1.5,9.3,6.1,10.5c4.6,1.2,9.3-1.5,10.5-6.1c1.2-4.6-1.5-9.3-6.1-10.5
			C284.1,436.7,279.4,439.4,278.2,444z M247.6,427.7c-2.4,4.1-1,9.3,3.1,11.7s9.3,1,11.7-3.1s1-9.3-3.1-11.7
			C255.2,422.1,249.9,423.6,247.6,427.7z M220.4,405.9c-3.3,3.3-3.3,8.8,0,12.1c3.3,3.3,8.8,3.3,12.1,0c3.3-3.3,3.3-8.8,0-12.1
			C229.1,402.5,223.7,402.5,220.4,405.9z M202.1,378.8c-4.1,2.4-5.5,7.6-3.1,11.7s7.6,5.5,11.7,3.1c4.1-2.4,5.5-7.6,3.1-11.7
			C211.5,377.8,206.2,376.4,202.1,378.8z M192.8,346.5c-4.6,1.2-7.3,5.9-6.1,10.5c1.2,4.6,5.9,7.3,10.5,6.1
			c4.6-1.2,7.3-5.9,6.1-10.5S197.3,345.3,192.8,346.5z M140.7,311.9c-4.7,0-8.6,3.8-8.6,8.6c0,4.7,3.8,8.6,8.6,8.6
			c4.7,0,8.6-3.8,8.6-8.6C149.3,315.7,145.4,311.9,140.7,311.9z M86.4,311.9c-4.7,0-8.6,3.8-8.6,8.6c0,4.7,3.8,8.6,8.6,8.6
			c4.7,0,8.6-3.8,8.6-8.6C95,315.7,91.1,311.9,86.4,311.9z M32.1,311.9c-4.7,0-8.6,3.8-8.6,8.6c0,4.7,3.8,8.6,8.6,8.6
			s8.6-3.8,8.6-8.6C40.7,315.7,36.8,311.9,32.1,311.9z M45.7,237.9c-4.6-1.2-9.3,1.5-10.5,6.1c-1.2,4.6,1.5,9.3,6.1,10.5
			s9.3-1.5,10.5-6.1C53,243.8,50.3,239.1,45.7,237.9z M76.4,170.2c-4.1-2.4-9.3-1-11.7,3.1c-2.4,4.1-1,9.3,3.1,11.7
			c4.1,2.4,9.3,1,11.7-3.1C81.9,177.8,80.5,172.5,76.4,170.2z M123.9,111.5c-3.3-3.3-8.8-3.3-12.1,0c-3.3,3.3-3.3,8.8,0,12.1
			c3.3,3.3,8.8,3.3,12.1,0C127.2,120.3,127.2,114.8,123.9,111.5z M182.4,67.5c-2.4-4.1-7.6-5.5-11.7-3.1s-5.5,7.6-3.1,11.7
			c2.4,4.1,7.6,5.5,11.7,3.1C183.4,76.9,184.8,71.6,182.4,67.5z M254.7,41c-1.2-4.6-5.9-7.3-10.5-6.1c-4.6,1.2-7.3,5.9-6.1,10.5
			c1.2,4.6,5.9,7.3,10.5,6.1C253.2,50.3,255.9,45.6,254.7,41z M326.5,34.7c0-4.7-3.8-8.6-8.6-8.6c-4.7,0-8.6,3.8-8.6,8.6
			s3.8,8.6,8.6,8.6C322.6,43.3,326.5,39.4,326.5,34.7z M400.5,45.5c1.2-4.6-1.5-9.3-6.1-10.5c-4.6-1.2-9.3,1.5-10.5,6.1
			c-1.2,4.6,1.5,9.3,6.1,10.5C394.5,52.8,399.2,50,400.5,45.5z M471.1,76.1c2.4-4.1,1-9.3-3.1-11.7s-9.3-1-11.7,3.1
			c-2.4,4.1-1,9.3,3.1,11.7C463.4,81.6,468.7,80.2,471.1,76.1z M526.9,123.6c3.3-3.3,3.3-8.8,0-12.1c-3.3-3.3-8.8-3.3-12.1,0
			c-3.3,3.3-3.3,8.8,0,12.1C518.1,127,523.5,127,526.9,123.6z M570.8,185c4.1-2.4,5.5-7.6,3.1-11.7c-2.4-4.1-7.6-5.5-11.7-3.1
			s-5.5,7.6-3.1,11.7C561.5,186,566.7,187.4,570.8,185z M597.3,254.4c4.6-1.2,7.3-5.9,6.1-10.5c-1.2-4.6-5.9-7.3-10.5-6.1
			s-7.3,5.9-6.1,10.5C588,253,592.7,255.7,597.3,254.4z M606.5,329.1c4.7,0,8.6-3.8,8.6-8.6c0-4.7-3.8-8.6-8.6-8.6s-8.6,3.8-8.6,8.6
			C598,325.2,601.8,329.1,606.5,329.1z M592.9,403.1c4.6,1.2,9.3-1.5,10.5-6.1c1.2-4.6-1.5-9.3-6.1-10.5c-4.6-1.2-9.3,1.5-10.5,6.1
			S588.3,401.8,592.9,403.1z M562.2,470.8c4.1,2.4,9.3,1,11.7-3.1s1-9.3-3.1-11.7s-9.3-1-11.7,3.1
			C556.7,463.2,558.1,468.4,562.2,470.8z M514.7,529.5c3.3,3.3,8.8,3.3,12.1,0s3.3-8.8,0-12.1s-8.8-3.3-12.1,0
			S511.4,526.1,514.7,529.5z M456.2,573.4c2.4,4.1,7.6,5.5,11.7,3.1c4.1-2.4,5.5-7.6,3.1-11.7c-2.4-4.1-7.6-5.5-11.7-3.1
			C455.2,564.1,453.8,569.3,456.2,573.4z M383.9,599.9c1.2,4.6,5.9,7.3,10.5,6.1c4.6-1.2,7.3-5.9,6.1-10.5s-5.9-7.3-10.5-6.1
			S382.7,595.3,383.9,599.9z M309.3,606.3c0,4.7,3.8,8.6,8.6,8.6c4.7,0,8.6-3.8,8.6-8.6s-3.8-8.6-8.6-8.6
			C313.1,597.7,309.3,601.5,309.3,606.3z M238.1,595.5c-1.2,4.6,1.5,9.3,6.1,10.5c4.6,1.2,9.3-1.5,10.5-6.1
			c1.2-4.6-1.5-9.3-6.1-10.5C244.1,588.2,239.4,590.9,238.1,595.5z M167.6,564.8c-2.4,4.1-1,9.3,3.1,11.7c4.1,2.4,9.3,1,11.7-3.1
			s1-9.3-3.1-11.7C175.2,559.3,169.9,560.7,167.6,564.8z M111.8,517.3c-3.3,3.3-3.3,8.8,0,12.1c3.3,3.3,8.8,3.3,12.1,0
			c3.3-3.3,3.3-8.8,0-12.1C120.5,514,115.1,514,111.8,517.3z M67.8,456c-4.1,2.4-5.5,7.6-3.1,11.7c2.4,4.1,7.6,5.5,11.7,3.1
			c4.1-2.4,5.5-7.6,3.1-11.7C77.2,455,71.9,453.6,67.8,456z M41.3,386.5c-4.6,1.2-7.3,5.9-6.1,10.5c1.2,4.6,5.9,7.3,10.5,6.1
			c4.6-1.2,7.3-5.9,6.1-10.5C50.6,388,45.9,385.3,41.3,386.5z M97.2,252.2c-4.6-1.2-9.3,1.5-10.5,6.1c-1.2,4.6,1.5,9.3,6.1,10.5
			c4.6,1.2,9.3-1.5,10.5-6.1C104.5,258.1,101.7,253.4,97.2,252.2z M122.1,195.9c-4.1-2.4-9.3-1-11.7,3.1s-1,9.3,3.1,11.7
			s9.3,1,11.7-3.1C127.6,203.5,126.2,198.2,122.1,195.9z M161,151.5c-3.3-3.3-8.8-3.3-12.1,0c-3.3,3.3-3.3,8.8,0,12.1
			c3.3,3.3,8.8,3.3,12.1,0C164.4,160.3,164.4,154.9,161,151.5z M211,116.1c-2.4-4.1-7.6-5.5-11.7-3.1s-5.5,7.6-3.1,11.7
			s7.6,5.5,11.7,3.1S213.4,120.2,211,116.1z M266.1,95.3c-1.2-4.6-5.9-7.3-10.5-6.1c-4.6,1.2-7.3,5.9-6.1,10.5s5.9,7.3,10.5,6.1
			C264.7,104.6,267.4,99.9,266.1,95.3z M326.5,89c0-4.7-3.8-8.6-8.6-8.6c-4.7,0-8.6,3.8-8.6,8.6c0,4.7,3.8,8.6,8.6,8.6
			C322.6,97.6,326.5,93.7,326.5,89z M386.2,99.8c1.2-4.6-1.5-9.3-6.1-10.5c-4.6-1.2-9.3,1.5-10.5,6.1c-1.2,4.6,1.5,9.3,6.1,10.5
			C380.3,107.1,385,104.3,386.2,99.8z M442.5,124.7c2.4-4.1,1-9.3-3.1-11.7s-9.3-1-11.7,3.1s-1,9.3,3.1,11.7
			S440.1,128.8,442.5,124.7z M489.7,163.6c3.3-3.3,3.3-8.8,0-12.1s-8.8-3.3-12.1,0s-3.3,8.8,0,12.1C480.9,167,486.4,167,489.7,163.6
			z M525.1,210.7c4.1-2.4,5.5-7.6,3.1-11.7c-2.4-4.1-7.6-5.5-11.7-3.1c-4.1,2.4-5.5,7.6-3.1,11.7C515.7,211.7,521,213.1,525.1,210.7
			z M545.9,268.7c4.6-1.2,7.3-5.9,6.1-10.5c-1.2-4.6-5.9-7.3-10.5-6.1c-4.6,1.2-7.3,5.9-6.1,10.5S541.3,270,545.9,268.7z
			 M552.2,329.1c4.7,0,8.6-3.8,8.6-8.6c0-4.7-3.8-8.6-8.6-8.6s-8.6,3.8-8.6,8.6C543.7,325.2,547.5,329.1,552.2,329.1z M541.4,388.8
			c4.6,1.2,9.3-1.5,10.5-6.1c1.2-4.6-1.5-9.3-6.1-10.5c-4.6-1.2-9.3,1.5-10.5,6.1S536.9,387.5,541.4,388.8z M516.5,445.1
			c4.1,2.4,9.3,1,11.7-3.1c2.4-4.1,1-9.3-3.1-11.7s-9.3-1-11.7,3.1C511,437.5,512.4,442.7,516.5,445.1z M477.6,489.4
			c3.3,3.3,8.8,3.3,12.1,0c3.3-3.3,3.3-8.8,0-12.1s-8.8-3.3-12.1,0S474.2,486.1,477.6,489.4z M427.6,524.8c2.4,4.1,7.6,5.5,11.7,3.1
			c4.1-2.4,5.5-7.6,3.1-11.7c-2.4-4.1-7.6-5.5-11.7-3.1C426.7,515.5,425.3,520.7,427.6,524.8z M369.6,545.6
			c1.2,4.6,5.9,7.3,10.5,6.1s7.3-5.9,6.1-10.5c-1.2-4.6-5.9-7.3-10.5-6.1C371.1,536.3,368.4,541,369.6,545.6z M309.3,552
			c0,4.7,3.8,8.6,8.6,8.6c4.7,0,8.6-3.8,8.6-8.6c0-4.7-3.8-8.6-8.6-8.6C313.1,543.4,309.3,547.2,309.3,552z M249.6,541.2
			c-1.2,4.6,1.5,9.3,6.1,10.5c4.6,1.2,9.3-1.5,10.5-6.1c1.2-4.6-1.5-9.3-6.1-10.5C255.5,533.9,250.8,536.6,249.6,541.2z
			 M196.1,516.2c-2.4,4.1-1,9.3,3.1,11.7c4.1,2.4,9.3,1,11.7-3.1c2.4-4.1,1-9.3-3.1-11.7C203.7,510.7,198.5,512.1,196.1,516.2z
			 M148.9,477.3c-3.3,3.3-3.3,8.8,0,12.1c3.3,3.3,8.8,3.3,12.1,0c3.3-3.3,3.3-8.8,0-12.1S152.3,474,148.9,477.3z M113.5,430.2
			c-4.1,2.4-5.5,7.6-3.1,11.7s7.6,5.5,11.7,3.1s5.5-7.6,3.1-11.7C122.9,429.3,117.6,427.9,113.5,430.2z M92.7,372.2
			c-4.6,1.2-7.3,5.9-6.1,10.5c1.2,4.6,5.9,7.3,10.5,6.1c4.6-1.2,7.3-5.9,6.1-10.5C102,373.7,97.3,371,92.7,372.2z M148.6,266.5
			c-4.6-1.2-9.3,1.5-10.5,6.1s1.5,9.3,6.1,10.5c4.6,1.2,9.3-1.5,10.5-6.1C155.9,272.4,153.2,267.7,148.6,266.5z M170.7,224.5
			c-4.1-2.4-9.3-1-11.7,3.1s-1,9.3,3.1,11.7c4.1,2.4,9.3,1,11.7-3.1C176.2,232.1,174.8,226.8,170.7,224.5z M198.2,188.7
			c-3.3-3.3-8.8-3.3-12.1,0c-3.3,3.3-3.3,8.8,0,12.1c3.3,3.3,8.8,3.3,12.1,0C201.5,197.4,201.5,192,198.2,188.7z M236.7,161.9
			c-2.4-4.1-7.6-5.5-11.7-3.1c-4.1,2.4-5.5,7.6-3.1,11.7c2.4,4.1,7.6,5.5,11.7,3.1S239.1,166,236.7,161.9z M280.4,146.8
			c-1.2-4.6-5.9-7.3-10.5-6.1s-7.3,5.9-6.1,10.5c1.2,4.6,5.9,7.3,10.5,6.1C278.9,156.1,281.7,151.4,280.4,146.8z M326.5,143.3
			c0-4.7-3.8-8.6-8.6-8.6c-4.7,0-8.6,3.8-8.6,8.6s3.8,8.6,8.6,8.6C322.6,151.9,326.5,148,326.5,143.3z M374.7,151.2
			c1.2-4.6-1.5-9.3-6.1-10.5s-9.3,1.5-10.5,6.1c-1.2,4.6,1.5,9.3,6.1,10.5C368.8,158.5,373.5,155.8,374.7,151.2z M416.8,170.4
			c2.4-4.1,1-9.3-3.1-11.7c-4.1-2.4-9.3-1-11.7,3.1c-2.4,4.1-1,9.3,3.1,11.7S414.4,174.5,416.8,170.4z M449.7,200.8
			c3.3-3.3,3.3-8.8,0-12.1s-8.8-3.3-12.1,0s-3.3,8.8,0,12.1C440.9,204.1,446.3,204.1,449.7,200.8z M476.5,239.3
			c4.1-2.4,5.5-7.6,3.1-11.7c-2.4-4.1-7.6-5.5-11.7-3.1c-4.1,2.4-5.5,7.6-3.1,11.7S472.4,241.7,476.5,239.3z M494.4,283
			c4.6-1.2,7.3-5.9,6.1-10.5c-1.2-4.6-5.9-7.3-10.5-6.1c-4.6,1.2-7.3,5.9-6.1,10.5C485.2,281.5,489.9,284.3,494.4,283z M497.9,329.1
			c4.7,0,8.6-3.8,8.6-8.6c0-4.7-3.8-8.6-8.6-8.6c-4.7,0-8.6,3.8-8.6,8.6C489.4,325.2,493.2,329.1,497.9,329.1z M490,374.5
			c4.6,1.2,9.3-1.5,10.5-6.1c1.2-4.6-1.5-9.3-6.1-10.5s-9.3,1.5-10.5,6.1C482.7,368.6,485.4,373.3,490,374.5z M467.9,416.5
			c4.1,2.4,9.3,1,11.7-3.1c2.4-4.1,1-9.3-3.1-11.7c-4.1-2.4-9.3-1-11.7,3.1S463.8,414.1,467.9,416.5z M437.6,452.3
			c3.3,3.3,8.8,3.3,12.1,0s3.3-8.8,0-12.1s-8.8-3.3-12.1,0S434.2,448.9,437.6,452.3z M401.9,479.1c2.4,4.1,7.6,5.5,11.7,3.1
			s5.5-7.6,3.1-11.7s-7.6-5.5-11.7-3.1S399.5,475,401.9,479.1z M358.2,494.2c1.2,4.6,5.9,7.3,10.5,6.1c4.6-1.2,7.3-5.9,6.1-10.5
			c-1.2-4.6-5.9-7.3-10.5-6.1C359.7,484.9,357,489.6,358.2,494.2z M309.3,497.7c0,4.7,3.8,8.6,8.6,8.6c4.7,0,8.6-3.8,8.6-8.6
			c0-4.7-3.8-8.6-8.6-8.6C313.1,489.1,309.3,492.9,309.3,497.7z M263.9,489.7c-1.2,4.6,1.5,9.3,6.1,10.5c4.6,1.2,9.3-1.5,10.5-6.1
			c1.2-4.6-1.5-9.3-6.1-10.5C269.8,482.5,265.1,485.2,263.9,489.7z M221.9,470.5c-2.4,4.1-1,9.3,3.1,11.7s9.3,1,11.7-3.1
			c2.4-4.1,1-9.3-3.1-11.7S224.2,466.4,221.9,470.5z M186.1,440.2c-3.3,3.3-3.3,8.8,0,12.1c3.3,3.3,8.8,3.3,12.1,0s3.3-8.8,0-12.1
			S189.4,436.8,186.1,440.2z M162.1,401.6c-4.1,2.4-5.5,7.6-3.1,11.7s7.6,5.5,11.7,3.1c4.1-2.4,5.5-7.6,3.1-11.7
			C171.5,400.7,166.2,399.3,162.1,401.6z M144.2,357.9c-4.6,1.2-7.3,5.9-6.1,10.5s5.9,7.3,10.5,6.1c4.6-1.2,7.3-5.9,6.1-10.5
			C153.5,359.4,148.8,356.7,144.2,357.9z"/>
	</g>
	<path class="st1" d="M357.6,288.7h-50.2c-4.3,0-7.4,1.2-9.5,3.6c-2.1,2.4-3.1,5.5-3.1,9.2c0,3.3,0.9,6.1,2.6,8.2
		c1.7,2.2,4.4,3.6,8.2,4.4v12.6c-3.3,0-6.5-0.7-9.4-2c-3-1.3-5.6-3.1-7.8-5.5c-2.2-2.3-4-5-5.3-8.1c-1.3-3.1-1.9-6.3-1.9-9.7
		c0-3.8,0.6-7.2,1.8-10.4c1.2-3.1,2.8-5.8,4.8-8c2-2.2,4.4-4,7.2-5.2c2.8-1.2,5.7-1.8,8.9-1.8h53.8V288.7z M282.6,352h50.1
		c4.3,0,7.4-1.2,9.5-3.6c2.1-2.4,3.1-5.5,3.1-9.2c0-3.2-0.9-5.9-2.6-8.1c-1.7-2.2-4.4-3.6-8.2-4.4v-12.8c3.3,0,6.5,0.7,9.4,2
		c3,1.3,5.6,3.1,7.8,5.5c2.2,2.3,4,5,5.3,8.1c1.3,3.1,2,6.3,2,9.7c0,3.8-0.6,7.2-1.8,10.4c-1.2,3.1-2.9,5.8-4.9,8
		c-2,2.2-4.4,4-7.2,5.2c-2.8,1.2-5.7,1.8-8.9,1.8h-53.7V352z"/>
</g>
</svg>
