<svg xmlns="http://www.w3.org/2000/svg" xmlns:xlink="http://www.w3.org/1999/xlink" width="353" height="34" viewBox="0 0 353 34"><defs><path id="r3kla" d="M245.54 178.58h18.93c1.61 0 2.8-.43 3.6-1.29a4.82 4.82 0 0 0 1.18-3.33c.03-1.06-.31-2.1-.97-2.94a5.12 5.12 0 0 0-3.14-1.62v-4.65a9.31 9.31 0 0 1 8.53 5.65 9.89 9.89 0 0 1 .07 7.3 8.38 8.38 0 0 1-7.93 5.47h-20.27zm28.36-23.01h-18.98a4.6 4.6 0 0 0-3.6 1.3 4.8 4.8 0 0 0-1.17 3.32 4.6 4.6 0 0 0 .97 3.01c.8.88 1.9 1.45 3.1 1.6v4.6a9.24 9.24 0 0 1-8.52-5.65 10.12 10.12 0 0 1-.03-7.3 8.12 8.12 0 0 1 4.56-4.8 8.5 8.5 0 0 1 3.36-.65h20.31z"/><path id="r3klb" d="M298.58 183.18v-11.24L284.84 151h5.95l10.14 15.27L311.42 151h5.9l-13.85 20.68v11.5h-4.89z"/><path id="r3klc" d="M335.85 156.93v26.25h-5.05V151h7.09l19 26.15V151h5.17v32.18h-6.82l-19.39-26.25z"/><path id="r3kld" d="M373.7 151h26.97v4.6h-11.14v27.58h-4.8v-27.59H373.7V151z"/><path id="r3kle" d="M438.3 170.24h-15.56v-4.6h15.58zM414.76 151h23.9v4.6H419.5v22.99h19.17v4.59h-23.9z"/><path id="r3klf" d="M475.62 183.18l-9.28-17.53h6.05c.62.01 1.24-.15 1.77-.47.5-.3.92-.71 1.23-1.19a4.9 4.9 0 0 0 .67-1.6 5.61 5.61 0 0 0-.07-3.38 7.37 7.37 0 0 0-.8-1.67c-.33-.5-.76-.95-1.27-1.29a3.1 3.1 0 0 0-1.72-.48h-15.03v27.6h-5.03V151h20.81c1.15 0 2.3.25 3.32.75 1.05.5 1.98 1.2 2.74 2.06.81.92 1.45 1.98 1.87 3.12a10.69 10.69 0 0 1 .11 7.15c-.36 1.02-.88 1.99-1.55 2.86a9.13 9.13 0 0 1-2.3 2.14c-.88.55-1.86.93-2.9 1.1l6.87 13z"/><path id="r3klg" d="M494.43 183.18V151h5.52v32.18z"/><path id="r3klh" d="M512.2 151h4.85v17.52c.16 1.36.6 2.67 1.28 3.85a11.87 11.87 0 0 0 6.03 5.23 11.25 11.25 0 0 0 8.18 0 11.63 11.63 0 0 0 7.24-9.08V151h4.9v16.1c.01 2.14-.42 4.27-1.28 6.24a16 16 0 0 1-8.57 8.53 16.29 16.29 0 0 1-21.32-8.53c-.86-1.97-1.3-4.1-1.28-6.25z"/><path id="r3kli" d="M564.96 157.5v24.98H560V151h7.1l11.82 23.62L590.79 151h7.2v31.48h-4.9v-25.19L578.91 185l-13.96-27.5z"/></defs><g><g transform="translate(-245 -151)"><g><use fill="#fff" xlink:href="#r3kla"/></g><g><use fill="#fff" xlink:href="#r3klb"/></g><g><use fill="#fff" xlink:href="#r3klc"/></g><g><use fill="#fff" xlink:href="#r3kld"/></g><g><use fill="#fff" xlink:href="#r3kle"/></g><g><use fill="#fff" xlink:href="#r3klf"/></g><g><use fill="#fff" xlink:href="#r3klg"/></g><g><use fill="#fff" xlink:href="#r3klh"/></g><g><use fill="#fff" xlink:href="#r3kli"/></g></g></g></svg>