<svg xmlns="http://www.w3.org/2000/svg" width="197" height="100" viewBox="0 0 197 100">
    <defs>
        <radialGradient id="a" cy="50.928%" r="49.072%" fx="50%" fy="50.928%" gradientTransform="matrix(0 .9904 -1 0 1.01 .014)">
            <stop offset="0%" stop-color="#51B748"/>
            <stop offset="37.913%" stop-color="#51B748"/>
            <stop offset="68.584%" stop-color="#C6E8FA"/>
            <stop offset="100%" stop-color="#07789C"/>
        </radialGradient>
    </defs>
    <g fill="none" fill-rule="evenodd">
        <path fill="#FFFFFE" d="M.289 96.07h10.186c.866 0 1.51-.24 1.933-.72.423-.479.635-1.086.635-1.82 0-.638-.173-1.174-.52-1.607-.346-.432-.904-.724-1.673-.875V88.51c.673 0 1.313.131 1.919.395a4.99 4.99 0 0 1 1.587 1.085c.452.462.813.998 1.082 1.609.27.61.404 1.255.404 1.932 0 .752-.125 1.439-.375 2.06a5.086 5.086 0 0 1-.996 1.593A4.35 4.35 0 0 1 13 98.214a4.504 4.504 0 0 1-1.804.367H.29V96.07zm15.265-12.582H5.338c-.865 0-1.51.24-1.933.72-.423.479-.635 1.085-.635 1.819 0 .658.173 1.204.52 1.636.346.433.904.724 1.673.875v2.51a4.762 4.762 0 0 1-1.919-.394 4.966 4.966 0 0 1-1.587-1.087A5.133 5.133 0 0 1 .39 87.96 4.89 4.89 0 0 1 0 86.027c0-.752.12-1.439.36-2.06.24-.62.568-1.151.982-1.593a4.346 4.346 0 0 1 1.471-1.03 4.518 4.518 0 0 1 1.804-.367h10.937v2.511zM29.994 98.58v-6.149l-7.698-11.454h3.336l5.673 8.35 5.874-8.35h3.306L32.731 92.29v6.29h-2.737M49.101 84.222V98.58h-2.748V80.977h3.86L60.561 95.28V80.977h2.807v17.604h-3.713L49.1 84.22M86.838 80.977v2.511h-6.544v15.093h-2.813V83.488h-6.485v-2.51zM98.955 91.5h8.809v-2.51h-8.809v2.51zm-4.489-10.523h13.495v2.511H97.137V96.07h10.824v2.51H94.466V80.978zM128.813 98.58l-4.992-9.59h3.262c.366 0 .682-.085.952-.255.268-.17.49-.385.662-.649.175-.263.299-.554.376-.874.077-.32.116-.62.116-.903 0-.3-.054-.616-.16-.945a3.828 3.828 0 0 0-.432-.917 2.37 2.37 0 0 0-.677-.691 1.634 1.634 0 0 0-.925-.268h-8.109v15.093h-2.71V80.977h11.195c.634 0 1.23.137 1.79.41a4.742 4.742 0 0 1 1.472 1.128c.422.48.76 1.048 1.009 1.707.25.658.376 1.363.376 2.115 0 .621-.103 1.218-.304 1.792a5.77 5.77 0 0 1-.837 1.565c-.357.47-.774.86-1.256 1.17a4.105 4.105 0 0 1-1.557.607l3.694 7.11h-2.945M138.472 98.58h2.934V80.978h-2.934zM149.034 80.977h2.721v9.602a5.53 5.53 0 0 0 .715 2.106 6.56 6.56 0 0 0 1.434 1.712c.572.487 1.222.87 1.947 1.151.726.281 1.49.422 2.292.422.803 0 1.564-.14 2.29-.422a6.448 6.448 0 0 0 3.337-2.864 5.69 5.69 0 0 0 .703-2.105v-9.602h2.75v8.816a8.28 8.28 0 0 1-.716 3.425 9.03 9.03 0 0 1-1.934 2.794 8.979 8.979 0 0 1-2.878 1.881 9.2 9.2 0 0 1-3.552.688 9.18 9.18 0 0 1-3.552-.688 9.105 9.105 0 0 1-2.892-1.881 8.903 8.903 0 0 1-1.95-2.794 8.28 8.28 0 0 1-.715-3.425v-8.816M177.686 84.565v13.799h-2.836V80.977h4.061l6.751 13.047 6.777-13.047h4.12v17.387h-2.804v-13.91l-8.093 15.3-7.976-15.189"/>
        <path fill="url(#a)" d="M79.958 34.793a.862.862 0 0 0-.603 1.054c.122.46.59.732 1.044.609a.862.862 0 0 0 .603-1.055.852.852 0 0 0-1.044-.608zm1.636 4.576a.865.865 0 0 0-.312 1.175.848.848 0 0 0 1.165.315.865.865 0 0 0 .312-1.176.848.848 0 0 0-1.165-.314zm2.754 3.991a.867.867 0 0 0 0 1.218.847.847 0 0 0 1.205 0 .867.867 0 0 0 0-1.218.847.847 0 0 0-1.205 0zm3.682 3.137a.866.866 0 0 0 .313 1.176.848.848 0 0 0 1.164-.315.865.865 0 0 0-.312-1.176.848.848 0 0 0-1.165.315zm4.362 2.067a.862.862 0 0 0 .603 1.055.861.861 0 0 0 .441-1.663.852.852 0 0 0-1.044.608zm4.742.857c0 .476.382.861.853.861.47 0 .852-.385.852-.86a.857.857 0 0 0-.852-.861.857.857 0 0 0-.853.86zm4.801-.411c.122.46.59.732 1.044.609a.862.862 0 0 0 .603-1.055.852.852 0 0 0-1.044-.608.861.861 0 0 0-.603 1.054zm4.531-1.652a.849.849 0 0 0 1.165.315.864.864 0 0 0 .313-1.176.849.849 0 0 0-1.166-.315.869.869 0 0 0-.312 1.176zm3.956-2.78a.844.844 0 0 0 1.203 0 .867.867 0 0 0 0-1.218.844.844 0 0 0-1.203 0 .862.862 0 0 0 0 1.218zm3.105-3.719a.849.849 0 0 0 1.166-.315.868.868 0 0 0-.313-1.175.849.849 0 0 0-1.165.314.864.864 0 0 0 .312 1.176zm2.047-4.403a.854.854 0 0 0 1.046-.609.863.863 0 0 0-.605-1.054.851.851 0 0 0-1.043.608.861.861 0 0 0 .602 1.055zm.85-4.789c.47 0 .85-.385.85-.86 0-.476-.38-.861-.85-.861a.856.856 0 0 0-.853.86c0 .476.38.861.853.861zm-.409-4.847a.863.863 0 0 0 .605-1.054.854.854 0 0 0-1.046-.609.861.861 0 0 0-.602 1.054c.122.46.589.732 1.043.609zm-1.635-4.575a.869.869 0 0 0 .313-1.176.849.849 0 0 0-1.166-.315.864.864 0 0 0-.312 1.176.849.849 0 0 0 1.165.315zm-2.755-3.993a.867.867 0 0 0 0-1.217.844.844 0 0 0-1.203 0 .862.862 0 0 0 0 1.217.844.844 0 0 0 1.203 0zm-3.681-3.136a.864.864 0 0 0-.313-1.176.849.849 0 0 0-1.165.315.868.868 0 0 0 .312 1.176.849.849 0 0 0 1.166-.315zm-4.362-2.067a.862.862 0 0 0-.603-1.055.852.852 0 0 0-1.044.61.862.862 0 0 0 .603 1.053.852.852 0 0 0 1.044-.608zm-4.743-.857a.857.857 0 0 0-.852-.861.857.857 0 0 0-.853.86c0 .476.382.861.853.861.47 0 .852-.385.852-.86zm-4.8.411a.852.852 0 0 0-1.044-.609.862.862 0 0 0-.603 1.055c.122.459.59.732 1.044.608a.862.862 0 0 0 .603-1.054zm-4.532 1.652a.848.848 0 0 0-1.164-.315.865.865 0 0 0-.313 1.176.848.848 0 0 0 1.165.315.865.865 0 0 0 .312-1.176zm-3.954 2.78a.847.847 0 0 0-1.205 0 .867.867 0 0 0 0 1.217.847.847 0 0 0 1.205 0 .867.867 0 0 0 0-1.217zm-3.106 3.719a.848.848 0 0 0-1.165.315.865.865 0 0 0 .312 1.176.848.848 0 0 0 1.165-.315.865.865 0 0 0-.312-1.176zm-2.048 4.403a.852.852 0 0 0-1.044.609.861.861 0 0 0 .603 1.054.852.852 0 0 0 1.044-.609.862.862 0 0 0-.603-1.054zM74.54 36.26a.862.862 0 0 0-.604 1.054c.122.46.59.732 1.044.609a.861.861 0 0 0-.44-1.663zm2.196 5.942a.865.865 0 0 0-.312 1.176.848.848 0 0 0 1.165.315.865.865 0 0 0 .312-1.176.848.848 0 0 0-1.165-.315zm3.645 5.166a.867.867 0 0 0 0 1.217.847.847 0 0 0 1.206 0 .866.866 0 0 0 0-1.217.846.846 0 0 0-1.206 0zm4.845 4.036a.865.865 0 0 0 .312 1.176.848.848 0 0 0 1.165-.315.866.866 0 0 0-.313-1.176.848.848 0 0 0-1.164.315zm5.715 2.634a.862.862 0 0 0 .602 1.054.852.852 0 0 0 1.045-.609.862.862 0 0 0-.603-1.054.852.852 0 0 0-1.044.609zm6.194 1.05c0 .475.382.86.853.86.47 0 .852-.385.852-.86a.857.857 0 0 0-.852-.861.857.857 0 0 0-.853.86zm6.253-.605c.122.46.59.732 1.045.609a.861.861 0 0 0 .602-1.054.851.851 0 0 0-1.044-.61.862.862 0 0 0-.603 1.055zm5.885-2.218a.849.849 0 0 0 1.165.315.864.864 0 0 0 .312-1.176.849.849 0 0 0-1.165-.315.869.869 0 0 0-.312 1.176zm5.116-3.68a.847.847 0 0 0 1.206 0 .867.867 0 0 0 0-1.217.847.847 0 0 0-1.206 0 .867.867 0 0 0 0 1.217zm3.999-4.892a.85.85 0 0 0 1.165-.315.868.868 0 0 0-.312-1.176.849.849 0 0 0-1.165.315.864.864 0 0 0 .312 1.176zm2.607-5.77a.851.851 0 0 0 1.044-.609.861.861 0 0 0-.602-1.054.851.851 0 0 0-1.043.609.861.861 0 0 0 .601 1.054zm1.042-6.255c.47 0 .85-.385.85-.86 0-.476-.38-.861-.85-.861a.856.856 0 0 0-.854.86c0 .476.381.861.854.861zm-.6-6.313a.861.861 0 0 0 .602-1.054.851.851 0 0 0-1.044-.61.861.861 0 0 0-.601 1.055c.122.46.589.732 1.043.609zm-2.196-5.942a.869.869 0 0 0 .312-1.176.85.85 0 0 0-1.165-.315.864.864 0 0 0-.312 1.176.849.849 0 0 0 1.165.315zm-3.646-5.166a.867.867 0 0 0 0-1.217.847.847 0 0 0-1.206 0 .867.867 0 0 0 0 1.217.847.847 0 0 0 1.206 0zm-4.845-4.037a.864.864 0 0 0-.312-1.175.849.849 0 0 0-1.165.315.868.868 0 0 0 .312 1.175.849.849 0 0 0 1.165-.315zm-5.715-2.633a.861.861 0 0 0-.602-1.054.853.853 0 0 0-1.045.609.862.862 0 0 0 .603 1.054.851.851 0 0 0 1.044-.609zm-6.195-1.05a.857.857 0 0 0-.852-.86.857.857 0 0 0-.853.86c0 .476.382.861.853.861.47 0 .852-.385.852-.86zm-6.252.605a.852.852 0 0 0-1.045-.609.862.862 0 0 0-.602 1.054c.122.46.589.732 1.044.609a.862.862 0 0 0 .603-1.054zm-5.885 2.218a.848.848 0 0 0-1.165-.315.865.865 0 0 0-.312 1.175.848.848 0 0 0 1.164.315.865.865 0 0 0 .313-1.175zm-5.116 3.68a.847.847 0 0 0-1.206 0 .867.867 0 0 0 0 1.217.847.847 0 0 0 1.206 0 .866.866 0 0 0 0-1.217zm-3.998 4.892a.848.848 0 0 0-1.165.315.865.865 0 0 0 .312 1.176.848.848 0 0 0 1.165-.315.866.866 0 0 0-.312-1.176zm-2.609 5.77a.852.852 0 0 0-1.044.609.862.862 0 0 0 .603 1.054.851.851 0 0 0 1.044-.609.862.862 0 0 0-.603-1.054zm-5.86 14.035a.862.862 0 0 0-.603 1.054c.121.459.589.731 1.044.608a.862.862 0 0 0 .602-1.054.852.852 0 0 0-1.044-.608zm2.757 7.308a.865.865 0 0 0-.312 1.176.848.848 0 0 0 1.164.315.865.865 0 0 0 .312-1.176.848.848 0 0 0-1.164-.315zm4.537 6.339a.866.866 0 0 0 0 1.217.846.846 0 0 0 1.205 0 .867.867 0 0 0 0-1.217.847.847 0 0 0-1.205 0zm6.006 4.937a.865.865 0 0 0 .312 1.176.848.848 0 0 0 1.165-.316.865.865 0 0 0-.312-1.175.848.848 0 0 0-1.165.315zm7.068 3.199a.862.862 0 0 0 .603 1.054.852.852 0 0 0 1.044-.608.862.862 0 0 0-.603-1.055.852.852 0 0 0-1.044.609zm7.647 1.243c0 .475.382.861.853.861.47 0 .852-.386.852-.86a.857.857 0 0 0-.852-.862.857.857 0 0 0-.853.861zm7.704-.797a.854.854 0 0 0 1.047.608.861.861 0 0 0 .601-1.054.851.851 0 0 0-1.043-.609.863.863 0 0 0-.605 1.055zm7.24-2.785a.849.849 0 0 0 1.165.316.864.864 0 0 0 .312-1.176.849.849 0 0 0-1.165-.315.868.868 0 0 0-.313 1.175zm6.278-4.58a.847.847 0 0 0 1.206 0 .867.867 0 0 0 0-1.217.847.847 0 0 0-1.206 0 .867.867 0 0 0 0 1.217zm4.89-6.065a.846.846 0 0 0 1.164-.315.864.864 0 0 0-.313-1.176.847.847 0 0 0-1.163.315.864.864 0 0 0 .313 1.176zm3.17-7.137a.851.851 0 0 0 1.043-.608.86.86 0 0 0-.604-1.054.851.851 0 0 0-1.044.608.86.86 0 0 0 .604 1.054zm1.23-7.72c.47 0 .851-.386.851-.861 0-.476-.38-.861-.85-.861a.856.856 0 0 0-.853.86c0 .476.38.861.853.861zm-.791-7.78a.86.86 0 0 0 .604-1.055.851.851 0 0 0-1.044-.608.86.86 0 0 0-.604 1.054c.122.459.59.731 1.044.608zm-2.758-7.309a.864.864 0 0 0 .313-1.176.846.846 0 0 0-1.163-.315.864.864 0 0 0-.313 1.176.847.847 0 0 0 1.163.315zm-4.535-6.339a.867.867 0 0 0 0-1.217.847.847 0 0 0-1.206 0 .867.867 0 0 0 0 1.217.847.847 0 0 0 1.206 0zm-6.007-4.937a.864.864 0 0 0-.312-1.176.849.849 0 0 0-1.166.316.868.868 0 0 0 .313 1.175.849.849 0 0 0 1.165-.315zm-7.069-3.199a.861.861 0 0 0-.601-1.054.854.854 0 0 0-1.047.608c-.121.46.15.932.605 1.055a.851.851 0 0 0 1.043-.609zM98.84.861A.857.857 0 0 0 97.987 0a.857.857 0 0 0-.853.86c0 .476.382.861.853.861.47 0 .852-.385.852-.86zm-7.705.797a.852.852 0 0 0-1.044-.608.862.862 0 0 0-.603 1.054c.122.46.59.732 1.044.609a.862.862 0 0 0 .603-1.055zm-7.238 2.785a.848.848 0 0 0-1.165-.316.865.865 0 0 0-.312 1.176.848.848 0 0 0 1.165.315.865.865 0 0 0 .312-1.175zm-6.278 4.58a.847.847 0 0 0-1.205 0 .867.867 0 0 0 0 1.217.847.847 0 0 0 1.205 0 .867.867 0 0 0 0-1.217zm-4.89 6.065a.848.848 0 0 0-1.164.315.866.866 0 0 0 .312 1.176.848.848 0 0 0 1.164-.315.865.865 0 0 0-.312-1.176zm-3.168 7.137a.852.852 0 0 0-1.044.608.862.862 0 0 0 .602 1.054.852.852 0 0 0 1.044-.608.862.862 0 0 0-.602-1.054zm-1.232 7.72a.857.857 0 0 0-.852.862c0 .475.382.86.852.86.471 0 .853-.385.853-.86a.857.857 0 0 0-.853-.861zm5.611 0a.857.857 0 0 0-.852.862c0 .475.382.86.852.86.471 0 .853-.385.853-.86a.857.857 0 0 0-.853-.861zm5.612 0a.857.857 0 0 0-.853.862c0 .475.382.86.853.86a.857.857 0 0 0 .852-.86.857.857 0 0 0-.852-.861zm5.254 3.537a.862.862 0 0 0-.602 1.054c.121.46.589.732 1.044.609a.862.862 0 0 0 .603-1.055.852.852 0 0 0-1.045-.608zm1.135 3.353a.866.866 0 0 0-.312 1.176.848.848 0 0 0 1.165.315.866.866 0 0 0 .312-1.176.848.848 0 0 0-1.165-.315zm1.956 2.943a.867.867 0 0 0 0 1.217.847.847 0 0 0 1.206 0 .866.866 0 0 0 0-1.217.846.846 0 0 0-1.206 0zm2.644 2.331a.865.865 0 0 0 .312 1.176.848.848 0 0 0 1.164-.315.865.865 0 0 0-.312-1.176.848.848 0 0 0-1.164.315zm3.15 1.561a.862.862 0 0 0 .604 1.054.852.852 0 0 0 1.044-.608.862.862 0 0 0-.603-1.055.852.852 0 0 0-1.044.61zm3.444.684c0 .476.382.861.853.861.47 0 .852-.385.852-.86a.857.857 0 0 0-.852-.861.857.857 0 0 0-.853.86zm3.502-.238c.122.459.59.731 1.044.608a.862.862 0 0 0 .603-1.054.852.852 0 0 0-1.044-.609.862.862 0 0 0-.603 1.055zm3.321-1.146a.849.849 0 0 0 1.166.315.868.868 0 0 0 .312-1.176.849.849 0 0 0-1.165-.315.865.865 0 0 0-.313 1.176zm2.915-1.975a.847.847 0 0 0 1.206 0 .867.867 0 0 0 0-1.217.847.847 0 0 0-1.206 0 .867.867 0 0 0 0 1.217zm2.308-2.669a.849.849 0 0 0 1.166-.315.864.864 0 0 0-.313-1.176.85.85 0 0 0-1.165.315.869.869 0 0 0 .312 1.176zm1.547-3.181a.851.851 0 0 0 1.043-.61.861.861 0 0 0-.602-1.053.851.851 0 0 0-1.043.608.861.861 0 0 0 .602 1.055zm.677-3.478a.856.856 0 0 0 .854-.86c0-.476-.381-.861-.854-.861a.858.858 0 0 0-.853.86c0 .476.384.861.853.861zm-.236-3.536a.861.861 0 0 0 .602-1.054.851.851 0 0 0-1.043-.609.861.861 0 0 0-.602 1.055c.122.459.589.732 1.043.608zm-1.135-3.353a.864.864 0 0 0 .313-1.176.849.849 0 0 0-1.166-.315.869.869 0 0 0-.312 1.176.85.85 0 0 0 1.165.315zm-1.955-2.943a.867.867 0 0 0 0-1.217.847.847 0 0 0-1.206 0 .867.867 0 0 0 0 1.217.847.847 0 0 0 1.206 0zm-2.643-2.331a.868.868 0 0 0-.312-1.176.849.849 0 0 0-1.166.315.864.864 0 0 0 .313 1.176.849.849 0 0 0 1.165-.315zm-3.152-1.561a.862.862 0 0 0-.603-1.054.852.852 0 0 0-1.044.608.861.861 0 0 0 .603 1.054.852.852 0 0 0 1.044-.608zm-3.444-.685a.857.857 0 0 0-.852-.86.857.857 0 0 0-.853.86c0 .476.382.861.853.861.47 0 .852-.385.852-.86zm-3.501.24a.852.852 0 0 0-1.044-.61.862.862 0 0 0-.603 1.055c.122.459.59.732 1.044.608a.862.862 0 0 0 .603-1.054zm-3.322 1.145a.848.848 0 0 0-1.164-.315.865.865 0 0 0-.312 1.176.848.848 0 0 0 1.164.315.865.865 0 0 0 .312-1.176zm-2.914 1.975a.846.846 0 0 0-1.206 0 .867.867 0 0 0 0 1.217.846.846 0 0 0 1.206 0 .866.866 0 0 0 0-1.217zm-2.31 2.669a.848.848 0 0 0-1.164.315.865.865 0 0 0 .312 1.176.848.848 0 0 0 1.165-.315.865.865 0 0 0-.312-1.176zm-1.545 3.181a.852.852 0 0 0-1.044.61.862.862 0 0 0 .602 1.053.852.852 0 0 0 1.045-.608.862.862 0 0 0-.603-1.055zm-.678 3.478a.857.857 0 0 0-.853.86c0 .476.382.861.853.861.47 0 .852-.385.852-.86a.857.857 0 0 0-.852-.861z"/>
    </g>
</svg>
