<?xml version="1.0" encoding="UTF-8"?>
<svg width="170px" height="177px" viewBox="0 0 170 177" version="1.1" xmlns="http://www.w3.org/2000/svg" xmlns:xlink="http://www.w3.org/1999/xlink">
    <!-- Generator: Sketch 46.2 (44496) - http://www.bohemiancoding.com/sketch -->
    <title>Hand_1</title>
    <desc>Created with Sketch.</desc>
    <defs></defs>
    <g id="Symbols" stroke="none" stroke-width="1" fill="none" fill-rule="evenodd">
        <g id="Hand_1" fill="#FFFFFF">
            <g id="Page-1">
                <path d="M103.832507,134.484235 C103.832507,133.968788 103.82304,133.469534 103.834034,132.971197 C103.940923,128.165651 104.201427,123.383632 105.963871,118.827407 C107.651493,114.463367 109.974646,110.444283 112.687485,106.653438 C115.782681,102.328508 118.67601,97.9140543 120.118399,92.7079443 C120.860818,90.0289623 121.436796,87.3206485 121.514367,84.540227 C121.590106,81.8267189 121.518948,79.1281824 121.051997,76.4220073 C120.475408,73.0845849 119.455077,69.9011551 118.035898,66.8717178 C116.73216,64.088852 114.990177,61.5488911 112.976696,59.1888938 C106.769508,51.9139668 98.8728644,47.8539404 89.4507644,46.6803581 C83.506217,45.9403382 77.767507,46.8322118 72.206538,49.0296614 C66.410108,51.3199955 61.5423895,54.8786294 57.6036879,59.6924251 C54.5723199,63.3971076 52.3789606,67.5518517 51.0260531,72.1627682 C50.1743016,75.0657116 49.614204,78.0028755 49.5060935,81.0237576 C49.3830186,84.469036 49.6917747,87.8577892 50.5313104,91.2224048 C51.5782103,95.4196191 53.2920968,99.2938767 55.7264142,102.845789 C58.617605,107.064391 61.7011958,111.16811 63.7824745,115.875577 C64.7020241,117.955088 65.6157711,120.093874 66.0876091,122.301406 C66.6696952,125.023469 66.8321663,127.840556 67.0880887,130.624644 C67.2038341,131.885611 67.1079395,133.166438 67.1079395,134.484235 L103.832507,134.484235 Z M85.4210545,140.915259 C79.3900799,140.915259 73.3594106,140.922286 67.3287414,140.911898 C64.9099993,140.907315 62.8736139,140.066772 61.6593565,137.880627 C61.2000398,137.053528 60.9016672,136.056549 60.823791,135.113038 C60.5593174,131.903027 60.6643739,128.644739 60.1644395,125.477809 C59.7866637,123.085424 58.8463472,120.743148 57.8959525,118.488257 C56.2556667,114.596889 53.6713995,111.250606 51.276173,107.808994 C49.1017483,104.68545 47.2073723,101.407303 45.8617943,97.8520296 C43.6070503,91.8955112 42.6310023,85.7034209 43.125745,79.3515327 C43.7765455,70.993158 46.6408614,63.4056627 51.7348789,56.7415118 C55.8791125,51.3199955 61.0473414,47.106282 67.2520868,44.1785898 C70.0296701,42.8678197 72.890932,41.7813165 75.8709933,41.141514 C79.7715204,40.3043322 83.7138868,39.7934679 87.7548963,40.0803707 C92.0942785,40.3886614 96.3032563,41.2001779 100.365644,42.697939 C104.040482,44.052707 107.464591,45.9223113 110.626363,48.2496157 C114.602934,51.1763913 117.994059,54.669334 120.740187,58.7782469 C122.933851,62.0603665 124.645295,65.5695028 125.878487,69.3319325 C127.456471,74.1457282 128.212634,79.0698241 127.94816,84.1155252 C127.82081,86.5476302 127.488843,88.9849293 127.040521,91.3806749 C126.182356,95.9665371 124.477326,100.265802 122.037206,104.235083 C120.4467,106.822708 118.658602,109.288728 116.952351,111.804551 C114.9349,114.779297 113.182839,117.905896 111.914526,121.266234 C110.713706,124.44783 110.417472,127.812446 110.305696,131.188367 C110.2663,132.38242 110.255917,133.577696 110.244006,134.77236 C110.212245,137.957929 108.015526,140.493307 104.848562,140.82268 C103.191174,140.995616 101.511187,140.982172 99.8412774,140.988894 C95.0343328,141.008754 90.2276937,140.995921 85.4210545,140.995921 L85.4210545,140.915259 Z" id="Fill-1"></path>
                <path d="M85.9313259,151.995644 C79.7887545,151.995644 73.646183,151.989748 67.5036115,151.999989 C66.0330363,152.002162 64.7252452,151.67537 63.8015756,150.399238 C62.8411186,149.0719 62.7715292,147.612355 63.4444315,146.203396 C64.0989402,144.83323 65.3414337,144.157923 66.8353076,144.023855 C67.3705638,143.976062 67.9134841,144.014855 68.4527257,144.014855 C80.5582237,144.014855 92.6634151,144.012993 104.768606,144.016407 C107.920671,144.017027 109.793148,146.685049 108.673586,149.631138 C108.177263,150.936443 107.145377,151.674129 105.791602,151.905955 C105.293133,151.990989 104.77719,151.99192 104.268911,151.992231 C98.1563829,151.997817 92.0438544,151.995955 85.9313259,151.995644" id="Fill-3"></path>
                <path d="M86.076032,155.003929 C92.3385444,155.004238 98.6010567,154.991875 104.863876,155.009492 C107.941337,155.017837 109.778619,157.71719 108.679131,160.603526 C108.206477,161.844412 107.228678,162.551857 105.968268,162.835576 C105.447796,162.95302 104.899432,162.985471 104.363635,162.98609 C92.1678127,162.99567 79.9719906,162.993816 67.776475,162.999997 C66.2944503,163.000925 64.9043816,162.756765 63.9149347,161.51557 C62.8556012,160.187218 62.7372844,158.661067 63.4505567,157.189311 C64.1788485,155.686339 65.5572694,155.014437 67.1980716,155.010419 C73.4906229,154.99373 79.7831742,155.00362 86.076032,155.003929" id="Fill-5"></path>
                <path d="M84.9878341,165.0043 C90.2816854,165.003969 95.5758427,164.999669 100.87,165.008601 C101.630855,165.009924 102.528824,164.871981 102.891194,165.824349 C103.251116,166.76977 102.650022,167.550784 102.081064,168.117772 C99.5628346,170.626545 97.0201211,173.110178 94.4015057,175.493909 C93.8343838,176.009954 92.9336609,176.192224 92.1565846,176.32719 C87.7652926,177.09001 83.3629826,177.309329 78.9563878,176.428414 C78.4596589,176.328844 77.9528301,176.27757 77.4487558,176.232251 C75.3213603,176.042042 74.1757925,174.215044 72.7394716,172.89979 C71.1146201,171.412191 69.563222,169.830645 67.9836668,168.285156 C67.8113573,168.116449 67.5977302,167.944103 67.5215222,167.725115 C67.3023861,167.095937 66.8570746,166.308307 67.045299,165.836919 C67.2231176,165.391996 68.0901743,165.045319 68.6572962,165.039365 C74.1001967,164.981475 79.5440154,165.004631 84.9878341,165.0043" id="Fill-7"></path>
                <path d="M123,127.298044 C124.530209,125.769274 125.821238,124.491396 127.096062,123.197096 C127.459483,122.827904 127.645845,123.040478 127.920437,123.320261 C130.711665,126.163707 133.518198,128.991339 136.316929,131.827182 C138.889685,134.433421 141.414124,137.091054 144.0478,139.632517 C145.30972,140.850181 145.307319,143.065028 144.100318,144.21457 C142.965941,145.294776 141.118826,145.288998 139.857507,144.021459 C134.800525,138.93823 129.76515,133.833408 124.709969,128.748658 C124.223807,128.259342 123.657519,127.851832 123,127.298044" id="Fill-9"></path>
                <path d="M127.060123,45 C125.727457,43.5960355 124.400859,42.1981318 123,40.7223478 C123.969448,39.6911173 124.9597,38.6256437 125.962667,37.5732007 C130.162645,33.164637 134.369268,28.7630433 138.567223,24.3526614 C140.001023,22.8465739 141.442047,22.5895996 142.82268,23.6247697 C144.144365,24.6159995 144.424652,26.7387647 143.297146,27.9699988 C141.027684,30.4482249 138.70621,32.8740258 136.392828,35.3080087 C133.334227,38.5256419 130.262912,41.7302446 127.195065,44.9381807 C127.158946,44.9760602 127.094797,44.9848482 127.060123,45" id="Fill-11"></path>
                <path d="M44,40.6992893 C42.6270196,42.1106251 41.2815742,43.4935892 39.8161343,45 C38.1066476,43.1787853 36.3522355,41.2833215 34.5697087,39.4162294 C31.074507,35.7550868 27.5694506,32.1042062 24.0574381,28.4611732 C22.5554781,26.9034521 22.6624297,24.631612 24.3214839,23.469584 C25.3402777,22.7563705 26.92948,22.84722 27.8476987,23.7994792 C33.1854245,29.3340523 38.4990933,34.893677 43.8194286,40.4466614 C43.8953671,40.5260415 43.9495675,40.6274548 44,40.6992893" id="Fill-13"></path>
                <path d="M39.8606148,123 C41.1937543,124.425054 42.5133579,125.835273 44,127.424418 C43.0498969,128.355078 42.0182906,129.315407 41.0399637,130.332956 C37.8544256,133.646274 34.6881833,136.980482 31.514741,140.306819 C30.3293441,141.549616 29.1638191,142.813908 27.9545184,144.030366 C26.6176349,145.375493 25.0440177,145.30919 23.7045422,143.905632 C22.7230474,142.87688 22.7613511,140.900515 23.8551648,139.745214 C29.0975797,134.208485 34.3575624,128.689921 39.6135131,123.167725 C39.6906964,123.086587 39.8004234,123.039963 39.8606148,123" id="Fill-15"></path>
                <path d="M87.9546881,26 L82.0660397,26 C82.0495515,25.6764328 82.0230526,25.398587 82.0230526,25.1207412 C82.0204027,17.846926 82.0498459,10.5731107 82.0000868,3.29988168 C81.9874262,1.43761148 83.3603646,-0.178173163 85.2944912,0.0158499528 C86.4304115,0.129567428 87.5224613,1.03227316 87.8413316,2.32185278 C87.9434997,2.73451826 87.9914922,3.17063064 87.992081,3.59619191 C88.0017973,10.8412847 88.0003251,18.0863774 87.9991474,25.3314702 C87.9991474,25.5293034 87.9735318,25.7268436 87.9546881,26" id="Fill-17"></path>
                <path d="M143,87.9976171 L143,82.0474913 C143.296833,82.0316498 143.581145,82.0035535 143.865457,82.0032546 C151.449357,82.0011624 159.032951,81.9966789 166.616545,82.0041513 C169.066638,82.0068414 170.430177,83.6710952 169.878043,85.9477873 C169.645951,86.9039561 168.470835,87.9808789 167.447799,87.9841668 C159.3307,88.0083774 151.213601,87.9976171 143,87.9976171" id="Fill-19"></path>
                <path d="M27,82.0051991 L27,87.9997335 L26.093065,87.9997335 C18.4729225,87.9997335 10.8524753,88.0006293 3.23202805,87.9991362 C1.40505828,87.9988376 0.0874587694,86.8115172 0.00337611847,85.0989211 C-0.0764414704,83.4735225 1.26827165,82.0266998 3.05441869,82.0195329 C11.0005338,81.9866845 18.9469536,82.0051991 27,82.0051991" id="Fill-21"></path>
                <path d="M81.5424286,106.547447 L80.1188,61 L89.8812,61 L88.457243,106.547447 L81.5424286,106.547447 Z M79,120.116879 C79,116.700843 81.5424286,114.233451 85,114.233451 C88.6605716,114.233451 91,116.700843 91,120.116879 C91,123.437897 88.6605716,126 85,126 C81.4406,126 79,123.437897 79,120.116879 L79,120.116879 Z" id="Fill-23"></path>
            </g>
        </g>
    </g>
</svg>