<?xml version="1.0" encoding="UTF-8"?>
<svg width="278px" height="196px" viewBox="0 0 278 196" version="1.1" xmlns="http://www.w3.org/2000/svg" xmlns:xlink="http://www.w3.org/1999/xlink">
    <!-- Generator: Sketch 46.2 (44496) - http://www.bohemiancoding.com/sketch -->
    <title>icon-axe</title>
    <desc>Created with Sketch.</desc>
    <defs></defs>
    <g id="Welcome" stroke="none" stroke-width="1" fill="none" fill-rule="evenodd">
        <g id="Desktop-HD-ROADMAP" transform="translate(-456.000000, -1249.000000)" fill="#FFFFFF">
            <g id="icon-axe" transform="translate(456.000000, 1249.000000)">
                <g id="Page-1">
                    <path d="M89.6333868,164.00731 C89.5609805,164.753155 89.1356836,165.46553 88.9119698,166.075832 C86.998615,167.45358 85.2675991,166.996151 84.7443973,164.901517 C84.1367617,162.467669 83.964045,159.98777 85.5625165,157.690177 C86.0426593,157.503597 86.5576822,157.303724 87.0113643,157.127589 C88.6081519,157.52686 89.5811869,158.603612 89.6497444,160.113818 C89.7084392,161.41062 89.7582336,162.720241 89.6333868,164.00731 M91.8864017,160.392026 C91.7281182,159.274683 91.4839573,158.118172 90.9968385,157.110972 C90.4635335,156.008346 89.2905994,155.518395 88.1248819,155.182979 C86.4063747,154.688518 84.9873554,155.219773 83.8134591,156.49165 C83.4381971,156.898043 83.0860283,157.325088 82.7170207,157.749759 C82.4971557,158.620466 82.2424106,159.376518 82.1288698,160.152748 C82.0158101,160.924942 81.9607236,161.724673 82.0316865,162.498766 C82.1286292,163.55178 82.3713467,164.591738 82.5481528,165.63763 C83.0660624,168.70172 86.9305387,169.745238 89.3026271,168.463628 C91.2436454,167.41465 91.6937191,165.522026 91.913103,163.580977 C92.031936,162.529388 92.0343415,161.437681 91.8864017,160.392026" id="Fill-1"></path>
                    <path d="M141.994069,133.479022 C142.137743,132.944806 142.84328,132.54623 143.283864,132.094733 L144.827541,132.094733 C146.400658,132.8454 146.738329,134.170332 146.735562,135.460697 C146.731536,137.215194 146.980889,139.020228 146.240125,140.736822 C144.994867,141.843395 144.385196,141.991669 142.826925,141.5242 C142.536809,141.164719 142.21197,140.762091 141.91028,140.38783 C141.737167,139.494848 141.57588,138.638816 141.404024,137.784452 C141.103844,136.290508 141.6179,134.876898 141.994069,133.479022 M140.35377,142.312532 C141.991804,144.02412 143.655,144.395997 145.980204,143.598845 C146.254216,143.504922 146.541312,143.445565 146.69958,143.403133 C148.244264,142.429101 148.8718,141.068174 148.954582,139.507244 C149.042397,137.853821 148.97597,136.193009 148.975215,134.535296 C148.97446,132.919776 148.140597,131.682331 146.982399,130.556688 C146.300262,130.39864 145.617874,130.204835 144.921395,130.084928 C142.15284,129.607925 139.860347,131.179105 139.445429,133.821339 C139.334968,134.525522 139.288922,135.241385 139.1377,135.937224 C138.707936,137.917708 139.373969,139.758023 139.903877,141.615263 C139.976343,141.868425 140.163295,142.113006 140.35377,142.312532" id="Fill-3"></path>
                    <path d="M77.9766697,165.515163 C77.6079542,166.78109 76.5794837,167.076576 74.7806435,166.682201 C73.9950335,166.061421 73.5432341,165.320223 73.5289771,164.404667 C73.5043961,162.797121 73.4650664,161.183897 73.5818263,159.583685 C73.6233683,159.013296 74.0144526,158.407657 74.3984083,157.932136 C75.0768449,157.091575 76.4877964,156.797272 77.5541217,157.997905 C77.7387253,158.20562 77.9034183,158.429659 78.0341894,158.592424 C78.2242008,159.670982 78.5594861,160.681643 78.5398213,161.685915 C78.5145028,162.968403 78.3360445,164.281646 77.9766697,165.515163 M80.5974998,159.724449 C80.5276896,159.547252 80.5527623,159.335515 80.5360472,159.139629 C80.3802034,157.332885 78.9852296,155.686777 77.1411603,155.192329 C74.1457153,154.389384 71.8778689,156.202043 71.2758794,158.743598 C70.8511191,160.538276 71.0094209,162.495248 71.1433876,164.364212 C71.2163932,165.38055 71.5959244,166.480873 72.1721039,167.333736 C72.9473898,168.481611 74.1400617,169.23038 75.5320857,168.935604 C78.6177432,169.206722 80.0168957,167.505255 80.4288739,165.631559 C80.8528968,163.70345 81.3804058,161.715251 80.5974998,159.724449" id="Fill-5"></path>
                    <path d="M100.051804,191.216653 C99.8313981,192.046985 99.2819603,192.963532 98.5293137,193.515029 C97.4963592,194.271258 95.1303661,193.627133 94.6359581,192.535303 C93.5637377,190.168525 93.3880437,187.760419 94.7414318,185.416679 C95.1762243,184.663775 95.8832994,184.026537 97.0323322,184.045538 C98.192543,184.064776 99.0283075,184.570196 99.4327189,185.456105 C99.8291052,186.323964 100.109413,187.228161 100.440451,188.116445 C100.331252,188.135209 100.221765,188.153972 100.111993,188.172735 C100.111993,189.191174 100.309756,190.24524 100.051804,191.216653 M101.895301,184.203244 C100.15957,181.698473 95.2418587,181.05886 92.7941808,183.7097 C91.675529,184.920997 91.1298172,186.333464 91.0292159,187.85756 C90.8701455,190.271366 91.3356056,192.568792 93.0446809,194.823942 C93.596125,195.061213 94.2169294,195.357625 94.8655354,195.602497 C97.5244473,196.605973 100.884989,195.645486 102.011092,193.442351 C103.197672,191.121174 103.197958,188.673167 102.632757,186.226822 C102.4734,185.535908 102.308597,184.799392 101.895301,184.203244" id="Fill-7"></path>
                    <path d="M87.2425964,191.808253 C86.8303447,193.297359 86.192348,193.882365 84.9409407,193.892906 C84.0883744,193.900092 83.4461558,193.593935 83.0281922,192.825426 C82.3670995,191.610137 82.2878776,190.314596 82.3387882,188.98911 C82.2983081,187.789632 82.3132088,186.608361 82.9348147,185.502312 C83.5462386,184.414469 84.2376294,183.932953 85.2262884,184.029017 C86.1968182,184.123404 86.8566692,184.786506 87.1762884,185.912439 C87.7335732,187.875155 87.7884573,189.836194 87.2425964,191.808253 M89.7665203,186.845286 C89.7769508,184.895745 88.739368,183.491204 87.2676792,182.276155 C86.5397818,182.178894 85.9293513,182.0778 85.314699,182.018389 C83.0041028,181.795119 80.3311723,183.637336 80.1262881,185.786191 C79.9494669,187.641823 79.9767848,189.529078 80.0949967,191.391898 C80.1506259,192.269646 80.6311723,193.122241 80.95551,194.095813 C82.1063379,195.925334 84.0461559,196.168487 86.0930102,195.917189 C87.4107255,195.755725 88.4140368,195.045669 89.0190037,193.800675 C89.9771164,191.829814 90.1407753,189.783251 89.9026131,187.668654 C89.87157,187.392441 89.7650303,187.119582 89.7665203,186.845286" id="Fill-9"></path>
                    <path d="M111.309267,193.947363 C111.222597,193.593296 111.053602,193.218094 111.051544,192.842145 C111.039196,190.523053 111.074641,188.203712 111.073498,185.88462 C111.072811,184.658065 111.030963,183.431261 111.00901,182.274823 C109.636929,181.750684 108.826944,181.971727 108.010327,182.97699 C107.583839,183.502124 107.147288,184.01781 106.715998,184.538468 C106.298199,185.042715 106.307346,185.654128 106.808156,186.133263 C107.058789,186.188213 107.388317,186.260568 107.669136,186.321983 C108.050346,186.069611 108.366611,185.860253 108.795386,185.576054 C108.955919,185.917441 109.188487,186.187965 109.193289,186.462964 C109.208611,187.326998 109.133833,188.192275 109.102503,189.057552 C109.081694,189.626198 109.051965,190.196088 109.067973,190.764237 C109.093128,191.655124 109.153042,192.544769 109.190317,193.275779 C108.197616,194.33997 106.576503,193.382198 106,194.912843 C106.466965,195.991705 107.307822,196.013834 108.160113,195.997175 C109.302141,195.975046 110.44417,195.944463 111.586198,195.918107 C112.079004,195.906669 112.577984,195.94496 113.063243,195.8736 C113.72047,195.77638 114.071494,195.353687 113.987797,194.623174 C113.304501,193.545556 112.29808,194.083868 111.309267,193.947363" id="Fill-11"></path>
                    <path d="M140.006714,167.871176 L140.006714,169.534622 C141.160772,170.237758 146.947848,170.121808 148,169.337407 C147.963793,168.936535 147.921832,168.470998 147.872677,167.925683 C147.018823,167.856311 146.276226,167.796106 145.624266,167.743085 C144.994605,167.336019 145.098669,166.766424 145.098669,166.241178 C145.098669,163.315159 145.112816,160.389635 145.104184,157.463863 C145.102745,156.98916 145.012349,156.514703 144.968469,156.092029 C143.3044,155.62005 141.185469,157.006998 140,159.2554 C140.304999,159.634717 140.623666,160.030882 141.033929,160.541015 C141.610358,160.215957 142.171202,159.89957 142.773289,159.559894 C143.127203,161.253814 143.001798,166.845459 142.624625,167.661573 C141.791152,167.728468 140.943052,167.796353 140.006714,167.871176" id="Fill-13"></path>
                    <path d="M141.650392,109.620093 C142.053192,111.336399 141.814815,116.939654 141.346437,117.684466 C140.633938,117.744606 139.900377,117.806694 139.077305,117.876087 L139.077305,119.942763 C141.723628,119.992677 144.27326,120.075461 147,119.852675 C146.934901,119.09715 146.886316,118.532271 146.832466,117.906765 C145.857656,117.827634 145.057321,117.762624 144.196434,117.692501 C144.154311,117.021464 144.093999,116.502847 144.094238,115.983987 C144.096392,113.349509 144.127506,110.715519 144.116735,108.081529 C144.114103,107.460893 143.989888,106.840744 143.916652,106.171655 C143.195776,106.105428 142.652486,106.055514 142.047448,106 C141.228684,107.344022 139.476037,107.792029 139,109.472786 C139.363071,109.865523 139.67636,110.204207 139.98558,110.538751 C140.581284,110.21005 141.0937,109.927367 141.650392,109.620093" id="Fill-15"></path>
                    <path d="M101.564036,163.53009 C101.488317,164.412656 101.370448,165.232934 100.789937,166.000508 C99.8474896,167.246257 97.6486144,167.237633 96.8785538,165.58414 C96.6433206,165.078892 96.4121257,164.518066 96.406573,163.980716 C96.3911769,162.471922 96.3333781,160.937494 96.588803,159.459124 C96.9633589,157.290083 98.3755153,156.690206 100.542084,157.574689 C101.933796,159.465593 101.738694,161.494727 101.564036,163.53009 M103.962304,163.368382 C104.076134,162.189951 103.89239,160.988522 103.928735,159.799789 C103.959275,158.793607 103.676844,157.887563 103.075131,157.107533 C102.366908,156.188792 101.619058,155.169194 100.328557,155.029047 C99.3921669,154.927471 98.4088316,155.114333 97.4588125,155.250407 C96.3545794,155.409001 95.6173303,156.019658 95.0262185,156.952533 C94.4401547,157.877022 94.1617618,158.799117 94.1034583,159.863514 C93.9792794,162.140361 93.791749,164.404271 94.7354582,166.590801 C95.2483271,167.778576 96.0837584,168.609874 97.4333205,168.842254 C99.503726,169.198491 101.474435,169.127818 103.339895,166.720647 C103.480984,165.995237 103.834591,164.691752 103.962304,163.368382" id="Fill-17"></path>
                    <path d="M109.890059,108.381126 C110.51021,108.015074 111.462512,107.991894 112.547023,108.537833 C113.642321,109.366761 113.743422,110.642631 113.817429,111.806222 C113.905233,113.188333 113.735645,114.601593 113.527674,115.980324 C113.35357,117.132808 112.362383,117.797303 111.089218,117.806962 C110.677289,117.810342 110.264608,117.728729 109.955034,117.696615 C108.88106,116.996867 108.453327,116.090188 108.458093,114.967645 C108.463362,113.645174 108.455334,112.32222 108.456337,110.999507 C108.45709,110.029325 108.745841,109.180114 109.890059,108.381126 M110.38929,119.97961 C111.219168,120.021141 112.053311,119.986371 112.700054,119.986371 C114.115211,119.145127 115.016838,118.214786 115.480697,116.813841 C116.003008,115.237355 115.916709,113.63962 115.995231,112.047681 C116.031607,111.310748 115.85374,110.548462 115.671107,109.821429 C115.506787,109.167075 115.202984,108.545318 114.883124,107.706248 C113.932327,106.483982 112.57487,105.944804 110.657219,106.004445 C108.262666,106.078814 106.639286,107.595418 106.278033,109.6611 C105.880153,111.935403 105.932585,114.226124 106.287566,116.496322 C106.608931,118.55138 108.212993,119.870712 110.38929,119.97961" id="Fill-19"></path>
                    <path d="M78.4278967,114.153102 C78.3616857,114.591513 78.2578494,115.024091 78.1967692,115.462988 C77.9150672,117.480795 76.7606511,118.211318 74.774811,117.618346 C72.8656878,115.696046 72.7789538,110.700739 74.6409232,108.383043 C76.1144224,107.981085 76.1144224,107.981085 77.4467041,108.481953 C78.4112829,110.189665 78.7362296,112.110506 78.4278967,114.153102 M80.5923353,115.466876 C80.5935569,114.993957 80.7841272,114.521523 80.885276,114.04836 C81.3086841,112.072109 80.4445212,110.256009 80.1623306,108.367732 C80.1518248,108.297985 80.0707102,108.236744 80.0179369,108.175502 C79.3929641,107.448139 78.7670141,106.721505 78.1535244,106.008723 C76.8940503,106.008723 75.8776755,105.985393 74.8630109,106.015041 C73.6655943,106.049793 71.9963941,107.295765 71.671936,108.416823 C70.8212107,111.355925 70.7547554,114.312281 71.6076796,117.263534 C72.0499004,118.792868 73.4950583,119.915628 75.0916952,119.981001 C76.0218248,120.019155 76.9548862,119.988048 77.8224696,119.988048 C78.0589722,119.768114 78.1916384,119.615253 78.3521572,119.500304 C79.7406327,118.507075 80.5884262,117.235101 80.5923353,115.466876" id="Fill-21"></path>
                    <path d="M65.2889317,63.589132 C61.198869,66.4680673 57.1010649,69.3364715 53.0128708,72.2180395 C48.9193378,75.1032934 44.8367494,78.0035542 40.7437503,80.8890714 C36.6139134,83.800653 32.4824749,86.7098652 28.3411595,89.6053869 C24.2551009,92.4624702 20.1554283,95.3011241 16.0618953,98.1482029 C11.9843788,100.984487 8.01657479,103.980318 3.72870911,106.577283 C3.58562898,104.759881 4.03862706,103.199438 5.42057817,102.20504 C8.28031203,100.147266 11.2569658,98.2482482 14.1764944,96.2707737 C17.5786514,93.9668357 20.9661267,91.642362 24.3688176,89.339477 C27.8347734,86.9936779 31.3127415,84.6655184 34.7829683,82.3260379 C36.4134411,81.2271192 38.0305668,80.1081915 39.6671791,79.0182242 C44.5719444,75.7522715 49.5007343,72.5208082 54.3876145,69.2285278 C59.1920101,65.9915357 63.9440853,62.6787197 68.743676,59.434619 C71.3994673,57.6393324 74.1249301,55.9438277 76.7833908,54.1524902 C79.1468822,52.5599269 81.4580533,50.8920664 83.7988548,49.2665935 C86.6908884,47.2580523 89.6085484,45.2853169 92.4781591,43.2459723 C94.053909,42.1259915 95.3504391,40.7266736 96.4486325,39.1277917 C98.142637,36.6614116 98.1322264,32.429232 95.8709732,30.0734283 C94.3285908,28.4666481 92.8438676,26.7961547 91.1997809,25.2965283 C89.488959,23.7358215 87.6620181,22.2877974 85.8019765,20.9000637 C84.2571917,19.7476997 82.5893472,18.7556716 80.9780942,17.689136 C80.2517491,17.2083919 79.560907,16.6665676 78.8009273,16.2455875 C77.3258139,15.4289019 75.8138628,14.6772457 74.3160595,13.9005782 C73.7731025,13.6188717 73.2458949,13.2982002 72.680248,13.070992 C69.69959,11.8746608 66.8144968,10.4097869 63.586385,9.89692309 C63.2551118,9.84426767 62.9414567,9.6828788 62.63928,9.57862106 C62.8373499,8.294092 64.2545372,7.41395659 65.5398558,7.80913555 C68.3259141,8.66583929 71.1162434,9.52438597 73.8478458,10.5324741 C75.9425281,11.3054557 78.0369435,12.1582103 79.9746648,13.2471244 C82.4067599,14.6137959 84.7553027,16.1565998 86.9992047,17.8091903 C89.4726757,19.631068 91.7883847,21.6614611 94.1681595,23.6065525 C94.4746073,23.8574555 94.7695765,24.1270513 95.0407881,24.4148132 C96.3637454,25.8196599 97.7304809,27.1892275 98.9800295,28.655681 C100.509332,30.4504411 101.998593,32.2857459 103.392823,34.1837107 C104.825226,36.1338043 106.492537,37.9248785 107.498902,40.1785306 C107.898246,41.072883 108.701737,41.783468 109.180361,42.6533356 C110.635454,45.2982175 112.020341,47.9804848 113.435927,50.6464289 C113.945249,51.6055474 114.481266,52.5517654 114.967631,53.5216783 C115.113114,53.8118096 115.132334,54.1635479 115.209213,54.4868522 L114.884079,54.5181821 C112.585721,51.0595106 110.335946,47.5679295 107.969786,44.1553315 C106.732783,42.3713658 105.288635,40.72799 103.944322,39.0164254 C103.728634,38.7418274 103.58422,38.403253 103.337567,38.1641974 C103.023111,37.8601123 102.637916,37.6271121 102.409681,37.4572984 C98.1044645,40.4375953 93.9885086,43.2507113 89.9120598,46.1188523 C85.7814221,49.0251684 81.697232,51.9957241 77.5791405,54.9196798 C73.4914802,57.8217834 69.3886043,60.7033515 65.2889317,63.589132 M94.067256,52.640753 C94.9788579,51.9801907 96.0031087,51.473119 96.953417,50.8620528 C98.2814461,50.0085084 99.843849,50.0361525 101.308018,49.7694528 C103.511612,49.3676919 105.730688,49.62623 107.896644,50.1746363 C108.249806,50.2641505 108.606706,50.5405914 108.845084,50.8254573 C109.322373,51.3957155 109.75108,52.0120473 110.142415,52.6439123 C111.296932,54.5073878 112.457323,56.3684937 113.549643,58.2672483 C114.480465,59.8845596 115.328535,61.548471 116.195558,63.2005349 C116.49373,63.7689502 116.741718,64.3631667 117.007858,64.9476419 C117.743012,66.5623205 118.475764,68.1785787 119.209583,69.7940471 C119.250959,69.7766708 120.045374,71.783369 120.170569,72.1345807 C120.810426,73.9327634 121.48098,75.7256805 121.997777,77.5594057 C122.794061,80.3843692 123.505724,83.2335541 124.189092,86.0874781 C124.501412,87.3920162 125.318517,88.1307718 126.537635,88.5225281 C127.742604,88.9098088 128.691578,88.3700907 128.91474,87.1469052 C129.008169,86.6345679 128.981742,86.0993255 128.990551,85.5738244 C129.066362,81.184205 128.675028,76.8214399 128.209483,72.4628872 C128.107245,71.5037687 128.117389,70.526484 127.935602,69.5839519 C127.513836,67.3984886 127.040818,65.2214501 126.525089,63.0557325 C125.90632,60.4566608 125.404739,57.8104625 124.521967,55.2974824 C123.250262,51.6787384 121.798907,48.108964 120.193526,44.621332 C119.24215,42.5553965 118.35217,40.4331196 116.955805,38.5662216 C114.729521,35.5890839 113.172723,32.1646384 110.642394,29.3781134 C109.404324,28.0148645 108.452948,26.3654334 107.092085,25.150936 C104.602598,22.9291404 102.386724,20.4438044 99.8606663,18.2504428 C97.4488586,16.1563366 94.9388168,14.1896565 92.370582,12.323285 C89.2081376,10.0254023 85.8158574,8.02897194 82.4724273,5.98330873 C81.0886076,5.13634625 79.5859994,4.47315119 78.1135554,3.77520355 C76.8963066,3.1981001 75.6456903,2.68971199 74.4076201,2.15578599 C73.7325275,1.86486478 73.065977,1.54787913 72.3729994,1.30619073 C71.095689,0.860989128 69.8015613,0.462387572 68.8835528,0.164094597 C67.9025464,-0.0291508076 66.5678438,-0.0291508076 66.2723406,0.0487792193 C64.9667345,0.556114225 62.6208612,2.77053806 62.581354,2.78054259 C61.9388281,3.49402358 61.45006,4.03716428 60.9994644,4.5373908 C60.79045,4.99522971 60.6051932,5.42173864 60.4033862,5.84034926 C59.3567124,8.01264876 59.6570205,9.91798526 61.0862201,11.2064635 C62.5447831,11.767507 63.6662003,12.1524182 64.7481102,12.6260537 C66.3027718,13.306625 67.8254006,14.0580179 69.367783,14.7672865 C70.7179681,15.3878307 72.1175373,15.9172809 73.4210079,16.6207574 C75.4329387,17.7067755 77.3845409,18.9017904 79.3556297,20.060473 C83.2025096,22.3212336 86.4148719,25.2725701 89.0439692,28.8360258 C89.7086511,29.7369601 90.2753658,30.7137183 90.8260641,31.6894233 C91.0946063,32.1656916 91.3532717,32.7098854 91.3914442,33.2393356 C91.5281177,35.1315083 91.4240109,37.0328956 90.4531482,38.7194489 C89.7599037,39.9239417 89.040232,41.225847 87.9996978,42.0980841 C86.4311553,43.4123635 84.5692451,44.385699 82.8376019,45.5119985 C82.2465956,45.8963831 81.6633306,46.2941948 81.0920778,46.7067501 C80.2381351,47.3233451 79.4266359,48.0012836 78.5459991,48.5770707 C76.3063681,50.0416813 74.0160184,51.4309947 71.7883997,52.912455 C69.5388918,54.4086589 67.3595894,56.0078041 65.1138187,57.5098 C63.2481714,58.7574703 61.3139203,59.904832 59.4410656,61.1422344 C57.2476153,62.5910484 55.0923375,64.0954139 52.9122342,65.5639736 C50.8220899,66.9719797 48.7143275,68.3547111 46.6276534,69.7677194 C45.2844087,70.6770785 43.981205,71.6446219 42.6318206,72.5445031 C40.4332985,74.0104301 38.2038112,75.4305469 36.0039543,76.8941044 C35.1347959,77.4725242 34.331038,78.1467769 33.460545,78.7233538 C32.042023,79.6629898 30.5695791,80.5244326 29.1628025,81.4803918 C27.3572168,82.7075264 25.6140951,84.0236488 23.8087763,85.2507834 C20.8964552,87.2308906 17.9408897,89.149391 15.0315049,91.1334473 C13.0617507,92.4766872 11.2227975,94.0247566 9.17509667,95.2337252 C6.61353538,96.7457256 4.31410968,98.5755016 2.06566963,100.467411 C1.26378028,101.141927 0.43519689,102.146592 0.263821071,103.111766 C-0.0565075605,104.917321 -0.323448087,106.870047 0.969878764,108.524481 C1.37269202,109.039977 1.89109052,109.466486 2.30885245,109.971978 C3.78449968,111.758313 5.80870969,112.11874 7.94450084,111.969725 C9.66760194,111.849671 11.0751793,110.972431 12.4568635,109.928011 C15.0024084,108.004245 17.701444,106.2782 20.3230669,104.451057 C22.9244024,102.637868 25.4939719,100.780711 28.1041164,98.9804218 C32.0721873,96.2436562 36.0698886,93.548225 40.0416967,90.8164617 C41.7103419,89.6685734 43.3237305,88.4424919 44.9993162,87.3048715 C48.1630953,85.1560036 51.3802625,83.0829596 54.5253558,80.9082906 C57.4072457,78.9158094 60.206918,76.8088026 63.0711898,74.7915733 C68.3811708,71.0519852 73.7418704,67.3816389 79.0251573,63.6059817 C84.0738035,59.9980321 89.0426345,56.2816123 94.067256,52.640753" id="Fill-23"></path>
                    <path d="M125.725877,191.968982 C125.436502,193.097871 124.601636,193.867492 122.857711,193.925262 C122.179471,193.500824 121.363365,192.990449 120.706728,192.579857 C119.871862,190.216566 120.033889,188.016318 120.62543,185.714617 C122.384705,183.561157 123.300017,183.428431 125.155655,184.933298 C126.85154,187.42836 126.304627,189.710488 125.725877,191.968982 M122.24087,182.125757 C120.923902,182.361847 119.644171,182.608918 118.896003,183.667147 C118.542386,184.167258 118.26097,184.703892 117.81639,185.439854 C117.592679,186.906049 117.908774,188.685679 117,190.263116 C117.928388,191.960149 118.191327,193.822375 119.499768,195.220058 C120.272382,195.44851 120.923333,195.696059 121.605837,195.832843 C124.419995,196.396452 127.276222,195.548054 128.236731,193.086174 C129.215432,190.578221 129.197808,188.011305 128.497111,185.563748 C127.84218,183.27613 125.70939,181.503423 122.24087,182.125757" id="Fill-25"></path>
                    <path d="M71,142.417302 C71.0998395,142.812625 71.2154303,143.270302 71.3564656,143.828781 C73.9316936,144.124779 76.4238027,143.965566 79,143.877826 L79,141.985011 C78.0728501,141.921671 77.1813225,141.860795 76.178566,141.792526 L76.178566,130.569709 C75.1653894,129.876416 74.2673189,129.812337 73.6326599,130.39694 C72.7769969,131.184874 71.9664072,132.023332 71.0620362,132.9133 C71.1771423,133.281265 71.3058189,133.691622 71.4781147,134.241475 C72.2906431,134.134757 73.0122982,134.039624 73.7615788,133.940793 L73.7615788,141.42456 C72.8923454,142.239112 71.7168085,141.387098 71,142.417302" id="Fill-27"></path>
                    <path d="M90,117.902406 L87.668651,117.902406 C87.5563086,117.278484 87.3794914,116.741684 87.3760723,116.203896 C87.3577556,113.367369 87.3936563,110.530595 87.3846201,107.694068 C87.3829105,107.144927 87.2647068,106.59628 87.1948591,106 L85.6750618,106 C84.9724334,106.582212 84.322557,107.07212 83.730073,107.624963 C83.1297738,108.185209 82.5861343,108.807157 82,109.420961 C82.4378911,109.897294 82.7353543,110.220855 83.1546845,110.67695 C83.8126202,110.28379 84.4163385,109.922962 85.0349544,109.553001 C85.5466007,111.013839 85.4007998,116.738228 84.8471472,117.780485 C84.0746711,117.822442 83.2721556,117.865879 82.4461947,117.910798 C81.9902311,118.699586 81.8852154,119.341772 82.2771927,120 L90,120 L90,117.902406 Z" id="Fill-29"></path>
                    <path d="M84.3238437,132.105956 L85.7090584,132.105956 C86.0467832,132.368363 86.4245017,132.661936 86.8441889,132.988101 C87.7433071,135.329546 87.9499414,137.722615 87.1041482,140.159934 C86.7377859,141.215749 86.2033019,141.671334 85.2046931,141.749842 C84.0986938,141.836677 83.3032631,141.401552 82.8312384,140.414491 C82.6954572,140.130672 82.5739948,139.81664 82.5539979,139.509982 C82.4663573,138.168684 82.3490918,136.823816 82.3757543,135.482517 C82.401923,134.170957 82.8618508,132.994287 84.3238437,132.105956 M82.2434294,143.34427 C82.8174134,143.524839 83.3222724,143.68471 83.8278721,143.842915 C85.447618,144.349411 87.8948883,143.581698 88.7666034,142.248725 C89.879762,140.546051 89.9577745,138.588821 89.9985088,136.678695 C90.0251713,135.430892 89.6879403,134.175477 89.495131,132.792783 C89.3171343,132.549646 89.1033406,132.305319 88.9433657,132.03173 C88.1210256,130.626197 86.8478921,129.92581 85.2098775,130.006221 C84.2475593,130.053326 83.0973694,130.089012 82.3898261,130.595032 C81.3141925,131.364411 80.4180368,132.455198 80.2353494,133.880952 C79.8860215,136.608276 79.7685091,139.31514 81.0226333,142.092423 C81.3450518,142.422633 81.820039,142.910096 82.2434294,143.34427" id="Fill-31"></path>
                    <path d="M76.1611513,182.25239 C75.4078751,182.165615 74.7592005,182.090989 73.9724134,182 C73.1983125,183.337565 71.7465741,184.087048 71,185.675763 C71.6087009,186.008233 72.0455389,186.246986 72.3042906,186.388553 C72.9611035,186.259631 73.3974627,186.174096 73.8714021,186.080875 L73.8714021,193.661238 C72.9366884,193.898256 72.0792891,194.115936 71.263539,194.322707 C71.1443361,195.635479 71.3334331,195.938198 72.363892,195.961007 C74.3561127,196.005386 76.3495302,196.00018 78.342469,195.999436 C78.5294118,195.999436 78.7161151,195.884894 79,195.791921 L79,194.094862 C78.0853929,194.029657 77.2145892,193.967676 76.1611513,193.892802 L76.1611513,182.25239 Z" id="Fill-33"></path>
                    <path d="M107.198737,167.00501 C107.135876,167.550223 107.07906,168.041179 107,168.727317 C109.681737,169.194265 112.252984,168.920578 115,168.917697 L115,166.984844 C114.002931,166.90922 113.141014,166.843919 112.127746,166.767094 C112.09414,165.950595 112.04361,165.248853 112.040225,164.54663 C112.027894,161.8681 112.031279,159.189089 112.027169,156.510559 C112.02596,155.779767 111.88404,155.143566 110.795098,155 C109.628064,156.016002 108.364079,157.102827 107.124754,158.217261 C107.017408,158.314012 107.074224,158.59082 107.051981,158.81241 C107.466379,159.133872 107.866028,159.44381 108.223367,159.721098 C108.797576,159.396035 109.288857,159.117787 109.814228,158.820332 C110.248935,160.138591 110.162622,165.804149 109.699628,166.742607 C108.950618,166.821112 108.129318,166.907539 107.198737,167.00501" id="Fill-35"></path>
                    <path d="M92.3464456,141.855022 C91.9099351,141.910548 91.4851911,142.067585 91,142.19478 C91.0378371,142.789417 91.0675991,143.254658 91.109589,143.916072 C93.6425955,143.916561 96.0662437,144.172908 98.509964,143.787165 C98.7053785,143.302356 98.8652632,142.905116 99,142.570739 C98.6230137,141.835943 98.0596107,141.902231 97.5298919,141.908346 C96.9609517,141.914461 96.3645566,142.059024 95.9033598,141.360918 C95.9033598,140.588697 95.9017448,139.735756 95.9035905,138.88306 C95.9093583,136.400064 95.9215862,133.917314 95.9215862,131.434563 C95.9215862,130.038841 95.3997116,129.692479 94.1773901,130.261188 C93.9674405,130.358786 93.7330353,130.438527 93.5673828,130.595075 C92.7213554,131.392735 91.8942466,132.212655 91.1243547,132.962617 C90.8899495,133.851025 91.3601442,134.168035 92.1664888,134.509016 C92.6329921,134.205215 93.1564816,133.864234 93.89292,133.384562 C93.9129921,136.286567 93.9778226,139.003161 93.8620043,141.842547 C93.2473828,141.842547 92.7912617,141.798763 92.3464456,141.855022" id="Fill-37"></path>
                    <path d="M123.72476,166.845239 C123.059675,166.440501 123.12635,165.898609 123.128722,165.379536 C123.138688,163.018848 123.160992,160.657919 123.154823,158.29723 C123.15245,157.387111 123.086724,156.477472 123.049709,155.564711 C122.593665,155.33604 122.250089,155.163576 121.923597,155 C121.718116,155.115296 121.566971,155.171983 121.449757,155.270466 C120.422351,156.131584 119.38237,156.979731 118.391743,157.882884 C118.170601,158.084893 118.129315,158.48891 118,158.81318 C118.495907,159.187893 118.888124,159.48406 119.274172,159.775903 C119.807095,159.385337 120.131925,158.751208 120.902361,159.051699 L120.902361,166.677098 C119.954206,166.805365 119.086962,166.922823 118.166805,167.047487 L118.166805,168.646501 C119.269902,169.14924 124.9007,169.114651 126,168.5497 C125.949697,168.080589 125.893463,167.556472 125.831297,166.979751 C124.994187,166.926186 124.294934,166.881509 123.72476,166.845239" id="Fill-39"></path>
                    <path d="M162.370598,110.482291 C162.844196,110.176971 163.218366,109.935333 163.68692,109.632975 C163.817568,110.044428 163.949416,110.267062 163.949416,110.489695 C163.950857,112.537579 163.959023,114.586449 163.900423,116.633099 C163.875927,117.491053 163.510882,117.740096 162.535589,117.811428 C161.04467,117.920523 160.698358,118.543256 161.348473,120 L169,120 C168.960854,119.2388 168.927471,118.586203 168.894569,117.946686 C167.890457,117.867456 167.080634,117.803283 166.101018,117.726027 L166.101018,106 L164.139143,106 C163.180661,107.22251 161.660202,107.833889 161,109.381957 C161.173636,109.726274 161.333584,110.044181 161.501456,110.377391 C161.859056,110.420585 162.168863,110.457855 162.370598,110.482291" id="Fill-41"></path>
                    <path d="M161,142.381556 C161.142425,142.876242 161.30132,143.42816 161.4498,143.944216 C162.84498,143.944216 164.06116,144.046641 165.251907,143.915478 C166.449437,143.783332 167.694441,144.287107 168.914497,143.735435 C168.94429,143.129235 168.969238,142.619811 169,141.994943 L166.711518,141.994943 C165.874894,140.766823 166.359331,139.462805 166.272375,138.247949 C166.178879,136.946141 166.260022,135.631562 166.262202,134.32214 C166.26414,133.065527 166.262686,131.808669 166.262686,130.441771 C165.609907,129.827957 164.732106,129.890591 164.026281,130.402963 C162.998547,131.149414 162.104275,132.084996 161.02834,133.051772 C161.426789,133.665587 161.754511,134.17059 162.12777,134.74535 C162.82318,134.233224 163.36139,133.837032 163.905171,133.436665 C164.361269,134.394353 164.380405,140.575236 163.947802,141.663842 C163.076541,142.147721 161.917767,141.393901 161,142.381556" id="Fill-43"></path>
                    <path d="M158.345399,165.180258 C157.48995,166.463577 156.492627,167.158187 154.8825,166.666714 C154.619304,166.433251 154.289256,166.140581 153.993129,165.877997 C152.889835,162.976328 152.589004,160.178634 154.771824,157.478416 C156.405968,156.819187 156.877146,156.963837 158.266911,158.682792 C158.875753,160.873725 158.468703,163.081265 158.345399,165.180258 M160.605222,158.598553 C160.38387,157.348448 159.659647,156.324103 158.350599,155.648507 C156.879127,154.888913 155.482429,154.813098 153.869331,155.334657 C153.1201,155.989795 152.296839,156.709676 151.509726,157.398028 C150.687454,161.268204 150.743411,165.837562 152.547655,167.85737 C153.783414,168.653548 155.030316,169.046823 156.445583,168.995558 C158.203526,168.931536 159.405364,168.059543 160.104085,166.602451 C161.341577,164.021131 161.080114,161.282645 160.605222,158.598553" id="Fill-45"></path>
                    <path d="M167.972367,166.206246 L167.972367,155.455382 C167.497649,155.297564 167.132809,155.176129 166.603979,155 C165.443296,156.127371 164.266071,157.270403 163,158.500175 C163.575143,159.037236 163.991969,159.426359 164.365079,159.775244 C164.941404,159.427322 165.409033,159.144938 165.916359,158.838699 C166.303884,160.06317 166.07704,165.906031 165.626661,166.793182 C164.827037,166.87438 164.062621,166.952445 163.351608,167.024728 C162.930529,168.227032 163.155246,168.940464 164.006855,168.964558 C166.235122,169.028649 168.466697,168.986243 170.657629,168.986243 C171.135655,168.225105 171.075399,167.569499 170.709141,166.944976 C169.784753,166.716803 168.778607,167.323015 167.972367,166.206246" id="Fill-47"></path>
                    <path d="M239.019898,74.3640615 C238.038894,74.5310366 237.496282,75.6028328 236.335876,75.3913468 C235.223431,73.8365239 234.129912,72.2722807 232.99595,70.7325304 C231.869765,69.2038489 231.199602,67.3859637 229.468844,66 C228.784941,66.5769942 228.179331,67.0885173 227.745864,67.454261 C227.460688,68.9436127 227.222956,70.1866232 227,71.350974 C227.790974,71.9534031 228.409027,71.8245803 228.955528,71.4762642 C229.211668,70.9932376 229.426846,70.5874575 229.741057,69.9951553 C231.305376,72.2814655 232.744995,74.3857282 234.249427,76.5849006 C233.787183,76.9822023 233.414121,77.2841234 233.065429,77.6079467 C232.697811,77.9496686 232.353267,78.3118797 231.945466,78.7183662 C232.413673,79.2374256 232.751476,79.6123541 233.100687,80 C235.463757,78.6606668 237.702905,77.391515 239.913276,76.1386132 C240.19223,75.248629 239.772762,74.7363994 239.019898,74.3640615" id="Fill-49"></path>
                    <path d="M155.818847,191.982465 C155.741467,192.205515 155.541423,192.39762 155.445986,192.618289 C155.117834,193.37766 154.422552,193.78234 153.51347,193.831854 C152.492615,193.887557 151.54083,193.695215 150.908599,192.897757 C149.508004,191.130494 149.530072,186.733761 150.971077,185.023868 C151.881592,183.943372 153.429497,183.773168 154.687367,184.615379 C154.872221,184.739163 155.056216,184.864376 155.084875,184.883896 C155.399844,185.448544 155.632847,185.872506 155.87416,186.293612 C155.913997,186.362884 156.035514,186.413826 156.043825,186.480241 C156.275681,188.322489 156.447639,190.165689 155.818847,191.982465 M158.886857,187.863058 C158.571315,186.632353 158.374424,185.352373 157.807823,184.201415 C157.068979,182.699813 154.667305,181.858078 152.363073,182.019712 C151.327316,182.092554 150.475839,182.44296 149.655888,182.973805 C147.824826,184.159042 147.464002,185.909404 147.128685,187.597635 C146.666405,189.924547 147.516736,192.127674 148.609813,194.253198 C148.732762,194.492673 148.98554,194.712629 149.240037,194.874739 C151.287192,196.180428 153.482231,196.332303 155.805664,195.421534 C156.856898,195.009236 157.60434,194.292238 157.924468,193.438362 C158.470147,191.981513 159.284939,190.535614 158.900327,189.166842 C158.900327,188.573152 158.974556,188.203703 158.886857,187.863058" id="Fill-51"></path>
                    <g id="Group-55" transform="translate(266.000000, 21.000000)">
                        <path d="M11.3326884,9.17732667 C10.9916651,9.13602667 10.5928744,9.08772667 10.2180837,9.04246 C9.88933953,9.40599333 9.62031628,9.70349333 9.35129302,10.0009933 C9.21426977,10.02036 9.07752558,10.03996 8.94050233,10.05956 C8.69826977,9.59126 8.41250233,9.13509333 8.22636279,8.65186 C8.05780465,8.21342667 8.02626977,7.73929333 7.88450233,7.29222667 C7.44524651,5.91042667 6.97668837,4.53492667 6.53826977,3.15312667 C6.49613023,3.01942667 6.58487442,2.85656 6.61780465,2.68179333 C7.20468837,2.49746 7.78180465,2.34789333 8.32459535,2.13649333 C8.83613023,1.93722667 9.31138605,1.67286 9.96859535,1.35739333 C9.46654884,0.805093333 9.12468837,0.428493333 8.74292093,0.00802666667 C5.86347907,0.66066 3.10682791,1.28529333 0.446455814,1.88799333 C0.100967442,3.09409333 0.140316279,3.15382667 1.26859535,3.58782667 C2.24059535,3.48469333 3.04096744,3.39952667 3.8656186,3.31202667 C4.05929302,3.74462667 4.21864186,4.02416 4.31045581,4.31792667 C4.88394419,6.15286 5.45017674,7.98942667 6.00050233,9.82902667 C6.15789767,10.35566 6.31892093,10.8906933 6.36664186,11.42876 C6.44896744,12.3564933 6.9552,13.1120267 7.48738605,13.8351267 C9.46487442,13.90046 9.24608372,13.9002267 11.2941767,11.2619267 C11.7638512,10.6571267 12.1637581,9.94172667 11.3326884,9.17732667" id="Fill-53"></path>
                    </g>
                    <path d="M100.226114,114.180653 C100.3288,115.719357 99.4780528,117.063929 98.020079,117.627674 C96.8345969,118.086225 95.4242374,117.766578 94.7986539,116.817679 C93.4333272,114.747984 93.3914496,110.131396 95.4328424,108.595083 C96.5595237,108.042575 97.653506,108.138923 98.8280885,108.59341 C99.7898407,109.650611 100.427184,110.831654 100.188252,112.284768 C100.086713,112.903979 100.18395,113.54901 100.226114,114.180653 M102.106307,117.3721 C102.997785,115.403296 103.159272,113.329059 102.866702,111.261994 C102.712672,110.175147 102.499268,108.975217 101.824063,108.082979 C100.406532,106.211001 96.61058,105.249192 94.2855091,106.707805 C93.4264432,107.246686 92.6413804,107.867809 91.8227581,108.451398 C91.9056529,108.492997 91.9885478,108.534597 92.0717294,108.576196 C90.6524781,111.565144 90.5976929,114.552897 92.1784314,117.790247 C92.4096191,117.999201 92.7865181,118.357817 93.1857901,118.698263 C94.8973246,120.158789 97.8588787,120.397866 99.997508,119.377244 C101.018635,118.890004 101.721376,118.222021 102.106307,117.3721" id="Fill-56"></path>
                    <path d="M191.533934,24.456532 C191.106338,26.0926622 190.199451,27.3466064 188.836133,28.3227225 C187.475933,29.2969111 186.137554,30.2449414 184.446655,30.6290547 C183.273755,30.1807848 182.489223,29.4243981 182.122936,28.1985396 C183.254531,25.1429798 185.397964,23.1802844 188.127458,21.8731976 C189.571307,21.1815182 190.801878,21.6292374 191.393134,23.0260883 C191.571342,23.4468233 191.647457,24.0217542 191.533934,24.456532 M190.421042,19.139522 C188.797946,18.8305792 187.241353,18.9941371 185.847121,20.0421195 C185.076618,20.6217314 184.255198,21.1371868 183.53769,21.7826074 C181.970186,23.1926751 180.511269,24.6283505 180.099261,26.9963611 C179.532684,30.254854 181.436341,32.9766895 184.666687,32.990457 C185.997793,33.0609467 187.37332,32.7484243 188.565184,31.8025968 C189.697299,30.9041295 190.901633,30.0709201 191.889571,29.0146772 C193.575014,27.2119603 194.524505,25.0752436 193.695292,22.4484039 C193.154952,20.7365524 192.185978,19.4751737 190.421042,19.139522" id="Fill-58"></path>
                    <path d="M168.380852,192.307517 C167.846076,193.026079 167.296652,193.562985 166.403621,193.719741 C165.176168,193.93531 164.309454,193.62417 163.913958,192.522137 C163.077284,190.190247 162.932542,187.8216 163.970812,185.499196 C164.300516,184.761899 164.865829,184.153848 165.782943,184.07298 C166.699808,183.992349 167.283245,184.513129 167.835152,185.154381 C168.758969,186.228193 168.640295,187.536546 168.715521,188.754783 C168.787023,189.91468 168.509456,191.094261 168.380852,192.307517 M162.128392,183.666269 C162.008726,183.822788 161.958078,184.026499 161.847101,184.190606 C161.005959,185.435166 161.204079,186.841462 161,188.222619 C161.120411,189.590971 161.143004,190.974737 161.380848,192.32388 C161.8903,195.215916 165.21614,196.788454 168.021355,195.601284 C169.877182,194.815608 170.438026,193.27058 170.826571,191.597017 C170.941272,191.101375 170.939534,190.578224 170.960637,190.066693 C171.039091,188.14934 171.094952,186.260209 170.146804,184.447202 C168.653702,181.592161 164.087748,181.110036 162.128392,183.666269" id="Fill-60"></path>
                    <path d="M130.902363,132.142811 C131.536984,132.142811 132.093185,132.142811 132.649628,132.143527 C134.374383,133.117666 134.563172,134.738133 134.522026,136.456108 C134.507745,137.046409 134.560268,137.646485 134.468778,138.224865 C134.348001,138.988966 134.295237,139.847477 133.896602,140.468771 C132.82099,142.145026 131.710282,142.24635 129.93712,140.872398 C129.007698,137.872735 128.514426,134.886423 130.902363,132.142811 M136.066221,141.413587 C136.634282,139.918047 136.967083,138.368864 137,136.730994 C136.782893,135.566843 136.63283,134.385764 136.33464,133.242116 C135.752542,131.008938 133.456579,129.638086 131.180948,130.083911 C129.75414,130.363564 128.428745,130.858979 127.806226,132.267023 C127.493999,132.972713 127.423566,133.78688 127.276407,134.557657 C126.938524,136.326414 126.848244,138.093502 127.363299,139.852007 C127.562979,140.532904 127.637043,141.267442 127.940315,141.897319 C128.453917,142.964438 129.480396,143.405018 130.576581,143.783134 C132.632685,144.492163 135.31155,143.400488 136.066221,141.413587" id="Fill-62"></path>
                    <path d="M131.99346,182.548333 C130.855432,181.759318 130.165942,181.823427 129.276254,182.730183 C128.658739,183.359299 128.081979,184.038556 127.422519,184.61404 C126.974934,185.00493 126.890088,185.388836 127.134139,186.016955 C127.449212,186.174608 127.827919,186.364191 128.114392,186.507376 C128.735243,186.21926 129.215718,185.99625 129.842765,185.70539 L129.842765,193.907103 C128.937348,194.03557 128.060768,194.160046 127.085996,194.298492 L127.085996,196 L134.616526,196 C134.736883,195.507084 134.850328,195.041857 135,194.428207 C133.903679,194.233385 133.007795,194.074235 131.99346,193.894131 L131.99346,182.548333 Z" id="Fill-64"></path>
                    <path d="M153.707513,110.158479 C154.317446,108.144465 155.446769,107.721588 157.641198,108.598693 C158.996139,111.476203 158.856143,114.357844 157.815394,117.270593 C157.207922,117.502446 156.770463,117.73673 156.303972,117.832971 C155.343678,118.031529 154.450061,117.600146 154.072144,116.770431 C153.092168,114.617646 153.036071,112.374695 153.707513,110.158479 M153.581787,119.689742 C153.647726,119.73762 153.711696,119.787928 153.973728,119.986486 C155.028501,119.986486 156.17234,120.028287 157.309782,119.964856 C157.724852,119.941524 158.153453,119.714532 158.528172,119.499934 C159.956187,118.68067 160.54496,117.25431 160.747205,115.799272 C161.069025,113.486085 161.225506,111.13304 160.324508,108.860926 C159.39251,106.511284 158.348317,105.855824 156.533035,106.025218 C156.127315,106.062888 155.71446,106.028135 155.304804,106.02935 C153.785754,106.033967 151.904533,107.345859 151.60215,108.803813 C151.179208,110.844317 150.781361,112.871455 151.138611,115.020351 C151.451082,116.901669 151.985973,118.528774 153.581787,119.689742" id="Fill-66"></path>
                    <path d="M104.081285,132.175313 L105.827638,132.175313 C107.456011,133.218104 107.727125,134.795715 107.684748,136.499317 C107.669339,137.1208 107.657059,137.743225 107.612756,138.362824 C107.57977,138.828171 107.565323,139.310474 107.427358,139.750622 C106.772927,141.838325 104.891498,142.318508 103.07243,140.766096 C102.037091,137.821647 101.582745,134.861655 104.081285,132.175313 M101.557223,142.404701 C102.448337,143.28382 103.523646,143.935211 104.772555,143.995735 C106.698527,144.089463 108.997944,142.628896 109.506465,140.555795 C109.989944,138.583958 110.176546,136.617538 109.799249,134.631101 C109.532469,133.226111 109.323956,131.735164 107.823195,130.956132 C106.442582,130.239272 105.113735,129.578461 103.424928,130.336769 C102.313984,130.836028 101.606582,131.633429 100.90207,132.412696 C99.6225823,135.510691 99.7513978,138.556405 100.989953,141.781098 C101.134419,141.941002 101.334023,142.184273 101.557223,142.404701" id="Fill-68"></path>
                    <path d="M156.234184,141.409229 C156.160831,137.840689 156.156558,134.092084 156.292344,130.382571 C155.370564,129.862413 154.527596,129.872675 153.829199,130.413355 C152.900059,131.132878 152.07822,131.999482 151.067418,132.934984 C151.39454,133.531369 151.698872,134.085732 152.007003,134.648157 C152.698754,134.273614 153.208665,133.997777 153.898516,133.624211 L153.898516,141.451741 C152.966053,141.62814 152.071098,141.797209 151,141.999751 C151.161187,142.783774 151.292938,143.42487 151.411157,144 C153.97638,143.913511 156.275015,143.836061 158.595252,143.757634 C158.769733,143.13926 158.896736,142.688001 159,142.321276 C158.269792,141.209864 157.138872,142.267526 156.234184,141.409229" id="Fill-70"></path>
                    <path d="M136.062752,165.500297 C135.772215,166.462983 134.995087,166.858966 134.017758,166.872662 C133.053368,166.885885 132.401733,166.503124 131.910017,165.598289 C131.447354,164.747291 131.284262,163.926044 131.310874,163.008694 C131.334801,162.183198 131.299643,161.356048 131.313804,160.530079 C131.344811,158.724187 132.126821,157.735055 134.032407,157.158671 C134.44331,157.323723 134.92819,157.518291 135.475573,157.73836 C137.126023,160.193363 136.868689,162.830655 136.062752,165.500297 M138.922229,161.228068 C138.761579,160.220754 138.611427,159.205648 138.348966,158.221002 C137.791574,156.12987 134.866909,154.464945 132.770155,155.160572 C130.961008,155.760568 129.601585,157.011092 129.291271,158.901754 C129.026369,160.516148 129.059817,162.178003 129.000733,163.82026 C128.988526,164.160517 129.131353,164.511637 129.234628,164.848825 C129.451189,165.557675 129.689234,166.260623 129.988806,167.183404 C131.155595,168.484222 132.669809,169.228491 134.627643,168.937112 C136.263931,168.693194 137.617007,168.0004 138.118734,166.408674 C138.64634,164.73454 139.209593,163.02971 138.922229,161.228068" id="Fill-72"></path>
                    <path d="M144.0384,188.355202 C143.913389,186.471305 144.010852,184.570531 144.010852,182.774003 C143.596001,182.073313 143.071881,181.906765 142.452615,182.044272 C141.745146,182.201636 139.372486,184.729135 139.072228,185.734873 C139.454206,186.004675 139.873455,186.301035 140.238302,186.558675 C140.811037,186.256606 141.247186,186.026765 141.840756,185.713775 L141.840756,193.856478 C140.964754,194.017068 140.061898,194.182623 139,194.37697 C139.133113,195.009155 139.234511,195.491671 139.341233,196 L146.42495,196 C146.589548,195.540816 146.750441,195.09156 147,194.395089 C145.967271,194.236981 145.164655,194.114118 144.224528,193.970405 C143.73305,192.117287 144.162022,190.216015 144.0384,188.355202" id="Fill-74"></path>
                </g>
            </g>
        </g>
    </g>
</svg>