<?xml version="1.0" encoding="UTF-8"?>
<svg width="88px" height="128px" viewBox="0 0 88 128" version="1.1" xmlns="http://www.w3.org/2000/svg" xmlns:xlink="http://www.w3.org/1999/xlink">
    <!-- Generator: Sketch 46.2 (44496) - http://www.bohemiancoding.com/sketch -->
    <title>icon-USB</title>
    <desc>Created with Sketch.</desc>
    <defs></defs>
    <g id="Welcome" stroke="none" stroke-width="1" fill="none" fill-rule="evenodd">
        <g id="Desktop-HD-ROADMAP" transform="translate(-537.000000, -1815.000000)" fill="#FFFFFF">
            <g id="icon-USB" transform="translate(537.000000, 1815.000000)">
                <g id="USB">
                    <rect id="Rectangle-path" fill-rule="nonzero" x="25" y="13" width="10" height="10"></rect>
                    <rect id="Rectangle-path" fill-rule="nonzero" x="53" y="13" width="10" height="10"></rect>
                    <path d="M77.5866667,40.1281465 L77.5866667,10.9839817 C77.5866667,4.83295195 72.6,0 66.5866667,0 L21.2666667,0 C15.1066667,0 10.2666667,4.97940503 10.2666667,10.9839817 L10.2666667,40.1281465 L0,40.1281465 L0,128 L88,128 L88,40.1281465 L77.5866667,40.1281465 Z M79.0533333,119.212815 L8.65333333,119.212815 L8.65333333,48.9153318 L79.0533333,48.9153318 L79.0533333,119.212815 Z M18.92,10.9839817 C18.92,9.81235698 19.9466667,8.78718535 21.12,8.78718535 L66.44,8.78718535 C67.6133333,8.78718535 68.64,9.81235698 68.64,10.9839817 L68.64,40.1281465 L18.7733333,40.1281465 L18.7733333,10.9839817 L18.92,10.9839817 Z" id="Shape" fill-rule="nonzero"></path>
                    <rect id="Rectangle-path" fill-rule="nonzero" x="44" y="76" width="30" height="9"></rect>
                    <path d="M64.8823529,89 L44,89 L44,97.8068182 L60.4705882,97.8068182 C56.5,102.352273 50.6176471,105.335227 44,105.335227 C33.7058824,105.335227 25.1764706,98.375 23.1176471,89 L14,89 C16.2058824,103.204545 28.8529412,114 44,114 C59.1470588,114 71.7941176,103.0625 74,89 L67.8235294,89 L64.8823529,89 Z" id="Shape" fill-rule="nonzero"></path>
                    <path d="M14,78 L23.0450928,78 C25.0875332,68.7670455 33.5490716,61.6647727 43.7612732,61.6647727 C48.867374,61.6647727 53.535809,63.3693182 57.1830239,66.3522727 L69,66.3522727 C63.602122,58.2556818 54.265252,53 43.7612732,53 C28.5888594,53 16.1883289,63.7954545 14,78 Z" id="Shape" fill-rule="nonzero"></path>
                </g>
            </g>
        </g>
    </g>
</svg>