<?xml version="1.0" encoding="UTF-8"?>
<svg width="167px" height="192px" viewBox="0 0 167 192" version="1.1" xmlns="http://www.w3.org/2000/svg" xmlns:xlink="http://www.w3.org/1999/xlink">
    <!-- Generator: Sketch 46.2 (44496) - http://www.bohemiancoding.com/sketch -->
    <title>icon-coins-structure</title>
    <desc>Created with Sketch.</desc>
    <defs></defs>
    <g id="Symbols" stroke="none" stroke-width="1" fill="none" fill-rule="evenodd">
        <g id="icon-coins-structure" fill-rule="nonzero" fill="#FFFFFF">
            <g id="Coins-8">
                <path d="M119.550856,135.44751 C121.415054,134.408885 123.332515,133.423523 125.143451,132.331636 C131.934459,128.283662 138.299365,123.596535 144.2648,118.403411 C146.92794,116.11311 149.990552,114.941328 153.346109,114.541857 C156.994611,114.115755 160.589851,114.461963 163.732356,116.725632 C166.395497,118.669725 167.274333,121.306234 166.928125,124.44874 C166.502023,128.177136 164.531299,131.239748 162.400786,134.142571 C156.03588,142.930935 148.206247,150.334465 140.190195,157.524945 C135.636224,161.599549 130.895834,165.540997 126.182076,169.455814 C123.705355,171.506432 120.616112,172.252111 117.606763,173.077685 C113.212582,174.276098 108.685243,174.435887 104.184535,174.648938 C88.4453751,175.367986 72.7062148,175.6343 56.9404232,175.208197 C55.4490645,175.154935 53.8511802,176.246822 52.4130843,177.019133 C44.5568199,181.200263 36.7005555,185.434657 28.8709225,189.642419 C27.8322977,190.201678 26.7670415,190.787569 25.7284167,191.346829 C23.5180101,192.545242 21.2010779,192.145771 20.0026647,189.722313 C17.0998416,183.890035 13.9573358,178.137652 10.8680928,172.385268 C7.77884988,166.606254 4.68960692,160.827239 1.60036396,155.074855 C1.2807871,154.488964 0.93457884,153.929705 0.668264792,153.343814 C-0.183940162,151.506247 0.428582148,149.588786 2.23951768,148.630055 C8.25821516,145.460918 14.2769127,142.345044 20.2956101,139.175907 C25.4621027,136.432872 30.6285952,133.716469 35.6619307,130.813645 C36.8869753,130.121229 37.7125489,128.709765 38.6712795,127.591246 C43.1187241,122.238333 48.8178447,118.96267 55.5822215,117.764257 C58.9910413,117.151735 62.5596496,117.311523 66.074995,117.284892 C79.5771173,117.231629 93.0526081,117.25826 106.55473,117.284892 C111.774486,117.284892 115.849091,119.442036 118.4856,123.969374 C120.562849,127.511351 120.935689,131.293011 119.25791,135.154564 C119.364436,135.26109 119.470962,135.367616 119.550856,135.44751 Z M24.822949,144.448925 C30.3889126,154.78191 35.9016134,165.008369 41.4409456,175.314723 C41.867048,175.154935 42.1866249,175.048409 42.4795703,174.88862 C45.5155505,173.210842 48.5248992,171.479801 51.5875108,169.855285 C52.8924496,169.1895 54.3039141,168.337295 55.6887471,168.337295 C60.0829289,168.284032 64.4771107,168.763397 68.8446611,168.710135 C79.7901685,168.576978 90.7623073,168.177506 101.707815,168.017718 C106.900939,167.964455 112.094063,167.778035 117.100767,166.313308 C118.698651,165.860574 120.376429,165.327946 121.708,164.369216 C124.504297,162.318597 127.087543,160.028297 129.724053,157.764627 C138.77873,149.961626 147.593725,141.918941 155.183676,132.624581 C157.181031,130.174492 159.045229,127.591246 160.110485,124.555265 C160.616482,123.090538 160.350168,122.078545 159.071861,121.732336 C155.396727,120.720343 151.85475,120.880131 148.792138,123.436746 C141.148925,129.854915 133.212767,135.873612 124.344509,140.480845 C121.122109,142.158624 117.766552,143.863034 114.277838,144.661976 C108.898294,145.887021 103.358962,146.419649 97.8728924,147.138697 C91.5878808,147.96427 85.3028693,148.630055 78.9912263,149.375735 C77.6862875,149.535523 76.5943999,149.082789 75.8220892,148.070796 C74.9965156,147.032171 74.8633586,145.833758 75.4492495,144.582082 C76.3014545,142.744515 78.0324958,142.611358 79.7102743,142.424938 C85.0365552,141.785784 90.3628362,141.199893 95.6891172,140.56074 C99.2044626,140.134637 102.719808,139.522115 106.235153,139.282432 C107.886301,139.175907 108.951557,138.456859 109.96355,137.391602 C110.469547,136.858974 110.922281,136.273083 111.321752,135.63393 C112.440271,133.902888 113.718578,132.145216 113.452264,129.934809 C113.026162,126.233044 110.363021,123.996006 106.607993,123.996006 C91.3481982,123.996006 76.0617718,123.942743 60.8019769,124.022637 C53.2386579,124.049269 47.193329,127.218406 42.719253,133.37026 C42.0800993,134.249097 41.467577,135.314353 40.5887406,135.82035 C37.5527605,137.604654 34.4102547,139.149275 31.3210117,140.827054 C29.2171308,141.998836 27.0866184,143.197249 24.822949,144.448925 Z M24.7164233,184.076455 C25.1158944,183.943298 25.4887341,183.890035 25.7816795,183.756878 C28.5247142,182.292151 31.2411175,180.74753 34.037415,179.389328 C35.2091968,178.803437 35.0494084,178.29744 34.5434117,177.365341 C31.9867969,172.624951 29.4834448,167.831298 26.9268299,163.064277 C24.3702151,158.270624 21.7603374,153.476971 19.2569854,148.630055 C18.6977259,147.538168 18.2183606,147.671325 17.3661556,148.124059 C14.8628036,149.508892 12.3328201,150.813831 9.80283664,152.172032 C8.17832095,153.050869 8.17832095,153.050869 9.11042012,154.702016 C9.37673417,155.154749 9.5897854,155.634115 9.85609945,156.11348 C12.6257656,161.359867 15.3954317,166.579622 18.1650978,171.826009 C20.3488729,175.900614 22.5326481,179.975219 24.7164233,184.076455 Z M88.4986379,108.895999 C72.2801123,109.029156 59.2040926,95.7134539 59.1774612,79.7079797 C59.1774612,63.4095599 72.2801123,50.2003831 88.5252693,50.2536459 C105.116634,50.2802773 117.979603,63.4095599 117.952972,79.7346111 C117.92634,95.979768 104.770426,109.029156 88.4986379,108.895999 Z M88.5252693,102.26478 C100.935504,102.131623 111.108701,92.3046341 111.188595,79.7878739 C111.268489,67.3510078 101.548026,56.6984459 87.8594842,56.9647599 C76.1949288,57.2044426 65.9951008,66.9249053 65.9684694,79.601454 C65.941838,91.9317945 76.008509,102.184885 88.5252693,102.26478 Z M135.236753,4.12805279 C150.15034,3.86173875 162.454049,16.3518676 162.400786,31.1855601 C162.347523,46.312198 150.363391,58.3762244 135.263385,58.3762244 C120.056853,58.349593 108.152615,46.2589352 108.125983,31.1855601 C108.046089,16.1920792 120.456324,3.88837015 135.236753,4.12805279 Z M155.609778,31.2920857 C155.876092,20.1867899 146.528469,10.7326412 135.156859,10.785904 C123.838512,10.8657982 115.103411,19.9204758 114.810466,30.6263006 C114.490889,42.1310675 123.758618,51.6118476 135.183491,51.638479 C146.528469,51.6917418 155.769566,42.3174873 155.609778,31.2920857 Z M47.4862745,51.3189021 C33.3982613,51.3189021 21.8402316,39.7608724 21.8402316,25.6994907 C21.8402316,11.3984263 33.3449985,-0.0530777618 47.5129059,0.000185047808 C61.8139702,0.0534478574 73.2122115,11.3717949 73.1855801,25.6195965 C73.1323173,40.1337121 61.7607074,51.1324823 47.4862745,51.3189021 Z M28.5513456,26.2853816 C28.0187175,35.0737452 37.1532894,44.7143137 47.5129059,44.5545253 C58.0323108,44.3947369 66.4478347,36.1656328 66.3945719,25.5397023 C66.3679405,14.6740891 57.7127339,6.68466766 47.4330116,6.65803625 C37.0467638,6.63140485 28.2584002,15.1800858 28.5513456,26.2853816 Z M47.5395373,22.6102477 L47.5395373,25.8859105 L58.4317818,25.8859105 L58.4317818,22.6102477 L47.5395373,22.6102477 Z M55.1294876,26.9511667 L47.5661687,26.9511667 L47.5661687,30.2268295 L53.5316033,30.2268295 C52.1201389,31.9578708 49.9629951,33.0497584 47.5661687,33.0497584 C43.8644034,33.0497584 40.748529,30.4398807 40.0028497,26.9511667 L36.6739241,26.9511667 C37.4728662,32.2508163 42.0534679,36.3254212 47.5661687,36.3254212 C53.0788695,36.3254212 57.6594711,32.2508163 58.4584132,26.9511667 L56.2213752,26.9511667 L55.1294876,26.9511667 Z M56.7806347,19.3345849 C54.8099108,16.3252362 51.4277224,14.3012494 47.5661687,14.3012494 C42.0534679,14.3012494 37.4728662,18.3758544 36.6739241,23.6755039 L40.0028497,23.6755039 C40.748529,20.1867899 43.8644034,17.5769122 47.5661687,17.5769122 C49.430367,17.5769122 51.1347769,18.2426973 52.4663472,19.3345849 L56.7806347,19.3345849 L56.7806347,19.3345849 Z M135.156859,28.4691568 L135.156859,31.7448196 L146.049104,31.7448196 L146.049104,28.4691568 L135.156859,28.4691568 Z M142.746809,32.8100758 L135.183491,32.8100758 L135.183491,36.0857386 L141.148925,36.0857386 C139.737461,37.8167799 137.580317,38.9086675 135.183491,38.9086675 C131.481725,38.9086675 128.365851,36.2987898 127.620172,32.8100758 L124.291246,32.8100758 C125.090188,38.1097253 129.67079,42.1843303 135.183491,42.1843303 C140.696191,42.1843303 145.276793,38.1097253 146.075735,32.8100758 L143.838697,32.8100758 L142.746809,32.8100758 Z M144.397957,25.193494 C142.427233,22.1841453 139.045044,20.1601585 135.183491,20.1601585 C129.67079,20.1601585 125.090188,24.2347634 124.291246,29.534413 L127.620172,29.534413 C128.365851,26.045699 131.481725,23.4358213 135.183491,23.4358213 C137.047689,23.4358213 138.752099,24.1016064 140.083669,25.193494 L144.397957,25.193494 L144.397957,25.193494 Z M88.5519007,76.4855797 L88.5519007,80.2938706 L101.255081,80.2938706 L101.255081,76.4855797 L88.5519007,76.4855797 Z M97.3935271,81.572178 L88.5785321,81.572178 L88.5785321,85.3804689 L95.5293287,85.3804689 C93.8781816,87.4044556 91.3748296,88.6827631 88.5785321,88.6827631 C84.2642445,88.6827631 80.6423734,85.6201515 79.7635371,81.572178 L75.9019834,81.572178 C76.8340826,87.7506639 82.1603635,92.5176854 88.6051635,92.5176854 C95.0499635,92.5176854 100.376244,87.7506639 101.308344,81.572178 L98.6984659,81.572178 L97.3935271,81.572178 Z M99.3109882,72.6772888 C97.0206874,69.1619433 93.0526081,66.8183797 88.5519007,66.8183797 C82.1071007,66.8183797 76.7808197,71.5854012 75.8487206,77.7638871 L79.7102743,77.7638871 C80.5891106,73.6892822 84.2109817,70.653302 88.5252693,70.653302 C90.6824131,70.653302 92.6797684,71.4256128 94.2243899,72.7039202 L99.3109882,72.7039202 L99.3109882,72.6772888 Z" id="Shape"></path>
            </g>
        </g>
    </g>
</svg>