<?xml version="1.0" encoding="UTF-8"?>
<svg width="212px" height="152px" viewBox="0 0 212 152" version="1.1" xmlns="http://www.w3.org/2000/svg" xmlns:xlink="http://www.w3.org/1999/xlink">
    <!-- Generator: Sketch 46.2 (44496) - http://www.bohemiancoding.com/sketch -->
    <title>icon-computer-network</title>
    <desc>Created with Sketch.</desc>
    <defs></defs>
    <g id="Welcome" stroke="none" stroke-width="1" fill="none" fill-rule="evenodd">
        <g id="Desktop-HD-ROADMAP" transform="translate(-810.000000, -1555.000000)" fill="#FFFFFF">
            <g id="icon-computer-network" transform="translate(810.000000, 1555.000000)">
                <g id="Page-1">
                    <path d="M72.6412154,111.161278 L139.260417,111.161278 L139.260417,94.9966466 L72.6412154,94.9966466 L72.6412154,111.161278 Z M72.6303394,28.6241557 L139.24363,28.6241557 L139.24363,12.4855185 L72.6303394,12.4855185 L72.6303394,28.6241557 Z M72.6695875,83.5743083 L139.248123,83.5743083 L139.248123,67.3895904 L72.6695875,67.3895904 L72.6695875,83.5743083 Z M72.6135525,56.2345202 L139.239138,56.2345202 L139.239138,39.7730819 L72.6135525,39.7730819 L72.6135525,56.2345202 Z M60.0387839,64.7528301 C60.0387839,45.9320607 60.0409118,27.1112914 60.036656,8.29052207 C60.0357103,4.69811918 61.6035074,2.02945678 64.8923112,0.608044906 C66.0666814,0.100448445 67.4999473,0.0406617109 68.8161781,0.0349902421 C78.9403032,-0.00990888617 89.0649011,0.00781445394 99.1892626,0.00805076514 C113.922915,0.00828707634 128.656567,0.0224657484 143.390219,1.61842879e-05 C146.178727,-0.00423741734 148.526285,0.829468502 150.264552,3.09073039 C151.506542,4.70639007 151.974919,6.57017652 151.975392,8.56582462 C151.980593,33.3324201 151.978702,58.0987792 151.978229,82.8653747 C151.978229,95.7778914 151.964752,108.690881 151.999981,121.603634 C152.002818,122.698227 151.693089,123.001178 150.598161,122.999997 C120.895841,122.971876 91.1932845,122.972348 61.4907282,122.999288 C60.3870519,123.000233 59.9978808,122.740999 60.0000087,121.569369 C60.0338188,102.63068 60.0238886,83.691755 60.0238886,64.7528301 L60.0387839,64.7528301 Z" id="Fill-1"></path>
                    <path d="M156.022535,70.8936589 C156.022535,67.9658929 156.020884,65.1435747 156.023478,62.3214923 C156.024185,61.4932443 156.626828,61.5423117 157.186088,61.5418399 C160.643504,61.5399527 164.10092,61.5380655 167.558336,61.5390091 C176.162737,61.5411322 184.767138,61.5458502 193.371539,61.5453784 C193.712942,61.5453784 194.054581,61.5031521 194.485815,61.474844 C194.485815,58.3342955 194.485579,55.2763122 194.486051,52.218329 C194.486051,51.07822 194.428758,49.9343365 194.506328,48.7994174 C194.571402,47.8475573 194.228584,47.5984459 193.301514,47.6010408 C182.104051,47.6300566 170.906352,47.6203847 159.708889,47.6208565 C158.88391,47.6208565 158.054922,47.5699019 157.234658,47.6328875 C156.338003,47.7017705 155.975144,47.4342589 156.001315,46.4644703 C156.06521,44.1075846 156.057194,41.7469243 156.007917,39.3895667 C155.988583,38.4596454 156.315604,38.1517948 157.234187,38.1640616 C160.298093,38.2053443 163.363178,38.1817542 166.427555,38.1819901 C175.307107,38.182226 184.186422,38.182226 193.065974,38.1824619 L194.424985,38.1824619 C194.449506,37.7392041 194.484636,37.3985632 194.485108,37.0576864 C194.489352,33.2445844 194.467189,29.4312465 194.505856,25.6186164 C194.514108,24.7901324 194.356846,24.4157577 193.421288,24.4242501 C185.918431,24.4919537 178.415574,24.5374826 170.912246,24.5450314 C166.330416,24.5497494 161.748349,24.4591635 157.166283,24.4511428 C156.317255,24.4497274 155.98929,24.2117034 156.003909,23.3107979 C156.052243,20.2891434 156.022063,17.2663094 156.022063,14.1083042 C156.499038,14.082591 156.910702,14.0406006 157.322367,14.0413083 C165.685805,14.0533393 174.049243,14.080232 182.412917,14.0830628 C187.716457,14.0851859 193.022591,14.1484074 198.322594,14.0021488 C201.70079,13.9092039 205.015325,16.8431032 204.999528,20.540142 C204.990097,22.7413332 205,24.9425244 205,27.1439515 C205,56.7839548 204.999764,86.4239581 204.999528,116.063961 L204.999528,118 L156.09869,118 L156.09869,108.218841 L194.391033,108.218841 C194.435831,107.776527 194.493124,107.471979 194.49336,107.167195 C194.49784,103.314934 194.461295,99.4619644 194.513873,95.6101747 C194.527548,94.6000471 194.183551,94.3636744 193.227716,94.3660334 C181.323161,94.3936338 169.418135,94.3837259 157.513345,94.3792438 C157.053111,94.3790079 156.593112,94.3332432 156.094446,94.3070582 L156.094446,84.8457811 L194.423335,84.8457811 C194.447148,84.3659587 194.481571,83.9875737 194.482279,83.6087169 C194.488409,79.8347744 194.451628,76.0603602 194.51458,72.2878331 C194.531792,71.2444435 194.227169,70.9597111 193.191878,70.9625419 C181.287795,70.995804 169.383476,70.9835371 157.479393,70.9783473 C157.021281,70.9781114 156.56364,70.9264491 156.022535,70.8936589" id="Fill-3"></path>
                    <path d="M17.6020893,108.208276 L55.8923468,108.208276 L55.8923468,118 L7.01958355,118 L7.01958355,116.325525 C7.01981943,84.5836686 7.03302899,52.8420479 7.0000051,21.1004272 C6.99670271,17.9287196 8.59859728,15.2788251 11.6356158,14.2694201 C12.0731823,14.1240394 12.5473111,14.0133517 13.0044561,14.0128797 C27.0389019,13.9984833 41.0735836,13.9994273 55.1080294,14.0006073 C55.3382531,14.0006073 55.5687127,14.0308163 55.8918751,14.053237 C55.9182942,14.4688466 55.9619329,14.8452789 55.9628764,15.2221832 C55.9704247,17.8574453 55.9178224,20.4941234 55.9954285,23.1272614 C56.0270371,24.2029845 55.6526877,24.431676 54.6473462,24.4288439 C43.2470274,24.3955668 31.8464727,24.4059512 20.445918,24.4047711 C17.5447692,24.4045351 17.5445333,24.4042991 17.5445333,27.2961016 C17.5442975,30.4425563 17.5442975,33.5892471 17.5440616,36.7359379 L17.5440616,38.1557602 L19.5236079,38.1557602 C31.2388331,38.1557602 42.9538224,38.1682687 54.6690476,38.1338115 C55.7090642,38.1307434 56.0206682,38.4264611 55.9937774,39.464895 C55.9251348,42.1258819 55.9708965,44.7897009 55.9708965,47.5951245 L54.5650223,47.5951245 C42.6924619,47.5953605 30.8201374,47.6114091 18.9478128,47.5712878 C17.7959867,47.5675116 17.4990076,47.914443 17.5197654,49.0335915 C17.5874644,52.6508817 17.5428822,56.2702959 17.5442975,59.8890021 C17.545241,61.6260188 17.5480716,61.6290869 19.2393666,61.6293229 C31.0331414,61.630739 42.8269163,61.6467875 54.6206912,61.6047781 C55.7241609,61.600766 56.0383596,61.8858633 55.9963721,62.9840071 C55.9093305,65.2619535 55.9409391,67.5460361 55.9808037,69.8265786 C55.9956644,70.6695982 55.7623742,70.9941088 54.854689,70.9860845 C48.6506794,70.9303867 42.446198,70.909854 36.2419525,70.9122141 C30.3101541,70.9141022 24.3783557,70.9461992 18.4470291,71.0132254 C18.1429734,71.0165295 17.5843979,71.4689563 17.5815673,71.7174724 C17.5336826,75.9250178 17.5542046,80.1335073 17.5662348,84.3417607 C17.5664706,84.4517403 17.637472,84.5614839 17.7103605,84.7717667 L55.8718248,84.7717667 C55.9088588,85.2756432 55.9640558,85.6872406 55.9652353,86.0986021 C55.9723118,88.4980925 55.9215966,90.8985269 55.9878802,93.2958932 C56.0133558,94.2200993 55.6878346,94.3975771 54.8426589,94.3961611 C42.8920205,94.3735043 30.9411463,94.3975771 18.9907439,94.3602879 C17.875244,94.3569838 17.4931104,94.6147042 17.516463,95.7881345 C17.5905309,99.4837793 17.5426463,103.18202 17.5464204,106.879317 C17.5466563,107.265425 17.5777931,107.651298 17.6020893,108.208276" id="Fill-4"></path>
                    <path d="M105.466311,151.986387 C89.8883276,151.985452 74.3105804,151.973056 58.7328332,151.997848 C56.1561748,152.00159 53.976107,151.318865 52.746204,148.92336 C52.3196331,148.092816 52.0590165,147.085918 52.0450886,146.154801 C51.9761574,141.517692 52.0025967,136.87918 52.0186492,132.241136 C52.0328131,128.137297 54.7397799,126.011936 58.3237311,126.013808 C89.7549505,126.030648 121.18617,126.041641 152.617153,126.000008 C156.454875,125.994629 159.072137,128.684835 158.998484,132.308731 C158.906891,136.789133 158.962602,141.272575 158.979835,145.754849 C158.989514,148.206019 158.110169,150.203442 155.821747,151.267643 C154.803595,151.740803 153.573928,151.935867 152.435146,151.955514 C147.991207,152.031528 143.545144,151.987089 139.100024,151.987089 C127.88855,151.987089 116.677549,151.987089 105.466311,151.986387" id="Fill-5"></path>
                    <path d="M162.886137,142.994693 C162.886137,138.924498 162.961292,135.038164 162.84309,131.157438 C162.804324,129.883954 162.463276,128.531506 161.905803,127.381142 C161.021075,125.555371 159.448306,124.343797 157.483118,123.619797 C155.848989,123.017982 155.868253,122.967753 156.13605,121.060447 C156.532274,121.041057 156.952757,121.002742 157.373241,121.002742 C173.851522,120.999705 190.33028,120.999238 206.808799,121.001107 C209.670844,121.001574 211.846036,122.861454 211.920477,125.671949 C212.03297,129.940258 212.023219,134.215808 211.909537,138.484117 C211.838901,141.140187 209.629699,142.966191 206.743634,142.986983 C203.181418,143.012682 199.61825,142.992357 196.055796,142.99259 C185.527305,142.993058 174.999051,142.993992 164.47056,142.994693 C164.001084,142.994927 163.531846,142.994693 162.886137,142.994693" id="Fill-6"></path>
                    <path d="M55.8046276,121.057987 C56.1651918,123.004085 56.1837555,123.122525 54.4654235,123.671125 C51.4583425,124.631234 49.0036506,127.934261 49.1847656,131.375313 C49.3842064,135.166088 49.2302229,138.974583 49.2302229,142.842997 C48.7171033,142.891726 48.4186561,142.943718 48.119971,142.945117 C42.2557467,142.968199 36.3915224,143.002005 30.527536,142.999907 C22.2443192,142.997342 13.9613403,142.9668 5.67836145,142.949313 C1.98704168,142.941386 0.0235737133,141.058705 0.00810396568,137.471469 C-0.00807977028,133.780015 0.00619999674,130.088561 1.20976955e-05,126.396874 C-0.00403383629,123.951371 1.00649768,122.151224 3.42192027,121.274816 C3.89148661,121.104151 4.41864801,121.010891 4.91939184,121.010425 C21.5393747,120.997135 38.1591195,120.999233 54.7791024,121.002264 C55.1277667,121.002264 55.476431,121.039335 55.8046276,121.057987" id="Fill-7"></path>
                    <path d="M33.9992045,101.835199 C34.0410146,103.33502 32.4273077,104.996916 30.9251869,104.999995 C29.4111599,105.003074 28.0580052,103.640694 28.0023506,102.056897 C27.9406044,100.310465 29.1007678,99.0625731 30.842951,99.0018301 C32.4923766,98.9441662 33.9549023,100.257 33.9992045,101.835199" id="Fill-8"></path>
                    <path d="M40.9381948,99.0000822 C42.6730503,99.01132 43.9986078,100.278669 43.9999991,101.927263 C44.0013903,103.389589 42.4429419,104.977498 40.9852181,104.999693 C39.3961628,105.023854 38.0171823,103.620246 38.0002093,101.960976 C37.9818452,100.189047 39.1732889,98.9885634 40.9381948,99.0000822" id="Fill-9"></path>
                    <path d="M183.999838,101.919833 C184.01668,103.627405 182.719844,104.998882 181.088133,104.999999 C179.590877,105.001117 178.034113,103.489112 178.000709,102.001971 C177.964499,100.381007 179.31944,99.0296456 181.010098,99.0005901 C182.78216,98.9698582 183.982434,100.142137 183.999838,101.919833" id="Fill-10"></path>
                    <path d="M174.999645,101.897397 C175.024671,103.585953 173.723856,104.977185 172.098821,104.999777 C170.581484,105.020974 169.030403,103.529054 169.000596,102.019562 C168.967977,100.377028 170.27751,99.0485519 171.975656,99.0014152 C173.716826,98.9528838 174.974056,100.157242 174.999645,101.897397" id="Fill-11"></path>
                    <path d="M47.0000586,78.9111435 C47.0104676,77.1742647 48.2685514,75.95247 49.99701,76.0014196 C51.6824259,76.0489787 53.0569781,77.4167881 52.9981813,79.014049 C52.9371338,80.676947 51.3892857,81.9613194 49.9052982,81.9991442 C48.2935893,82.0400283 46.9899309,80.6104756 47.0000586,78.9111435" id="Fill-12"></path>
                    <path d="M40.0350287,29.0000957 C41.5824989,29.0098251 42.9737768,30.1498266 42.9996236,31.4291247 C43.0271379,32.7926652 41.5422002,34.016909 39.8810599,33.9998233 C38.1926833,33.9827375 36.9670469,32.8875862 37.0006754,31.426277 C37.0345819,29.9535774 38.2410417,28.9889425 40.0350287,29.0000957" id="Fill-13"></path>
                    <path d="M50.0302417,29.0002084 C51.6905356,29.0146844 53.0489579,30.1827371 52.998646,31.5527428 C52.9494583,32.8895247 51.5109304,34.0115387 49.860474,33.9999104 C48.1088316,33.9878075 46.9794831,32.9685498 47.0002825,31.4181865 C47.0202386,29.9062679 48.1757268,28.9840711 50.0302417,29.0002084" id="Fill-14"></path>
                    <path d="M165,31.4774795 C164.999764,32.9711698 163.999423,34.0030748 162.554277,33.9999931 C161.17571,33.9969114 160.015532,32.8675763 160.000185,31.5137491 C159.983895,30.0703147 161.043023,28.9969249 162.480615,29.0000066 C163.950079,29.0030883 165,30.0357046 165,31.4774795" id="Fill-15"></path>
                    <path d="M164.999983,101.938316 C165.004941,103.633231 163.91274,104.998323 162.549731,104.999999 C161.250941,105.001674 160.010468,103.528224 160.000079,101.971829 C159.989219,100.314896 161.092753,99.0101271 162.513607,99.0000732 C164.026776,98.9894608 164.994553,100.133088 164.999983,101.938316" id="Fill-16"></path>
                    <path d="M164.999802,79.0633442 C164.986349,80.6110695 163.850624,81.9773124 162.558655,81.9997553 C161.243555,82.0224752 159.972828,80.459511 160.000442,78.8527693 C160.028056,77.2507379 161.221134,75.9509923 162.617896,76.0014194 C164.082631,76.0551714 165.015615,77.2540628 164.999802,79.0633442" id="Fill-17"></path>
                    <path d="M172.070521,33.9999907 C170.431066,34.0037813 169.006787,32.8474282 169.000028,31.5069969 C168.992987,30.1177623 170.328265,29.0052374 172.009122,29.0000254 C173.833055,28.9943396 174.987518,29.9433972 174.99991,31.4584305 C175.012021,32.944324 173.800103,33.9959633 172.070521,33.9999907" id="Fill-18"></path>
                    <path d="M47.0001139,101.909941 C47.0150361,100.084315 48.1550322,98.9725535 49.9834182,99.0005153 C51.6994657,99.0265198 53.0328867,100.344359 52.9993823,101.981243 C52.9686933,103.479157 51.413974,104.998601 49.9104967,104.999999 C48.2780696,105.001397 46.9860364,103.629591 47.0001139,101.909941" id="Fill-19"></path>
                    <path d="M88.0188345,48.5530201 C88.0163187,46.5543919 89.5777928,44.977589 91.5364839,45.000241 C93.3791687,45.0217881 95.0144396,46.6966578 94.9999038,48.5474952 C94.9842499,50.5301011 93.4725329,52.0022075 91.4772228,51.9999975 C89.562698,51.9977876 87.797444,50.4458466 88.0188345,48.5530201" id="Fill-20"></path>
                    <path d="M81.4639706,51.9998927 C79.4419333,51.9841408 78.0136667,50.5653635 78.0000774,48.5590676 C77.9870427,46.5889734 79.623032,44.9587889 81.5712986,45.000794 C83.3742425,45.0394829 85.0080131,46.7387548 84.9999704,48.5670817 C84.9919278,50.4716811 83.4022532,52.0148155 81.4639706,51.9998927" id="Fill-21"></path>
                    <path d="M91.5391496,79.9701446 C89.7051487,80.2576596 87.9343135,78.4210844 88.0018732,76.5051563 C88.075475,74.4151544 89.4934065,72.9616531 91.5701831,73.0007708 C93.5469933,73.0376532 95.0195768,74.5556987 94.9998032,76.5322592 C94.9803043,78.4652315 93.3756221,80.2042919 91.5391496,79.9701446" id="Fill-22"></path>
                    <path d="M81.4104244,79.9866358 C79.4396709,80.1801316 77.9551031,78.2367604 78.0010375,76.4725832 C78.0538898,74.4375119 79.4966739,72.9919017 81.5069974,73.0000341 C83.4069122,73.0076057 84.9905435,74.5948324 84.9999517,76.5006261 C85.0099134,78.507935 83.4763673,79.9970116 81.4104244,79.9866358" id="Fill-23"></path>
                    <path d="M102.499078,79.9982898 C100.544203,79.9239634 98.9561557,78.2904548 99.0009239,76.399727 C99.0446067,74.5652312 100.70157,72.9681898 102.528924,73.0004814 C104.351393,73.0327729 106.082428,74.7016353 105.996961,76.3446087 C105.895758,78.2885062 104.197283,80.0628729 102.499078,79.9982898" id="Fill-24"></path>
                    <path d="M88.0049097,21.3624049 C88.0987748,19.3968826 89.7822734,17.7880031 91.7037477,18.0228319 C93.6716024,18.2631601 95.0660516,19.5560932 94.9975852,21.6692772 C94.9318797,23.695294 93.3113259,25.0962923 91.2534712,24.9948265 C89.2544201,24.8966604 87.9080078,23.3911715 88.0049097,21.3624049" id="Fill-25"></path>
                    <path d="M84.9999999,21.5511374 C84.9994457,23.4601989 83.4361564,24.9969686 81.4913271,24.9999953 C79.5218375,25.0030221 78.016181,23.5358679 78.0001104,21.5976395 C77.9843168,19.678122 79.6659195,17.967451 81.5362141,18.0004703 C83.3253242,18.0318385 85.000554,19.7491133 84.9999999,21.5511374" id="Fill-26"></path>
                    <path d="M113.518369,24.9995887 C111.567713,25.0278847 110.058746,23.5930306 110.001398,21.6557167 C109.944877,19.7461493 111.610999,17.9904242 113.470119,18.0000393 C115.239909,18.0088303 116.978819,19.7354353 116.999773,21.5048963 C117.02183,23.3784756 115.434561,24.9718422 113.518369,24.9995887" id="Fill-27"></path>
                    <path d="M105.999993,21.5025848 C106.003855,23.5148163 104.494622,25.0279045 102.512289,24.9996096 C100.606645,24.9724136 98.9914821,23.3736167 99.0000338,21.5234626 C99.0080338,19.7686319 100.761954,18.0116036 102.516703,18.0000659 C104.353106,17.9879788 105.996682,19.6406183 105.999993,21.5025848" id="Fill-28"></path>
                    <path d="M113.394368,107.999949 C111.432768,107.989616 109.977405,106.475384 110.000266,104.468789 C110.022575,102.51414 111.58508,100.969188 113.508119,101.000467 C115.366709,101.030349 117.001926,102.678075 116.999998,104.519338 C116.997795,106.458069 115.39012,108.010282 113.394368,107.999949" id="Fill-29"></path>
                    <path d="M81.4216304,107.999958 C79.4466416,107.990738 77.9761998,106.48357 78.0002918,104.493571 C78.0243838,102.497146 79.5286097,100.991375 81.4903064,101.000037 C83.3675427,101.008699 84.9941669,102.630148 84.9999822,104.49916 C85.0060745,106.482173 83.445357,108.009179 81.4216304,107.999958" id="Fill-30"></path>
                    <path d="M102.569761,107.968872 C100.664136,108.298046 98.9363735,105.941238 99.0018003,104.451747 C99.0820719,102.618612 100.713619,100.99528 102.553541,101.00001 C104.496827,101.005019 106.003293,102.534301 105.999995,104.498215 C105.996146,106.497467 104.544386,107.966368 102.569761,107.968872" id="Fill-31"></path>
                    <path d="M124.550074,107.999972 C122.401741,108.007239 121.095209,106.604153 121.002768,104.436636 C120.924938,102.6034 122.498397,101.04603 124.443584,101.001031 C126.448901,100.954913 127.984427,102.461694 127.999881,104.471853 C128.015335,106.466918 126.523078,107.993264 124.550074,107.999972" id="Fill-32"></path>
                    <path d="M94.9917953,104.533464 C94.9833461,106.589012 93.563586,108.000838 91.5056238,108 C89.4977941,107.999161 88.0062151,106.515779 88.000019,104.513898 C87.9938229,102.493569 89.5031453,100.962948 91.5247755,101.000683 C93.3056014,101.033945 95.1379678,102.287007 94.9917953,104.533464" id="Fill-33"></path>
                </g>
            </g>
        </g>
    </g>
</svg>