<svg xmlns="http://www.w3.org/2000/svg" width="26" height="20" viewBox="0 0 26 20"><path fill="#fff" d="M14.59.22a2.3 2.3 0 0 0-2.45.32L5.7 5.88a.42.42 0 0 1-.27.1H.36v.93h5.08c.32 0 .63-.1.87-.31l6.43-5.35a1.35 1.35 0 0 1 1.45-.19c.5.23.8.7.8 1.24v15.4a1.38 1.38 0 0 1-1.38 1.37c-.3 0-.59-.1-.84-.29l-6.71-5.2a1.37 1.37 0 0 0-.83-.28H1.35a.42.42 0 0 1-.41-.41v-2.76H0v2.76c0 .74.6 1.34 1.35 1.34h3.88c.09 0 .18.04.25.1l6.72 5.19a2.29 2.29 0 0 0 2.43.24c.8-.38 1.29-1.17 1.29-2.06V2.3c0-.9-.51-1.7-1.33-2.08zm4.1 7.98l-.86.36.05.1a3.4 3.4 0 0 1 .02 2.61l-.04.1.87.35.04-.1a4.32 4.32 0 0 0-.03-3.32zm2.68-2.44l-.82.45.06.1a7.73 7.73 0 0 1 .03 7.33l-.06.1.83.44.05-.1a8.66 8.66 0 0 0-.03-8.22zM24.46 3l-.05-.1-.85.39.05.1c.96 2.08 1.45 4.3 1.45 6.61 0 2.3-.49 4.53-1.45 6.61l-.05.1.85.4.05-.1A16.46 16.46 0 0 0 26 10c0-2.44-.52-4.8-1.54-7z"/></svg>