<?xml version="1.0" encoding="utf-8"?>
<!-- Generator: Adobe Illustrator 17.0.0, SVG Export Plug-In . SVG Version: 6.00 Build 0)  -->
<!DOCTYPE svg PUBLIC "-//W3C//DTD SVG 1.1//EN" "http://www.w3.org/Graphics/SVG/1.1/DTD/svg11.dtd">
<svg version="1.1" id="Layer_1" xmlns="http://www.w3.org/2000/svg" xmlns:xlink="http://www.w3.org/1999/xlink" x="0px" y="0px"
	 width="576.276px" height="210.047px" viewBox="18.588 273.809 576.276 210.047"
	 enable-background="new 18.588 273.809 576.276 210.047" xml:space="preserve">
<g>
	
		<linearGradient id="SVGID_1_" gradientUnits="userSpaceOnUse" x1="32.1183" y1="731.8817" x2="97.6183" y2="731.8817" gradientTransform="matrix(6.12 0 0 -6.12 -2.56 4864.1001)">
		<stop  offset="0" style="stop-color:#63BBA7"/>
		<stop  offset="0.1816" style="stop-color:#64BBA2"/>
		<stop  offset="0.3924" style="stop-color:#66BC94"/>
		<stop  offset="0.6179" style="stop-color:#69BC7D"/>
		<stop  offset="0.8519" style="stop-color:#6EBD5C"/>
		<stop  offset="1" style="stop-color:#72BE44"/>
	</linearGradient>
	<path fill="url(#SVGID_1_)" d="M214.2,403.344h13.464v13.464H214.2c-13.464,0-20.196-4.896-20.196-15.912V353.16h13.464v8.568
		h20.196v13.464h-20.196v25.092C206.856,402.12,209.916,403.344,214.2,403.344z M271.116,416.808h-13.464
		c-13.464,0-20.196-4.896-20.196-15.912V396c0-10.404,6.732-15.912,20.196-15.912h20.196v-1.836c0-1.836-1.836-1.836-6.732-1.836
		H241.74V362.34h29.376c13.464,0,20.196,4.896,20.196,15.912v22.644C291.312,411.3,284.58,416.808,271.116,416.808z
		 M257.652,403.344h13.464c4.896,0,6.732-0.612,6.732-1.836v-6.732h-20.196c-4.896,0-6.732,0.612-6.732,1.836v4.896
		C250.308,402.12,252.756,403.344,257.652,403.344z M329.868,400.284l-14.076,16.524h-17.748l22.644-26.928l-22.644-26.928h17.748
		l14.076,16.524l14.076-16.524h17.748l-22.644,26.928l22.644,26.928h-17.748L329.868,400.284z M402.696,416.808h-13.464
		c-2.448,0-4.896,0-6.732-0.612v9.792h-13.464v-47.736c0-10.404,6.732-15.912,20.196-15.912h13.464
		c13.464,0,20.196,4.896,20.196,15.912v22.644C422.892,411.3,416.16,416.808,402.696,416.808z M389.232,403.344h13.464
		c4.896,0,6.732-0.612,6.732-1.836v-22.644c0-1.836-1.836-1.836-6.732-1.836h-13.464c-4.896,0-6.732,0.612-6.732,1.836v22.644
		C381.888,402.12,384.336,403.344,389.232,403.344z M445.536,353.16v63.036h-13.464V353.16H445.536z M488.376,416.808h-13.464
		c-13.464,0-20.196-4.896-20.196-15.912V396c0-10.404,6.732-15.912,20.196-15.912h20.196v-1.836c0-1.836-1.836-1.836-6.732-1.836
		H459V362.34h29.376c13.464,0,20.196,4.896,20.196,15.912v22.644C509.184,411.3,501.84,416.808,488.376,416.808z M474.912,403.344
		h13.464c4.896,0,6.732-0.612,6.732-1.836v-6.732h-20.196c-4.896,0-6.732,0.612-6.732,1.836v4.896
		C468.18,402.12,470.628,403.344,474.912,403.344z M524.484,357.444c-1.836,0-3.672-0.612-4.896-1.836
		c-1.836-1.836-1.836-3.06-1.836-4.896s0.612-3.672,1.836-4.896c1.836-1.836,3.06-1.836,4.896-1.836
		c1.836,0,3.672,0.612,4.896,1.836c1.836,1.836,1.836,3.06,1.836,4.896s-0.612,3.672-1.836,4.896S526.932,357.444,524.484,357.444z
		 M531.216,362.34v54.468h-13.464V362.34H531.216z M554.472,378.252v38.556h-13.464v-38.556c0-10.404,6.732-15.912,20.196-15.912
		h13.464c13.464,0,20.196,4.896,20.196,15.912v38.556H581.4v-38.556c0-1.836-1.836-1.836-6.732-1.836h-13.464
		C556.92,375.804,554.472,376.416,554.472,378.252z"/>
	<g>
		
			<linearGradient id="SVGID_2_" gradientUnits="userSpaceOnUse" x1="-773.6659" y1="715.0805" x2="-769.2083" y2="715.0805" gradientTransform="matrix(-6.12 0 0 6.12 -4677.0713 -4064.98)">
			<stop  offset="0" style="stop-color:#FFFFFF"/>
			<stop  offset="0.1529" style="stop-color:#D7EEE9"/>
			<stop  offset="0.3395" style="stop-color:#AEDCD1"/>
			<stop  offset="0.5219" style="stop-color:#8DCDBF"/>
			<stop  offset="0.6963" style="stop-color:#76C3B2"/>
			<stop  offset="0.8595" style="stop-color:#68BDAA"/>
			<stop  offset="1" style="stop-color:#63BBA7"/>
		</linearGradient>
		<path fill="url(#SVGID_2_)" d="M45.9,287.064c1.224-0.612,2.448-1.224,6.12,2.448c3.672,3.06,3.672,7.344,3.06,9.792
			s-8.568,5.508-9.18,11.016s0.612,9.792,4.284,15.3c3.672,4.896,7.956,10.404,7.956,10.404s-17.136-8.568-22.032-16.524
			c-4.896-7.956-6.12-15.3-4.896-18.36c1.224-3.06,3.672-5.508,3.672-5.508S42.84,288.288,45.9,287.064z"/>
		
			<linearGradient id="SVGID_3_" gradientUnits="userSpaceOnUse" x1="-780.1684" y1="744.6094" x2="-769.6193" y2="734.0604" gradientTransform="matrix(-6.12 0 0 6.12 -4677.0713 -4064.98)">
			<stop  offset="0" style="stop-color:#72BE44"/>
			<stop  offset="0.1481" style="stop-color:#6EBD5C"/>
			<stop  offset="0.3821" style="stop-color:#69BC7D"/>
			<stop  offset="0.6076" style="stop-color:#66BC94"/>
			<stop  offset="0.8184" style="stop-color:#64BBA2"/>
			<stop  offset="1" style="stop-color:#63BBA7"/>
		</linearGradient>
		<path fill="url(#SVGID_3_)" d="M34.884,425.988c0,0,1.836,17.136,12.24,26.316c11.628,10.404,19.584,14.076,30.6,16.524
			c11.016,2.448,22.644,1.836,26.316,6.12c3.672,4.284,3.672,6.732,3.672,6.732s-11.016,0.612-17.136,0.612
			c-17.136-1.224-35.496-8.568-46.512-20.196C33.048,449.856,34.884,425.988,34.884,425.988z"/>
		
			<linearGradient id="SVGID_4_" gradientUnits="userSpaceOnUse" x1="-788.9609" y1="714.6392" x2="-767.2193" y2="736.3807" gradientTransform="matrix(-6.12 0 0 6.12 -4677.0713 -4064.98)">
			<stop  offset="0" style="stop-color:#63BBA7"/>
			<stop  offset="0.1816" style="stop-color:#64BBA2"/>
			<stop  offset="0.3924" style="stop-color:#66BC94"/>
			<stop  offset="0.6179" style="stop-color:#69BC7D"/>
			<stop  offset="0.8519" style="stop-color:#6EBD5C"/>
			<stop  offset="1" style="stop-color:#72BE44"/>
		</linearGradient>
		<path fill="url(#SVGID_4_)" d="M156.672,415.584c-8.568-11.628-17.136-18.972-34.884-33.66
			C91.8,357.444,76.5,347.652,76.5,347.652s26.316-32.436,32.436-41.004c6.12-8.568,14.076-20.196,14.688-22.032
			c0.612-1.836,0.612-3.06-1.224-4.896c-1.836-2.448-9.792-7.344-12.852-5.508c-4.896,3.06-11.016,12.24-17.136,20.196
			S58.14,335.412,58.14,335.412s-12.852-9.18-17.748-14.076c-6.732-6.732-7.956-10.404-7.956-15.912
			c0-5.508,3.06-10.404,3.06-10.404s-8.568,7.344-12.852,14.688c-4.896,7.344-4.896,14.688-2.448,21.42
			c1.836,7.344,21.42,25.092,21.42,25.092s-15.912,25.092-19.584,45.288c-4.284,20.196-2.448,33.048,2.448,42.84
			s19.584,23.868,33.66,29.376c10.404,4.284,14.076,5.508,28.764,7.344c10.404,1.224,13.464,0.612,13.464,0.612
			s-28.764-3.06-42.84-14.688c-14.076-11.628-19.584-22.644-21.42-34.884c-1.836-12.24,11.628-38.556,15.3-44.676
			s10.404-16.524,10.404-16.524s30.6,21.42,46.512,32.436s26.928,22.644,31.212,28.764c2.448,3.06,5.508,7.956,11.628,4.896
			c6.12-3.06,8.568-7.344,8.568-11.628C159.732,421.704,159.12,418.644,156.672,415.584z"/>
		<g>
			
				<linearGradient id="SVGID_5_" gradientUnits="userSpaceOnUse" x1="4.3124" y1="715.7781" x2="10.6061" y2="715.7781" gradientTransform="matrix(6.12 0 0 6.12 -2.56 -4064.98)">
				<stop  offset="0" style="stop-color:#FFFFFF"/>
				<stop  offset="0.0218" style="stop-color:#FBFDFC"/>
				<stop  offset="0.4975" style="stop-color:#AADDC8"/>
				<stop  offset="0.8347" style="stop-color:#78C9A8"/>
				<stop  offset="1" style="stop-color:#64C19B"/>
			</linearGradient>
			<path fill="url(#SVGID_5_)" d="M57.528,335.412c-5.508,0.612-9.792-1.224-14.076-3.06c-2.448-1.224-4.284-1.836-6.12-3.06
				c-1.224-0.612-1.836-1.836-3.06-2.448c-1.224-1.224-1.836-1.836-2.448-2.448c-1.836-1.836-3.06-3.672-4.284-6.732
				c-1.224-2.448-1.836-6.12-1.836-9.18c0.612-3.06,1.224-5.508,3.06-7.956c1.836-2.448,3.672-3.672,6.12-4.896
				c0.612,2.448,1.224,4.896,1.836,7.344c0.612,1.836,1.224,3.06,1.836,4.896c0.612,1.224,1.224,1.836,2.448,3.06
				c0.612,0,1.836,1.224,3.06,2.448l3.672,4.284c1.224,1.836,2.448,3.06,3.672,4.896C53.856,326.232,56.304,329.904,57.528,335.412z
				"/>
		</g>
		<g>
			
				<linearGradient id="SVGID_6_" gradientUnits="userSpaceOnUse" x1="16.8098" y1="738.9461" x2="4.9082" y2="738.9461" gradientTransform="matrix(6.12 0 0 6.12 -2.56 -4064.98)">
				<stop  offset="0" style="stop-color:#72BE44"/>
				<stop  offset="0.185" style="stop-color:#79C264"/>
				<stop  offset="0.402" style="stop-color:#7FC783"/>
				<stop  offset="0.614" style="stop-color:#83CA99"/>
				<stop  offset="0.8168" style="stop-color:#86CBA6"/>
				<stop  offset="1" style="stop-color:#87CCAB"/>
			</linearGradient>
			<path fill="url(#SVGID_6_)" d="M99.144,481.68c-7.344,2.448-15.3,2.448-22.644,1.836c-7.344-0.612-15.3-3.06-22.032-7.344
				l-2.448-1.836c-1.224-0.612-1.836-1.224-2.448-1.836c-1.836-1.224-3.06-2.448-4.284-3.672c-3.06-2.448-5.508-5.508-7.956-9.18
				c-2.448-3.672-3.672-7.344-4.896-11.628c-0.612-4.284-0.612-7.956,0-11.628v-0.612c0.612-1.836,1.224-3.672,1.836-4.896
				c1.836,1.224,2.448,2.448,3.06,4.896v-0.612c1.836,3.06,3.06,6.12,4.896,8.568c1.836,2.448,3.672,4.284,6.12,6.732
				c2.448,1.836,4.896,4.284,7.344,6.12l3.672,3.06c1.224,1.224,2.448,1.836,3.672,2.448c4.896,3.06,10.404,6.12,16.524,9.18
				C86.292,474.336,93.024,478.008,99.144,481.68z"/>
		</g>
	</g>
</g>
</svg>
