<svg xmlns="http://www.w3.org/2000/svg" width="287" height="222" viewBox="0 0 287 222"><defs><clipPath id="a"><path fill="#fff" d="M378 1265h283a2 2 0 0 1 2 2v200c0 .13 0 0 0 0 0-.56-21.23 20-21 20H378a2 2 0 0 1-2-2v-218c0-1.1.9-2 2-2z"/></clipPath></defs><path fill="#f8f8f8" d="M2 0h283a2 2 0 0 1 2 2v200c0 .13 0 0 0 0 0-.56-21.23 20-21 20H2a2 2 0 0 1-2-2V2C0 .9.9 0 2 0z"/><path fill="none" stroke="#d7dbe3" stroke-linecap="round" stroke-linejoin="round" stroke-miterlimit="50" stroke-width="2" d="M378 1265h283a2 2 0 0 1 2 2v200c0 .13 0 0 0 0 0-.56-21.23 20-21 20H378a2 2 0 0 1-2-2v-218c0-1.1.9-2 2-2z" clip-path="url(&quot;#a&quot;)" transform="translate(-376 -1265)"/></svg>