<svg xmlns="http://www.w3.org/2000/svg" width="20" height="20" viewBox="0 0 20 20"><path fill="#fff" d="M10 20a10.01 10.01 0 0 1 0-20 10.01 10.01 0 0 1 0 20zM10 .88a9.13 9.13 0 0 0 0 18.24A9.13 9.13 0 0 0 10 .88zm-1.11 10.9c0-2.37 3.53-2.52 3.53-4.75 0-1.05-.83-1.95-2.43-1.95-1.55 0-2.46.65-3.19 1.63l-.65-.67a4.6 4.6 0 0 1 3.9-1.9c2.17 0 3.46 1.26 3.46 2.79 0 2.77-3.7 3-3.7 4.9 0 .28.2.68.55.93l-.73.45a1.82 1.82 0 0 1-.74-1.43zm.1 3.37a.8.8 0 0 1 .8-.78c.44 0 .8.36.8.78 0 .43-.36.81-.8.81a.82.82 0 0 1-.8-.81z"/></svg>