<?xml version="1.0" encoding="UTF-8" standalone="no"?>
<svg
   xmlns:dc="http://purl.org/dc/elements/1.1/"
   xmlns:cc="http://creativecommons.org/ns#"
   xmlns:rdf="http://www.w3.org/1999/02/22-rdf-syntax-ns#"
   xmlns:svg="http://www.w3.org/2000/svg"
   xmlns="http://www.w3.org/2000/svg"
   viewBox="0 0 18.080708 22"
   height="22"
   width="18.080708"
   id="svg3680"
   version="1.1">
  <metadata
     id="metadata3686">
    <rdf:RDF>
      <cc:Work
         rdf:about="">
        <dc:format>image/svg+xml</dc:format>
        <dc:type
           rdf:resource="http://purl.org/dc/dcmitype/StillImage" />
        <dc:title></dc:title>
      </cc:Work>
    </rdf:RDF>
  </metadata>
  <defs
     id="defs3684" />
  <path
     id="path3947"
     d="M 9.6666674,21.333333 9,20.666667 V 18.833333 17 l 2.25,0.01531 2.25,0.01531 -1.47104,0.930314 -1.471039,0.930314 0.677911,0.677912 0.677912,0.677911 1.617034,-0.620514 1.617035,-0.620515 L 14.823907,17.32494 14.5,15.643832 11.754778,14.909677 9.009555,14.175522 8.395683,15.168788 7.781811,16.162054 5.140905,15.526294 2.5,14.890534 1.25,13.254137 0,11.617741 V 8.3784207 5.1391013 l 2.171672,-0.3195509 2.171672,-0.319551 0.453328,-1.5 0.453328,-1.5 -1.325,1.25 -1.325,1.25 L 1.55,3.9667304 0.49999999,3.9334614 2.860784,1.9667307 5.221568,0 H 7.410784 9.6000004 L 10.55,0.92305276 11.5,1.8461056 l 3,0.3269472 3,0.3269472 0.290353,7.0787627 0.290354,7.0787643 -1.015603,2.671237 -1.015602,2.671237 H 13.191418 10.333333 Z M 15,9.9999997 V 8.9999994 H 14 13 V 9.9999997 11 h 1 1 z"
     style="fill:#080808" />
</svg>
